<svg width="315" height="315" viewBox="0 0 315 315" fill="none" xmlns="http://www.w3.org/2000/svg">
<path d="M314.893 0.45282H0.427734V314.918H314.893V0.45282Z" fill="#F99D28"/>
<path d="M22.96 38.3133V49.4381H23.0515L30.5326 41.6772H30.6278V90.213H41.2881V26.8052H32.7751L22.96 38.3133Z" fill="white"/>
<path d="M47.272 38.3133V49.4381H47.3678L54.8483 41.6772H54.9398V90.213H65.6038V26.8052H57.0964L47.272 38.3133Z" fill="white"/>
<path d="M54.5265 239.858H55.0131H101.829C102.469 239.858 102.99 239.335 102.99 238.693C102.99 238.398 102.87 238.128 102.684 237.924L102.62 237.856L79.0837 207.407L78.8568 207.155C78.6429 206.922 78.3393 206.776 77.9999 206.776C77.7074 206.776 77.4465 206.899 77.2388 207.075L77.0972 207.239L76.8759 207.487L53.9162 237.615L53.5632 238.044C53.4352 238.227 53.3647 238.452 53.3647 238.693C53.3641 239.335 53.8853 239.858 54.5265 239.858Z" fill="white"/>
<path d="M101.686 244.151H54.2898C53.6486 244.151 53.1299 244.672 53.1299 245.313V282.401C53.1299 283.042 53.6486 283.567 54.2898 283.567H69.5457V260.232C69.5457 259.585 70.0607 259.072 70.7037 259.072H84.8659C85.5071 259.072 86.0264 259.585 86.0264 260.232V283.567H101.686C102.325 283.567 102.847 283.042 102.847 282.401V245.313C102.847 244.672 102.325 244.151 101.686 244.151Z" fill="white"/>
<path d="M265.496 234.442H218.584C217.95 234.442 217.438 234.934 217.438 235.558V282.924C217.438 283.538 217.95 284.038 218.584 284.038H265.496C266.133 284.038 266.644 283.538 266.644 282.924V235.558C266.644 234.934 266.133 234.442 265.496 234.442ZM239.827 265.365C239.827 265.986 239.316 266.487 238.682 266.487H224.667C224.03 266.487 223.515 265.985 223.515 265.365V256.848C223.515 256.228 224.03 255.73 224.667 255.73H238.682C239.316 255.73 239.827 256.228 239.827 256.848V265.365ZM239.827 249.624C239.827 250.242 239.316 250.742 238.682 250.742H224.667C224.03 250.742 223.515 250.242 223.515 249.624V241.103C223.515 240.487 224.03 239.986 224.667 239.986H238.682C239.316 239.986 239.827 240.487 239.827 241.103V249.624ZM261.248 265.365C261.248 265.986 260.736 266.487 260.099 266.487H246.087C245.451 266.487 244.939 265.985 244.939 265.365V256.848C244.939 256.228 245.451 255.73 246.087 255.73H260.099C260.736 255.73 261.248 256.228 261.248 256.848V265.365ZM261.248 249.624C261.248 250.242 260.736 250.742 260.099 250.742H246.087C245.451 250.742 244.939 250.242 244.939 249.624V241.103C244.939 240.487 245.451 239.986 246.087 239.986H260.099C260.736 239.986 261.248 240.487 261.248 241.103V249.624Z" fill="white"/>
<path d="M156.447 124.491H110.54C109.925 124.491 109.416 124.991 109.416 125.618V282.506C109.416 283.122 109.925 283.626 110.54 283.626H156.447C157.062 283.626 157.577 283.122 157.577 282.506V125.618C157.577 124.991 157.062 124.491 156.447 124.491ZM129.138 265.754C129.138 266.084 128.866 266.356 128.535 266.356H118.024C117.692 266.356 117.42 266.085 117.42 265.754V254.04C117.42 253.708 117.691 253.442 118.024 253.442H128.535C128.865 253.442 129.138 253.708 129.138 254.04V265.754ZM129.138 238.851C129.138 239.19 128.866 239.453 128.535 239.453H118.024C117.692 239.453 117.42 239.19 117.42 238.851V227.141C117.42 226.801 117.691 226.536 118.024 226.536H128.535C128.865 226.536 129.138 226.801 129.138 227.141V238.851ZM129.138 211.954C129.138 212.286 128.866 212.559 128.535 212.559H118.024C117.692 212.559 117.42 212.287 117.42 211.954V200.237C117.42 199.905 117.691 199.636 118.024 199.636H128.535C128.865 199.636 129.138 199.905 129.138 200.237V211.954ZM129.138 185.053C129.138 185.385 128.866 185.654 128.535 185.654H118.024C117.692 185.654 117.42 185.385 117.42 185.053V173.336C117.42 173.004 117.691 172.74 118.024 172.74H128.535C128.865 172.74 129.138 173.004 129.138 173.336V185.053ZM129.138 158.155C129.138 158.483 128.866 158.756 128.535 158.756H118.024C117.692 158.756 117.42 158.483 117.42 158.155V146.44C117.42 146.102 117.691 145.835 118.024 145.835H128.535C128.865 145.835 129.138 146.102 129.138 146.44V158.155ZM149.753 265.754C149.753 266.084 149.482 266.356 149.146 266.356H138.639C138.303 266.356 138.036 266.085 138.036 265.754V254.04C138.036 253.708 138.304 253.442 138.639 253.442H149.146C149.482 253.442 149.753 253.708 149.753 254.04V265.754ZM149.753 238.851C149.753 239.19 149.482 239.453 149.146 239.453H138.639C138.303 239.453 138.036 239.19 138.036 238.851V227.141C138.036 226.801 138.304 226.536 138.639 226.536H149.146C149.482 226.536 149.753 226.801 149.753 227.141V238.851ZM149.753 211.954C149.753 212.286 149.482 212.559 149.146 212.559H138.639C138.303 212.559 138.036 212.287 138.036 211.954V200.237C138.036 199.905 138.304 199.636 138.639 199.636H149.146C149.482 199.636 149.753 199.905 149.753 200.237V211.954ZM149.753 185.053C149.753 185.385 149.482 185.654 149.146 185.654H138.639C138.303 185.654 138.036 185.385 138.036 185.053V173.336C138.036 173.004 138.304 172.74 138.639 172.74H149.146C149.482 172.74 149.753 173.004 149.753 173.336V185.053ZM149.753 158.155C149.753 158.483 149.482 158.756 149.146 158.756H138.639C138.303 158.756 138.036 158.483 138.036 158.155V146.44C138.036 146.102 138.304 145.835 138.639 145.835H149.146C149.482 145.835 149.753 146.102 149.753 146.44V158.155Z" fill="white"/>
<path d="M266.591 229.674C266.591 230.203 266.171 230.621 265.649 230.621H218.434C217.912 230.621 217.489 230.203 217.489 229.674V220.232C217.489 219.713 217.912 219.292 218.434 219.292H265.649C266.172 219.292 266.591 219.713 266.591 220.232V229.674Z" fill="white"/>
<path d="M211.899 154.119C211.746 153.615 211.299 153.241 210.746 153.241C210.498 153.241 210.282 153.331 210.089 153.459C210.063 153.478 210.033 153.492 210.004 153.515L209.616 154.003L164.496 211.237L164.288 211.517C164.055 211.746 163.907 212.057 163.897 212.41V212.486V282.741C163.897 283.359 164.4 283.859 165.023 283.859H210.885C211.507 283.859 212.007 283.359 212.007 282.741V154.588C212.007 154.418 211.963 154.258 211.899 154.119ZM192.903 185.199L193.225 184.797C196.313 180.835 201.515 174.429 204.052 171.318L204.384 170.921C204.625 170.633 204.987 170.444 205.394 170.444C206.022 170.444 206.523 170.9 206.645 171.493V172.001V172.413V185.973C206.645 186.674 206.09 187.233 205.399 187.266C205.378 187.266 205.36 187.277 205.341 187.277C205.323 187.277 205.305 187.266 205.284 187.266H194.568H194.009C193.989 187.266 193.971 187.277 193.953 187.277C193.931 187.277 193.915 187.266 193.895 187.266C193.202 187.233 192.649 186.674 192.649 185.973C192.649 185.684 192.743 185.417 192.903 185.199ZM185.763 265.356C185.763 265.98 185.263 266.48 184.641 266.48H170.958C170.336 266.48 169.835 265.979 169.835 265.356V256.793C169.835 256.173 170.336 255.673 170.958 255.673H184.641C185.264 255.673 185.763 256.174 185.763 256.793V265.356ZM185.763 249.534C185.763 250.155 185.263 250.654 184.641 250.654H170.958C170.336 250.654 169.835 250.154 169.835 249.534V240.968C169.835 240.344 170.336 239.848 170.958 239.848H184.641C185.264 239.848 185.763 240.344 185.763 240.968V249.534ZM185.763 233.709C185.763 234.325 185.263 234.827 184.641 234.827H170.958C170.336 234.827 169.835 234.326 169.835 233.709V225.14C169.835 224.518 170.336 224.018 170.958 224.018H184.641C185.264 224.018 185.763 224.518 185.763 225.14V233.709ZM185.801 199.031V199.443V217.896C185.801 218.521 185.294 219.02 184.679 219.02H171C170.373 219.02 169.87 218.52 169.87 217.896V215.617V215.525C169.876 215.374 169.905 215.232 169.956 215.104C169.979 215.057 169.983 215.04 170.025 214.972C170.051 214.921 170.089 214.872 170.124 214.824C170.158 214.772 170.21 214.704 170.252 214.64C171.999 212.137 179.893 202.416 183.208 198.351L183.54 197.951C183.78 197.663 184.143 197.474 184.549 197.474C185.177 197.474 185.679 197.933 185.801 198.523V199.031H185.801ZM206.679 265.356C206.679 265.98 206.171 266.48 205.558 266.48H191.878C191.254 266.48 190.749 265.979 190.749 265.356V256.793C190.749 256.173 191.254 255.673 191.878 255.673H205.558C206.171 255.673 206.679 256.174 206.679 256.793V265.356ZM206.679 249.534C206.679 250.155 206.171 250.654 205.558 250.654H191.878C191.254 250.654 190.749 250.154 190.749 249.534V240.968C190.749 240.344 191.254 239.848 191.878 239.848H205.558C206.171 239.848 206.679 240.344 206.679 240.968V249.534ZM206.679 233.709C206.679 234.325 206.171 234.827 205.558 234.827H191.878C191.254 234.827 190.749 234.326 190.749 233.709V225.14C190.749 224.518 191.254 224.018 191.878 224.018H205.558C206.171 224.018 206.679 224.518 206.679 225.14V233.709ZM206.679 217.883C206.679 218.499 206.171 219.001 205.558 219.001H191.878C191.254 219.001 190.749 218.5 190.749 217.883V209.318C190.749 208.694 191.254 208.196 191.878 208.196H205.558C206.171 208.196 206.679 208.694 206.679 209.318V217.883ZM206.679 202.053C206.679 202.676 206.171 203.176 205.558 203.176H191.878C191.254 203.176 190.749 202.675 190.749 202.053V193.489C190.749 192.865 191.254 192.363 191.878 192.363H205.558C206.171 192.363 206.679 192.865 206.679 193.489V202.053Z" fill="white"/>
<path d="M86.4956 41.8671V29.4347C86.4956 25.4166 88.3906 22.4979 92.9393 22.4979C97.716 22.4979 99.0422 25.1514 99.0422 28.9419V31.9744H95.1001V28.6013C95.1001 27.0093 94.5696 26.0998 93.0153 26.0998C91.461 26.0998 90.8167 27.1991 90.8167 28.7533V42.5502C90.8167 44.1045 91.461 45.2038 93.0153 45.2038C94.5696 45.2038 95.1001 44.2183 95.1001 42.7023V37.9647H99.0422V42.3988C99.0422 46.0755 97.5262 48.8045 92.9393 48.8045C88.3906 48.8039 86.4956 45.8474 86.4956 41.8671Z" fill="white"/>
<path d="M100.978 22.8013H105.299V48.5002H100.978V22.8013Z" fill="white"/>
<path d="M120.309 29.6998V41.6017C120.309 45.5437 118.679 48.5002 114.055 48.5002H107.384V22.8013H114.055C118.679 22.8013 120.309 25.7201 120.309 29.6998ZM113.524 44.9755C115.306 44.9755 115.988 43.914 115.988 42.3603V28.9041C115.988 27.3881 115.306 26.3266 113.524 26.3266H111.706V44.9755H113.524Z" fill="white"/>
<path d="M121.675 48.5002L126.527 22.8013H131.455L136.345 48.5002H131.91L131.114 43.7996H126.527L125.77 48.5002H121.675ZM127.096 40.351H130.545L128.839 30.0411H128.802L127.096 40.351Z" fill="white"/>
<path d="M150.638 29.6998V41.6017C150.638 45.5437 149.008 48.5002 144.383 48.5002H137.713V22.8013H144.383C149.008 22.8013 150.638 25.7201 150.638 29.6998ZM143.852 44.9755C145.634 44.9755 146.316 43.914 146.316 42.3603V28.9041C146.316 27.3881 145.634 26.3266 143.852 26.3266H142.033V44.9755H143.852Z" fill="white"/>
<path d="M152.687 22.8013H162.996V26.3266H157.008V33.6801H161.291V37.1676H157.008V44.9755H162.996V48.5008H152.687V22.8013Z" fill="white"/>
<path d="M164.666 42.9662V39.517H168.685V43.0416C168.685 44.4815 169.328 45.3162 170.807 45.3162C172.172 45.3162 172.778 44.4061 172.778 43.0416V42.0561C172.778 40.5779 172.172 39.6684 170.845 38.4177L168.305 35.8786C165.841 33.4526 164.704 31.9743 164.704 29.0178V28.1461C164.704 24.9621 166.562 22.4984 170.769 22.4984C175.091 22.4984 176.796 24.6215 176.796 28.3359V30.4207H172.854V28.1838C172.854 26.7056 172.172 25.9853 170.807 25.9853C169.594 25.9853 168.76 26.6679 168.76 28.1078V28.6382C168.76 30.0788 169.557 30.9128 170.807 32.1258L173.575 34.8554C175.925 37.2431 177.062 38.6836 177.062 41.5263V42.777C177.062 46.3023 175.167 48.8037 170.77 48.8037C166.372 48.8037 164.666 46.34 164.666 42.9662Z" fill="white"/>
<path d="M182.483 22.8013H192.794V26.3266H186.804V33.6801H191.087V37.1676H186.804V44.9755H192.794V48.5008H182.483V22.8013Z" fill="white"/>
<path d="M87.0273 73.7637V61.3313C87.0273 57.3133 88.9224 54.3946 93.471 54.3946C98.2478 54.3946 99.574 57.0481 99.574 60.8386V63.8705H95.6319V60.4973C95.6319 58.9053 95.1014 57.9952 93.547 57.9952C91.9927 57.9952 91.3485 59.0945 91.3485 60.6488V74.4457C91.3485 76 91.9927 77.0992 93.547 77.0992C95.1014 77.0992 95.6319 76.1137 95.6319 74.5971V69.8595H99.574V74.2942C99.574 77.9709 98.058 80.6999 93.471 80.6999C88.923 80.6999 87.0273 77.7434 87.0273 73.7637Z" fill="white"/>
<path d="M102.306 73.7637V61.3313C102.306 57.3133 104.277 54.3946 108.825 54.3946C113.412 54.3946 115.383 57.3133 115.383 61.3313V73.7637C115.383 77.744 113.412 80.7005 108.825 80.7005C104.277 80.6999 102.306 77.7434 102.306 73.7637ZM111.062 74.4457V60.6488C111.062 59.0945 110.379 57.9952 108.825 57.9952C107.309 57.9952 106.627 59.0945 106.627 60.6488V74.4457C106.627 76 107.309 77.0992 108.825 77.0992C110.38 77.0992 111.062 76 111.062 74.4457Z" fill="white"/>
<path d="M130.13 63.719H130.016L127.097 80.3976H125.088L121.866 63.719H121.79V80.3976H118.227V54.6975H123.268L126.073 69.1769H126.111L128.613 54.6975H134.072V80.397H130.129V63.719H130.13Z" fill="white"/>
<path d="M149.463 54.6975V74.1427C149.463 78.123 147.757 80.6999 143.36 80.6999C138.812 80.6999 136.917 78.1224 136.917 74.1427V54.6975H141.238V74.5594C141.238 76.0754 141.843 77.0986 143.36 77.0986C144.876 77.0986 145.483 76.0754 145.483 74.5594V54.6975H149.463Z" fill="white"/>
<path d="M155.946 64.2495V80.397H152.307V54.6975H156.552L161.215 69.4422V54.6975H164.816V80.397H161.025L155.946 64.2495Z" fill="white"/>
<path d="M167.662 54.6975H171.982V80.397H167.662V54.6975Z" fill="white"/>
<path d="M187.789 61.5959V73.4985C187.789 77.4405 186.159 80.397 181.536 80.397H174.864V54.6975H181.536C186.16 54.6975 187.789 57.6156 187.789 61.5959ZM181.004 76.8717C182.787 76.8717 183.469 75.8101 183.469 74.2565V60.8003C183.469 59.2843 182.786 58.2228 181.004 58.2228H179.186V76.8717H181.004Z" fill="white"/>
<path d="M189.952 80.397L194.804 54.6975H199.733L204.622 80.397H200.186L199.391 75.6964H194.804L194.046 80.397H189.952ZM195.373 72.2472H198.822L197.117 61.9372H197.078L195.373 72.2472Z" fill="white"/>
<path d="M219.71 61.5959V73.4985C219.71 77.4405 218.08 80.397 213.455 80.397H206.785V54.6975H213.455C218.081 54.6975 219.71 57.6156 219.71 61.5959ZM212.925 76.8717C214.707 76.8717 215.389 75.8101 215.389 74.2565V60.8003C215.389 59.2843 214.706 58.2228 212.925 58.2228H211.106V76.8717H212.925Z" fill="white"/>
<path d="M222.555 54.6975H232.865V58.2228H226.875V65.5769H231.159V69.0638H226.875V76.8723H232.865V80.3976H222.555V54.6975Z" fill="white"/>
<path d="M235.33 74.8631V71.4138H239.347V74.9391C239.347 76.379 239.992 77.213 241.47 77.213C242.835 77.213 243.441 76.3036 243.441 74.9391V73.953C243.441 72.4748 242.835 71.5653 241.508 70.314L238.969 67.7748C236.506 65.3488 235.368 63.8699 235.368 60.9135V60.0417C235.368 56.8583 237.225 54.394 241.434 54.394C245.754 54.394 247.461 56.5171 247.461 60.2309V62.3157H243.518V60.0794C243.518 58.6012 242.836 57.8809 241.471 57.8809C240.257 57.8809 239.424 58.5635 239.424 60.004V60.5345C239.424 61.9744 240.22 62.809 241.471 64.0214L244.238 66.751C246.589 69.1387 247.725 70.5792 247.725 73.4219V74.6733C247.725 78.1985 245.83 80.7 241.434 80.7C237.035 80.7 235.33 78.2362 235.33 74.8631Z" fill="white"/>
<path d="M86.7998 110.036V106.587H90.818V110.112C90.818 111.552 91.4622 112.386 92.9405 112.386C94.3056 112.386 94.9116 111.477 94.9116 110.112V109.126C94.9116 107.648 94.3057 106.738 92.9782 105.487L90.439 102.948C87.9751 100.522 86.8381 99.0429 86.8381 96.0864V95.2147C86.8381 92.0313 88.6954 89.567 92.9034 89.567C97.2245 89.567 98.9303 91.69 98.9303 95.4039V97.4886H94.9882V95.2524C94.9882 93.7741 94.3056 93.0539 92.9405 93.0539C91.7274 93.0539 90.8934 93.7364 90.8934 95.177V95.7074C90.8934 97.1473 91.6897 97.982 92.9405 99.1944L95.7079 101.924C98.0586 104.312 99.1956 105.752 99.1956 108.595V109.846C99.1956 113.371 97.3 115.872 92.9034 115.872C88.5056 115.874 86.7998 113.41 86.7998 110.036Z" fill="white"/>
<path d="M114.398 89.8705V109.316C114.398 113.296 112.692 115.873 108.295 115.873C103.747 115.873 101.852 113.295 101.852 109.316V89.8705H106.173V109.733C106.173 111.249 106.779 112.272 108.295 112.272C109.812 112.272 110.418 111.249 110.418 109.733V89.8705H114.398Z" fill="white"/>
<path d="M117.015 110.036V106.587H121.033V110.112C121.033 111.552 121.677 112.386 123.155 112.386C124.52 112.386 125.126 111.477 125.126 110.112V109.126C125.126 107.648 124.52 106.738 123.193 105.487L120.654 102.948C118.19 100.522 117.053 99.0429 117.053 96.0864V95.2147C117.053 92.0313 118.91 89.567 123.118 89.567C127.439 89.567 129.145 91.69 129.145 95.4039V97.4886H125.202V95.2524C125.202 93.7741 124.52 93.0539 123.155 93.0539C121.942 93.0539 121.108 93.7364 121.108 95.177V95.7074C121.108 97.1473 121.905 97.982 123.155 99.1944L125.923 101.924C128.273 104.312 129.41 105.752 129.41 108.595V109.846C129.41 113.371 127.515 115.872 123.118 115.872C118.72 115.874 117.015 113.41 117.015 110.036Z" fill="white"/>
<path d="M131.571 89.8705H143.056V93.3957H139.494V115.57H135.135V93.3957H131.571V89.8705H131.571Z" fill="white"/>
<path d="M145.447 89.8705H155.757V93.3957H149.769V100.75H154.052V104.237H149.769V112.045H155.757V115.571H145.447V89.8705Z" fill="white"/>
<path d="M162.089 99.4231V115.571H158.45V89.8711H162.695L167.357 104.616V89.8711H170.958V115.571H167.167L162.089 99.4231Z" fill="white"/>
<path d="M173.309 89.8705H184.796V93.3957H181.232V115.57H176.872V93.3957H173.309V89.8705H173.309Z" fill="white"/>
<path d="M186.501 115.57L191.354 89.871H196.282L201.172 115.57H196.737L195.941 110.87H191.354L190.596 115.57H186.501ZM197.343 88.0515L190.557 88.9232V86.4972L197.343 85.0573V88.0515ZM191.922 107.421H195.372L193.666 97.1107H193.628L191.922 107.421Z" fill="white"/>
<path d="M217.17 89.8705L212.28 115.57H207.58L202.69 89.8705H207.087L210.044 107.8H210.082L213.114 89.8705H217.17Z" fill="white"/>
<path d="M219.333 89.8705H229.643V93.3957H223.653V100.75H227.936V104.237H223.653V112.045H229.643V115.571H219.333V89.8705Z" fill="white"/>
<path d="M232.333 89.8705H236.655V115.57H232.333V89.8705Z" fill="white"/>
<path d="M239.31 110.036V106.587H243.327V110.112C243.327 111.552 243.972 112.386 245.45 112.386C246.815 112.386 247.421 111.477 247.421 110.112V109.126C247.421 107.648 246.815 106.738 245.488 105.487L242.949 102.948C240.486 100.522 239.348 99.0429 239.348 96.0864V95.2147C239.348 92.0313 241.205 89.567 245.414 89.567C249.734 89.567 251.441 91.69 251.441 95.4039V97.4886H247.498V95.2524C247.498 93.7741 246.816 93.0539 245.451 93.0539C244.237 93.0539 243.404 93.7364 243.404 95.177V95.7074C243.404 97.1473 244.2 97.982 245.451 99.1944L248.218 101.924C250.569 104.312 251.705 105.752 251.705 108.595V109.846C251.705 113.371 249.81 115.872 245.414 115.872C241.015 115.874 239.31 113.41 239.31 110.036Z" fill="white"/>
</svg>
