<svg width="315" height="315" viewBox="0 0 315 315" fill="none" xmlns="http://www.w3.org/2000/svg">
<path d="M314.572 0.389954H0.106934V314.855H314.572V0.389954Z" fill="#1C97D4"/>
<path d="M41.0771 26.8495V90.2245H30.4194V41.7113H30.3253L22.8507 49.4679H22.7534V38.3469L32.5689 26.8495H41.0771Z" fill="white"/>
<path d="M73.5303 90.2383V79.9526H77.8311V71.6288H73.5303V26.8345H63.0559L44.6318 73.4054V79.9526H63.4287V90.2383H73.5303ZM53.9829 71.6288L63.5228 45.5376H63.6157V71.6288H53.9829Z" fill="white"/>
<path d="M241.55 229.831C237.594 224.484 212.03 191.893 176.187 191.893C145.065 191.893 111.769 220.12 111.769 220.12C111.769 220.12 99.2613 194.523 73.6781 192.062C73.5285 192.062 73.3683 192.028 73.1981 192.028H73.0398C72.5049 192.059 72.0037 192.578 72.0629 193.042C72.1352 193.49 72.4637 193.977 72.4637 193.977C75.7603 199.451 84.1762 215.028 84.1762 230.588C84.1762 246.198 75.711 261.815 72.4438 267.263L72.2231 267.61C72.1271 267.774 72.0629 267.938 72.0629 268.15C72.0629 268.69 72.4806 269.11 73.0067 269.158L73.2841 269.135C73.3683 269.135 73.4593 269.135 73.5516 269.11C99.2158 266.719 111.769 241.044 111.769 241.044C111.769 241.044 145.065 269.274 176.187 269.274C212.03 269.274 237.594 236.681 241.55 231.345C241.659 231.201 241.747 231.074 241.827 230.979C241.87 230.853 241.911 230.737 241.911 230.588C241.911 230.446 241.87 230.305 241.827 230.196C241.747 230.089 241.659 229.963 241.55 229.831ZM196.116 234.705C190.337 234.705 185.657 230.016 185.657 224.242C185.657 218.466 190.338 213.789 196.116 213.789C201.908 213.789 206.588 218.466 206.588 224.242C206.588 230.016 201.908 234.705 196.116 234.705Z" fill="white"/>
<path d="M72.8723 130.633C72.7944 130.615 72.742 130.587 72.6753 130.587C72.1086 130.587 71.6479 131.05 71.6479 131.627V138.762C71.6479 139.059 71.762 139.323 71.9472 139.5C89.2491 154.532 105.631 140.446 109.422 136.726C109.5 136.611 109.581 136.503 109.694 136.434C109.864 136.327 110.047 136.249 110.26 136.249C110.526 136.249 110.778 136.352 110.955 136.523C110.97 136.544 110.991 136.56 111.007 136.569C130.551 155.219 151.041 140.11 155.305 136.569L155.723 136.183C155.844 136.128 155.973 136.107 156.115 136.107C156.258 136.107 156.403 136.128 156.52 136.183L156.942 136.569C161.203 140.11 181.697 155.219 201.238 136.569C201.238 136.559 201.265 136.544 201.275 136.523C201.458 136.352 201.699 136.249 201.971 136.249C202.182 136.249 202.375 136.327 202.536 136.434C202.655 136.502 202.736 136.611 202.824 136.726C206.612 140.447 222.978 154.532 240.293 139.5C240.474 139.323 240.591 139.059 240.591 138.762V131.627C240.591 131.05 240.142 130.587 239.577 130.587C239.501 130.587 239.432 130.615 239.353 130.633C239.192 130.724 239.028 130.81 238.837 130.902C233.514 133.568 217.011 139.907 202.033 125.734C201.888 125.603 201.743 125.471 201.596 125.318C201.458 125.261 201.326 125.225 201.159 125.225C201.056 125.225 200.941 125.254 200.85 125.272C200.627 125.363 200.449 125.504 200.331 125.677C195.865 129.079 175.372 142.952 157.121 125.929L156.854 125.669C156.664 125.499 156.404 125.362 156.116 125.362C155.845 125.362 155.578 125.499 155.4 125.669L155.117 125.929C136.878 142.952 116.362 129.079 111.905 125.677C111.788 125.504 111.616 125.362 111.397 125.272C111.292 125.254 111.186 125.225 111.071 125.225C110.927 125.225 110.78 125.262 110.642 125.318C110.508 125.471 110.35 125.603 110.204 125.734C95.2238 139.907 78.7267 133.568 73.4034 130.902C73.2121 130.81 73.035 130.724 72.8723 130.633Z" fill="white"/>
<path d="M109.42 162.68C109.502 162.562 109.579 162.476 109.694 162.395C109.862 162.291 110.046 162.202 110.258 162.202C110.524 162.202 110.778 162.311 110.958 162.489C110.968 162.506 110.988 162.521 111.005 162.533C130.542 181.155 151.038 166.061 155.302 162.533L155.721 162.134C155.842 162.086 155.971 162.069 156.11 162.069C156.257 162.069 156.399 162.086 156.522 162.134L156.938 162.533C161.2 166.061 181.69 181.155 201.236 162.533C201.24 162.521 201.257 162.506 201.273 162.489C201.458 162.311 201.694 162.202 201.965 162.202C202.181 162.202 202.373 162.291 202.529 162.395C202.653 162.476 202.734 162.562 202.822 162.68C206.606 166.405 222.972 180.493 240.293 165.448C240.472 165.263 240.594 165.02 240.594 164.725V157.573C240.594 157.005 240.136 156.548 239.574 156.548C239.498 156.548 239.43 156.579 239.352 156.591C239.191 156.67 239.022 156.76 238.835 156.851C233.516 159.519 217.007 165.843 202.03 151.69C201.889 151.556 201.742 151.422 201.595 151.277C201.458 151.201 201.324 151.176 201.156 151.176C201.053 151.176 200.94 151.201 200.847 151.253C200.622 151.31 200.446 151.453 200.328 151.638C195.863 155.037 175.369 168.912 157.118 151.888L156.851 151.62C156.661 151.437 156.399 151.334 156.111 151.334C155.843 151.334 155.576 151.437 155.396 151.62L155.115 151.888C136.875 168.912 116.36 155.037 111.903 151.638C111.785 151.453 111.612 151.31 111.397 151.253C111.291 151.201 111.18 151.176 111.069 151.176C110.923 151.176 110.78 151.201 110.643 151.277C110.502 151.422 110.351 151.556 110.197 151.69C95.2188 165.843 78.7236 159.519 73.3985 156.851C73.2133 156.76 73.0369 156.67 72.8748 156.591C72.7944 156.578 72.742 156.548 72.6772 156.548C72.1086 156.548 71.6479 157.004 71.6479 157.573V164.725C71.6479 165.021 71.762 165.263 71.9447 165.448C89.2472 180.493 105.631 166.404 109.42 162.68Z" fill="white"/>
<path d="M114.281 26.7187L109.39 52.4184H104.69L99.7998 26.7187H104.197L107.154 44.6475H107.192L110.224 26.7187H114.281Z" fill="white"/>
<path d="M116.101 26.7187H120.422V52.4184H116.101V26.7187Z" fill="white"/>
<path d="M135.889 33.6175V45.5196C135.889 49.4618 134.259 52.4184 129.634 52.4184H122.962V26.7187H129.633C134.258 26.7187 135.889 29.6373 135.889 33.6175ZM129.104 48.8933C130.885 48.8933 131.567 47.8317 131.567 46.2776V32.8209C131.567 31.3048 130.885 30.2432 129.104 30.2432H127.284V48.8926H129.104V48.8933Z" fill="white"/>
<path d="M137.71 52.4184L142.561 26.7187H147.489L152.379 52.4184H147.944L147.148 47.7182H142.562L141.804 52.4184H137.71ZM143.13 44.2691H146.579L144.873 33.9585H144.835L143.13 44.2691Z" fill="white"/>
<path d="M161.857 36.2705V52.4177H158.218V26.718H162.463L167.126 41.4626V26.718H170.726V52.4177H166.936L161.857 36.2705Z" fill="white"/>
<path d="M172.547 52.4184L177.399 26.7187H182.326L187.217 52.4184H182.782L181.986 47.7182H177.399L176.641 52.4184H172.547ZM177.968 44.2691H181.417L179.712 33.9585H179.674L177.968 44.2691Z" fill="white"/>
<path d="M99.7251 90.136L104.577 64.4363H109.504L114.395 90.136H109.96L109.164 85.4358H104.577L103.819 90.136H99.7251ZM110.567 62.6166L103.781 63.4881V61.062L110.567 59.6213V62.6166ZM105.146 81.986H108.595L106.889 71.6761H106.852L105.146 81.986Z" fill="white"/>
<path d="M120.953 76.4145H127.095V90.1362H123.987V87.331C123.418 89.2647 122.205 90.4391 119.855 90.4391C116.14 90.4391 114.435 87.4825 114.435 83.5029V71.0697C114.435 67.0521 116.368 64.1335 120.916 64.1335C125.693 64.1335 127.095 66.7866 127.095 70.5773V72.8513H123.153V70.2363C123.153 68.6436 122.546 67.7341 120.992 67.7341C119.438 67.7341 118.755 68.8337 118.755 70.3878V84.1848C118.755 85.7389 119.399 86.8386 120.878 86.8386C122.281 86.8386 123.001 86.0425 123.001 84.375V79.8262H120.953V76.4145Z" fill="white"/>
<path d="M140.363 64.4365V83.8813C140.363 87.8615 138.657 90.4392 134.26 90.4392C129.711 90.4392 127.815 87.8615 127.815 83.8813V64.4365H132.137V84.2983C132.137 85.815 132.743 86.8379 134.26 86.8379C135.776 86.8379 136.382 85.8144 136.382 84.2983V64.4365H140.363Z" fill="white"/>
<path d="M140.401 90.1362L145.253 64.4365H150.18L155.071 90.1362H150.636L149.84 85.436H145.253L144.495 90.1362H140.401ZM145.821 81.9863H149.271L147.565 71.6763H147.527L145.821 81.9863Z" fill="white"/>
</svg>
