<svg width="315" height="315" viewBox="0 0 315 315" fill="none" xmlns="http://www.w3.org/2000/svg">
<path d="M314.786 0.45282H0.320801V314.918H314.786V0.45282Z" fill="#DD1768"/>
<path d="M30.6599 41.6571V90.2392H41.3312V26.7723H32.8102L22.9844 38.2855V49.4298H23.0743L30.5624 41.6571H30.6599Z" fill="white"/>
<path d="M80.2732 73.861V43.153C80.2732 33.23 75.3132 26.023 64.4533 26.023C53.6903 26.023 48.7227 33.23 48.7227 43.153V73.861C48.7227 83.6872 53.6903 90.9891 64.4533 90.9891C75.3132 90.9891 80.2732 83.6872 80.2732 73.861ZM59.3977 75.5461V41.4685C59.3977 37.6312 60.8007 34.9145 64.4533 34.9145C68.1971 34.9145 69.6001 37.6312 69.6001 41.4685V75.5455C69.6001 79.3847 68.1977 82.0938 64.4533 82.0938C60.8 82.0944 59.3977 79.3853 59.3977 75.5461Z" fill="white"/>
<path d="M105.091 40.8631V52.8358H100.703V26.7339H107.093C111.521 26.7339 113.138 28.9282 113.138 32.5857V35.9353C113.138 38.7455 112.136 40.4012 109.635 40.9782L113.831 52.8358H109.211L105.091 40.8631ZM105.091 30.3147V38.4375H106.554C108.056 38.4375 108.71 37.6676 108.71 36.2816V32.4317C108.71 31.0074 108.056 30.3141 106.554 30.3141L105.091 30.3147Z" fill="white"/>
<path d="M115.909 26.7345H126.38V30.3147H120.297V37.7832H124.648V41.3251H120.297V49.2556H126.38V52.8358H115.909V26.7345Z" fill="white"/>
<path d="M142.241 33.741V45.8293C142.241 49.8332 140.586 52.8358 135.888 52.8358H129.113V26.7339H135.888C140.586 26.7345 142.241 29.6988 142.241 33.741ZM135.35 49.2556C137.159 49.2556 137.852 48.1776 137.852 46.5993V32.9327C137.852 31.3927 137.159 30.3147 135.35 30.3147H133.502V49.2556H135.35Z" fill="white"/>
<path d="M157.871 26.7345V46.4843C157.871 50.5265 156.139 53.1444 151.673 53.1444C147.053 53.1444 145.128 50.5265 145.128 46.4843V26.7345H149.517V46.9079C149.517 48.4479 150.132 49.4875 151.673 49.4875C153.214 49.4875 153.829 48.4479 153.829 46.9079V26.7345H157.871Z" fill="white"/>
<path d="M165.415 55.4927C166.647 55.4544 166.84 55.1847 166.84 54.8767C166.84 54.6071 166.609 54.4531 166.224 54.4531H166.031V53.0288C162.297 52.5668 160.757 49.7565 160.757 46.099V33.472C160.757 29.3914 162.682 26.4265 167.302 26.4265C172.153 26.4265 173.5 29.1211 173.5 32.971V36.0509H169.496V32.6247C169.496 31.008 168.957 30.0841 167.379 30.0841C165.8 30.0841 165.146 31.2004 165.146 32.7793V46.7923C165.146 48.3706 165.8 49.4875 167.379 49.4875C168.957 49.4875 169.496 48.4869 169.496 46.9469V42.1347H173.5V46.6395C173.5 50.2965 172.037 52.9917 167.686 53.1457V53.492C168.726 53.646 169.304 54.0313 169.304 54.878C169.304 56.0716 168.187 56.7259 165.415 56.7259V55.4927H165.415Z" fill="white"/>
<path d="M175.579 52.8365L180.507 26.7346H185.511L190.478 52.8365H185.973L185.165 48.0627H180.507L179.737 52.8365H175.579ZM179.005 25.6956C179.082 23.886 179.775 22.4227 181.7 22.4227C182.816 22.4227 183.74 23.0776 184.318 23.0776C184.626 23.0776 184.856 22.8853 184.856 22.5H187.013C186.936 24.3096 186.242 25.7723 184.318 25.7723C183.201 25.7723 182.277 25.1179 181.7 25.1179C181.392 25.1179 181.161 25.3103 181.161 25.6956H179.005ZM181.084 44.5591H184.587L182.855 34.0874H182.817L181.084 44.5591Z" fill="white"/>
<path d="M192.67 46.099V33.472C192.67 29.3914 194.672 26.4265 199.292 26.4265C203.951 26.4265 205.953 29.3908 205.953 33.472V46.099C205.953 50.1412 203.951 53.1445 199.292 53.1445C194.672 53.1445 192.67 50.1412 192.67 46.099ZM201.564 46.7923V32.7793C201.564 31.201 200.871 30.0841 199.293 30.0841C197.753 30.0841 197.06 31.2004 197.06 32.7793V46.7923C197.06 48.3706 197.753 49.4875 199.293 49.4875C200.871 49.4869 201.564 48.3706 201.564 46.7923Z" fill="white"/>
<path d="M226.395 33.741V45.8293C226.395 49.8332 224.739 52.8358 220.042 52.8358H213.267V26.7339H220.042C224.739 26.7345 226.395 29.6988 226.395 33.741ZM219.503 49.2556C221.313 49.2556 222.006 48.1776 222.006 46.5993V32.9327C222.006 31.3927 221.313 30.3147 219.503 30.3147H217.655V49.2556H219.503Z" fill="white"/>
<path d="M228.588 52.8364L233.516 26.7345H238.521L243.487 52.8364H238.983L238.175 48.0626H233.516L232.746 52.8364H228.588ZM234.094 44.559H237.597L235.865 34.0873H235.826L234.094 44.559Z" fill="white"/>
<path d="M245.449 47.2153V43.7118H249.53V47.292C249.53 48.7553 250.184 49.6019 251.686 49.6019C253.072 49.6019 253.688 48.678 253.688 47.292V46.2913C253.688 44.7897 253.073 43.8658 251.725 42.5954L249.146 40.0159C246.644 37.5519 245.488 36.0503 245.488 33.0477V32.1621C245.488 28.9282 247.375 26.4259 251.648 26.4259C256.037 26.4259 257.77 28.5818 257.77 32.3544V34.472H253.766V32.2011C253.766 30.6994 253.073 29.9678 251.687 29.9678C250.455 29.9678 249.607 30.6605 249.607 32.1237V32.6624C249.607 34.1251 250.416 34.9723 251.687 36.2043L254.498 38.9762C256.884 41.4018 258.04 42.8651 258.04 45.752V47.0224C258.04 50.6026 256.115 53.1438 251.648 53.1438C247.182 53.1445 245.449 50.6422 245.449 47.2153Z" fill="white"/>
<path d="M113.832 71.1214V83.2091C113.832 87.2129 112.176 90.2155 107.479 90.2155H100.704V64.1142H107.479C112.176 64.1142 113.832 67.0785 113.832 71.1214ZM106.94 86.6353C108.75 86.6353 109.443 85.5573 109.443 83.979V70.3118C109.443 68.7724 108.75 67.6945 106.94 67.6945H105.093V86.6353H106.94Z" fill="white"/>
<path d="M116.64 64.1142H127.111V67.6945H121.028V75.1629H125.379V78.7048H121.028V86.6353H127.111V90.2155H116.64V64.1142Z" fill="white"/>
<path d="M129.538 84.5949V81.0919H133.618V84.6716C133.618 86.1348 134.273 86.9821 135.774 86.9821C137.16 86.9821 137.776 86.0575 137.776 84.6716V83.6709C137.776 82.1693 137.161 81.2459 135.813 79.975L133.234 77.3961C130.732 74.9321 129.577 73.4305 129.577 70.4279V69.5423C129.577 66.3084 131.464 63.8061 135.737 63.8061C140.125 63.8061 141.858 65.962 141.858 69.7352V71.8522H137.854V69.5812C137.854 68.0796 137.161 67.348 135.775 67.348C134.543 67.348 133.696 68.0413 133.696 69.5039V70.0426C133.696 71.5059 134.504 72.3525 135.775 73.5851L138.586 76.3564C140.973 78.782 142.128 80.2453 142.128 83.1322V84.4025C142.128 87.9828 140.203 90.524 135.737 90.524C131.27 90.524 129.538 88.0211 129.538 84.5949Z" fill="white"/>
<path d="M144.743 64.1142H149.131V90.2155H144.743V64.1142Z" fill="white"/>
<path d="M158.602 76.2797H164.838V90.216H161.681V87.3674C161.103 89.3304 159.871 90.524 157.485 90.524C153.711 90.524 151.979 87.5214 151.979 83.4786V70.8509C151.979 66.7703 153.943 63.8061 158.563 63.8061C163.413 63.8061 164.838 66.5007 164.838 70.3506V72.6605H160.834V70.0043C160.834 68.387 160.218 67.463 158.639 67.463C157.061 67.463 156.368 68.5793 156.368 70.1583V84.1712C156.368 85.7502 157.023 86.8658 158.524 86.8658C159.949 86.8658 160.68 86.0575 160.68 84.3642V79.7437H158.602V76.2797Z" fill="white"/>
<path d="M180.39 64.1142V83.8634C180.39 87.9062 178.658 90.5242 174.192 90.5242C169.572 90.5242 167.647 87.9062 167.647 83.8634V64.1142H172.036V84.287C172.036 85.827 172.651 86.866 174.192 86.866C175.732 86.866 176.348 85.827 176.348 84.287V64.1142H180.39Z" fill="white"/>
<path d="M182.507 90.2155L187.435 64.1142H192.44L197.406 90.2155H192.902L192.093 85.4417H187.435L186.665 90.2155H182.507ZM188.013 81.9381H191.516L189.783 71.467H189.745L188.013 81.9381Z" fill="white"/>
<path d="M199.522 64.1142H203.911V86.6353H209.147V90.2155H199.522V64.1142Z" fill="white"/>
<path d="M224.584 71.1214V83.2091C224.584 87.2129 222.929 90.2155 218.231 90.2155H211.456V64.1142H218.231C222.929 64.1142 224.584 67.0785 224.584 71.1214ZM217.693 86.6353C219.502 86.6353 220.196 85.5573 220.196 83.979V70.3118C220.196 68.7724 219.502 67.6945 217.693 67.6945H215.845V86.6353H217.693Z" fill="white"/>
<path d="M226.7 90.2155L231.628 64.1142H236.633L241.599 90.2155H237.095L236.287 85.4417H231.628L230.858 90.2155H226.7ZM232.206 81.9381H235.709L233.977 71.467H233.938L232.206 81.9381Z" fill="white"/>
<path d="M256.843 71.1214V83.2091C256.843 87.2129 255.187 90.2155 250.49 90.2155H243.714V64.1142H250.49C255.187 64.1142 256.843 67.0785 256.843 71.1214ZM249.951 86.6353C251.761 86.6353 252.453 85.5573 252.453 83.979V70.3118C252.453 68.7724 251.76 67.6945 249.951 67.6945H248.104V86.6353H249.951Z" fill="white"/>
<path d="M259.653 64.1142H270.124V67.6945H264.042V75.1629H268.392V78.7048H264.042V86.6353H270.124V90.2155H259.653V64.1142Z" fill="white"/>
<path d="M272.548 84.5949V81.0919H276.629V84.6716C276.629 86.1348 277.283 86.9821 278.785 86.9821C280.171 86.9821 280.787 86.0575 280.787 84.6716V83.6709C280.787 82.1693 280.172 81.2459 278.824 79.975L276.244 77.3961C273.741 74.9321 272.587 73.4305 272.587 70.4279V69.5423C272.587 66.3084 274.474 63.8061 278.747 63.8061C283.135 63.8061 284.868 65.962 284.868 69.7352V71.8522H280.864V69.5812C280.864 68.0796 280.171 67.348 278.785 67.348C277.553 67.348 276.706 68.0413 276.706 69.5039V70.0426C276.706 71.5059 277.514 72.3525 278.785 73.5851L281.596 76.3564C283.983 78.782 285.138 80.2453 285.138 83.1322V84.4025C285.138 87.9828 283.213 90.524 278.747 90.524C274.281 90.524 272.548 88.0211 272.548 84.5949Z" fill="white"/>
<path d="M207.192 170.134L236.038 198.975L207.192 227.82V170.134Z" fill="white"/>
<path d="M102.916 170.134L74.0703 198.975L102.916 227.82V170.134Z" fill="white"/>
<path d="M126.78 148.26L155.623 119.415L184.468 148.26H126.78Z" fill="white"/>
<path d="M129.258 251.443L158.103 280.287L186.946 251.443H129.258Z" fill="white"/>
<path d="M186.984 172.547H124.36V189.515H186.984V172.547Z" fill="white"/>
<path d="M186.984 209.521H124.36V226.489H186.984V209.521Z" fill="white"/>
</svg>
