<svg width="315" height="315" viewBox="0 0 315 315" fill="none" xmlns="http://www.w3.org/2000/svg">
<path d="M314.572 0H0.106934V314.465H314.572V0Z" fill="#DEA73A"/>
<path d="M58.9183 81.0595H41.43V78.0684C41.43 73.1145 43.2087 71.2424 45.9192 68.3422L52.7423 61.1447C58.2598 55.2528 59.4771 51.5124 59.4771 45.15V38.9788C59.4771 29.9098 55.08 25.6055 45.5414 25.6055C36.1932 25.6055 31.4233 30.562 31.4233 39.448V47.1117H41.148V39.1642C41.148 35.3343 43.0183 34.2065 45.2663 34.2065C47.3177 34.2065 49.0983 35.0511 49.0983 38.9781V44.2153C49.0983 49.4543 48.6265 51.5118 45.1698 55.1563L39.1806 61.5143C33.3888 67.6881 31.2354 71.805 31.2354 78.0678V89.7569H58.9176V81.0595H58.9183Z" fill="white"/>
<path d="M125.539 267.205V271.628C125.535 271.655 125.524 271.694 125.524 271.728C125.524 271.764 125.535 271.8 125.539 271.831C125.583 272.924 126.476 273.797 127.579 273.818C127.592 273.818 127.605 273.828 127.618 273.828C127.633 273.828 127.653 273.818 127.67 273.818H179.543C179.558 273.818 179.57 273.828 179.586 273.828C179.601 273.828 179.617 273.818 179.634 273.818C180.766 273.797 181.672 272.873 181.676 271.739C181.676 271.736 181.684 271.732 181.684 271.728C181.684 271.728 181.676 271.72 181.676 271.713V266.708C210.879 257.138 232.754 233.467 237.566 204.63C237.578 204.564 237.584 204.509 237.594 204.458C237.613 204.354 237.621 204.263 237.621 204.165C237.621 203.007 236.688 202.068 235.526 202.068H71.19H70.2019C69.0346 202.068 68.0967 203.007 68.0967 204.165L68.2069 205.11C73.2601 234.224 95.7364 258.023 125.539 267.205Z" fill="white"/>
<path d="M181.631 131.51C180.948 132.479 164.979 155.475 181.99 174.067C189.789 182.604 189.112 190.132 186.883 195.218H197.795C200.005 187.709 199.096 178.291 190.234 168.612C177.7 154.912 190.395 136.391 190.588 136.105C192.086 133.993 191.28 131.269 188.817 129.999C186.341 128.735 183.135 129.41 181.631 131.51Z" fill="white"/>
<path d="M153.995 195.217H164.911C167.117 187.706 166.201 178.292 157.343 168.612C144.805 154.908 157.489 136.397 157.691 136.095C159.178 133.992 158.39 131.272 155.915 129.998C153.449 128.738 150.236 129.409 148.741 131.509C148.054 132.476 132.068 155.474 149.094 174.068C156.895 182.604 156.217 190.133 153.995 195.217Z" fill="white"/>
<path d="M115.843 131.51C115.152 132.479 99.1802 155.475 116.195 174.067C124 182.608 123.324 190.135 121.102 195.218H132.014C134.219 187.713 133.309 178.295 124.441 168.612C111.904 154.912 124.598 136.391 124.799 136.098C126.282 133.993 125.491 131.269 123.017 129.999C120.551 128.727 117.34 129.407 115.843 131.51Z" fill="white"/>
<path d="M89.9214 20.5149H100.042V24.0403H94.2421V31.3939H98.5634V34.8811H94.2421V46.215H89.9214V20.5149Z" fill="white"/>
<path d="M102.279 39.5808V27.148C102.279 23.1301 104.25 20.2111 108.799 20.2111C113.385 20.2111 115.357 23.1301 115.357 27.148V39.5808C115.357 43.5611 113.386 46.5177 108.799 46.5177C104.25 46.5177 102.279 43.5611 102.279 39.5808ZM111.035 40.2637V26.4657C111.035 24.9119 110.353 23.8124 108.799 23.8124C107.283 23.8124 106.6 24.9119 106.6 26.4657V40.2637C106.6 41.8175 107.283 42.9171 108.799 42.9171C110.353 42.9171 111.035 41.8175 111.035 40.2637Z" fill="white"/>
<path d="M130.067 29.5362H129.953L127.034 46.215H125.025L121.802 29.5362H121.727V46.215H118.164V20.5149H123.206L126.011 34.9945H126.049L128.551 20.5149H134.01V46.215H130.067L130.067 29.5362Z" fill="white"/>
<path d="M136.816 20.5149H147.126V24.0403H141.137V31.3939H145.42V34.8811H141.137V42.6896H147.126V46.2144H136.816V20.5149Z" fill="white"/>
<path d="M158.308 42.6896H164.866V46.2144H153.797V42.6896L160.582 24.0397H154.479V20.5143H165.131V24.0397L158.308 42.6896Z" fill="white"/>
<path d="M167.749 20.5149H178.06V24.0403H172.07V31.3939H176.353V34.8811H172.07V42.6896H178.06V46.2144H167.749V20.5149Z" fill="white"/>
<path d="M185.034 34.4257V46.2144H180.713V20.5143H187.006C191.365 20.5143 192.957 22.6745 192.957 26.2758V29.5738C192.957 32.3412 191.972 33.9708 189.508 34.5397L193.64 46.2144H189.09L185.034 34.4257ZM185.034 24.0397V32.038H186.475C187.953 32.038 188.598 31.2799 188.598 29.9153V26.1248C188.598 24.722 187.954 24.0397 186.475 24.0397H185.034Z" fill="white"/>
<path d="M195.65 39.5808V27.148C195.65 23.1301 197.621 20.2111 202.17 20.2111C206.756 20.2111 208.728 23.1301 208.728 27.148V39.5808C208.728 43.5611 206.757 46.5177 202.17 46.5177C197.621 46.5177 195.65 43.5611 195.65 39.5808ZM204.406 40.2637V26.4657C204.406 24.9119 203.725 23.8124 202.171 23.8124C200.655 23.8124 199.972 24.9119 199.972 26.4657V40.2637C199.972 41.8175 200.655 42.9171 202.171 42.9171C203.725 42.9171 204.406 41.8175 204.406 40.2637Z" fill="white"/>
<path d="M89.8452 56.2039H100.156V59.7288H94.1659V67.0823H98.4496V70.5696H94.1659V78.378H100.156V81.9035H89.8452V56.2039Z" fill="white"/>
<path d="M106.524 81.9035L111.376 56.2033H116.304L121.194 81.9035H116.759L115.963 77.2033H111.377L110.618 81.9035H106.524ZM111.944 73.7536H115.394L113.688 63.4435H113.65L111.944 73.7536Z" fill="white"/>
<path d="M129.876 68.1818H136.017V81.9034H132.909V79.0985C132.341 81.0319 131.127 82.2073 128.777 82.2073C125.062 82.2073 123.356 79.2501 123.356 75.2704V62.8376C123.356 58.8197 125.289 55.9007 129.839 55.9007C134.615 55.9007 136.017 58.554 136.017 62.3445V64.6188H132.075V62.0037C132.075 60.4117 131.468 59.5019 129.915 59.5019C128.361 59.5019 127.678 60.6009 127.678 62.1547V75.952C127.678 77.5058 128.322 78.6054 129.801 78.6054C131.203 78.6054 131.924 77.8091 131.924 76.1413V71.5927H129.877L129.876 68.1818Z" fill="white"/>
<path d="M143.182 70.1153V81.9035H138.861V56.2033H145.153C149.513 56.2033 151.105 58.3636 151.105 61.9648V65.2629C151.105 68.0296 150.119 69.6599 147.655 70.2281L151.787 81.9035H147.238L143.182 70.1153ZM143.182 59.7288V67.7276H144.623C146.101 67.7276 146.746 66.9689 146.746 65.6044V61.8139C146.746 60.4117 146.102 59.7288 144.623 59.7288H143.182Z" fill="white"/>
<path d="M153.835 56.2039H158.156V81.9041H153.835V56.2039Z" fill="white"/>
<path d="M161.038 75.2697V62.8369C161.038 58.819 162.933 55.9 167.482 55.9C172.258 55.9 173.585 58.5533 173.585 62.3438V65.3762H169.643V62.003C169.643 60.411 169.112 59.5013 167.558 59.5013C166.004 59.5013 165.359 60.6002 165.359 62.154V75.9514C165.359 77.5052 166.004 78.6047 167.558 78.6047C169.112 78.6047 169.643 77.6192 169.643 76.103V71.3652H173.585V75.8004C173.585 79.4768 172.069 82.2066 167.482 82.2066C162.933 82.2066 161.038 79.2501 161.038 75.2697Z" fill="white"/>
<path d="M188.862 56.2039V75.6495C188.862 79.6298 187.156 82.2073 182.76 82.2073C178.21 82.2073 176.315 79.6298 176.315 75.6495V56.2039H180.637V76.0661C180.637 77.5823 181.244 78.6061 182.76 78.6061C184.276 78.6061 184.883 77.5823 184.883 76.0661V56.2039H188.862Z" fill="white"/>
<path d="M191.707 56.2039H196.028V78.3786H201.184V81.9041H191.707V56.2039Z" fill="white"/>
<path d="M203.041 56.2039H214.526V59.7288H210.963V81.9035H206.604V59.7288H203.041V56.2039H203.041Z" fill="white"/>
<path d="M229.463 56.2039V75.6495C229.463 79.6298 227.757 82.2073 223.36 82.2073C218.811 82.2073 216.916 79.6298 216.916 75.6495V56.2039H221.237V76.0661C221.237 77.5823 221.844 78.6061 223.36 78.6061C224.876 78.6061 225.483 77.5823 225.483 76.0661V56.2039H229.463Z" fill="white"/>
<path d="M236.628 70.1153V81.9035H232.307V56.2033H238.599C242.959 56.2033 244.551 58.3636 244.551 61.9648V65.2629C244.551 68.0296 243.565 69.6599 241.101 70.2281L245.233 81.9035H240.684L236.628 70.1153ZM236.628 59.7288V67.7276H238.069C239.547 67.7276 240.192 66.9689 240.192 65.6044V61.8139C240.192 60.4117 239.548 59.7288 238.069 59.7288H236.628Z" fill="white"/>
<path d="M246.599 81.9035L251.451 56.2033H256.378L261.269 81.9035H256.833L256.037 77.2033H251.451L250.693 81.9035H246.599ZM252.02 73.7536H255.469L253.763 63.4435H253.725L252.02 73.7536Z" fill="white"/>
<path d="M89.6167 111.543V108.093H93.6348V111.618C93.6348 113.059 94.2789 113.893 95.7582 113.893C97.1228 113.893 97.7287 112.983 97.7287 111.618V110.633C97.7287 109.155 97.1222 108.245 95.7951 106.993L93.2557 104.454C90.7915 102.028 89.6543 100.55 89.6543 97.593V96.7209C89.6543 93.5369 91.512 91.0728 95.7199 91.0728C100.041 91.0728 101.747 93.196 101.747 96.9101V98.9946H97.8045V96.7585C97.8045 95.2805 97.1222 94.56 95.7575 94.56C94.5439 94.56 93.71 95.2423 93.71 96.6827V97.214C93.71 98.6544 94.5063 99.4883 95.7575 100.701L98.5244 103.43C100.875 105.818 102.012 107.258 102.012 110.102V111.352C102.012 114.878 100.116 117.379 95.7193 117.379C91.3228 117.38 89.6167 114.916 89.6167 111.543Z" fill="white"/>
<path d="M117.215 91.3765V110.822C117.215 114.802 115.509 117.38 111.112 117.38C106.563 117.38 104.668 114.802 104.668 110.822V91.3765H108.989V111.239C108.989 112.755 109.596 113.779 111.112 113.779C112.628 113.779 113.235 112.755 113.235 111.239V91.3765H117.215Z" fill="white"/>
<path d="M119.832 111.543V108.093H123.85V111.618C123.85 113.059 124.494 113.893 125.973 113.893C127.338 113.893 127.944 112.983 127.944 111.618V110.633C127.944 109.155 127.337 108.245 126.01 106.993L123.471 104.454C121.007 102.028 119.87 100.55 119.87 97.593V96.7209C119.87 93.5369 121.727 91.0728 125.935 91.0728C130.256 91.0728 131.962 93.196 131.962 96.9101V98.9946H128.02V96.7585C128.02 95.2805 127.337 94.56 125.973 94.56C124.759 94.56 123.925 95.2423 123.925 96.6827V97.214C123.925 98.6544 124.722 99.4883 125.973 100.701L128.74 103.43C131.09 105.818 132.227 107.258 132.227 110.102V111.352C132.227 114.878 130.332 117.379 125.935 117.379C121.538 117.38 119.832 114.916 119.832 111.543Z" fill="white"/>
<path d="M134.389 91.3765H145.875V94.9014H142.312V117.077H137.952V94.9014H134.389L134.389 91.3765Z" fill="white"/>
<path d="M148.264 91.3765H158.575V94.9014H152.585V102.255H156.869V105.742H152.585V113.551H158.575V117.076H148.264V91.3765Z" fill="white"/>
<path d="M164.906 100.929V117.076H161.267V91.3759H165.512L170.174 106.121V91.3759H173.775V117.076H169.984L164.906 100.929Z" fill="white"/>
<path d="M176.126 91.3765H187.612V94.9014H184.05V117.077H179.69V94.9014H176.126V91.3765Z" fill="white"/>
<path d="M189.319 117.077L194.171 91.3766H199.099L203.989 117.077H199.554L198.758 112.377H194.171L193.413 117.077H189.319ZM200.161 89.5572L193.376 90.4293V88.0034L200.161 86.563V89.5572ZM194.74 108.927H198.19L196.484 98.6167H196.446L194.74 108.927Z" fill="white"/>
<path d="M219.988 91.3765L215.097 117.077H210.397L205.507 91.3765H209.903L212.861 109.306H212.898L215.931 91.3765H219.988Z" fill="white"/>
<path d="M222.149 91.3765H232.459V94.9014H226.47V102.255H230.753V105.742H226.47V113.551H232.459V117.076H222.149V91.3765Z" fill="white"/>
<path d="M235.153 91.3765H239.474V113.551H244.629V117.077H235.153V91.3765Z" fill="white"/>
</svg>
