<svg width="315" height="315" viewBox="0 0 315 315" fill="none" xmlns="http://www.w3.org/2000/svg">
<path d="M314.465 0H0V314.465H314.465V0Z" fill="#E3253C"/>
<path d="M43.9066 41.3572H43.9999V89.8927H54.6582V26.4895H46.1465L36.3306 37.9903V49.1177H36.4239L43.9066 41.3572Z" fill="white"/>
<path d="M242.181 150.028C242.181 145.216 246.083 141.319 250.893 141.319C255.695 141.319 259.586 145.216 259.586 150.028C259.586 154.835 255.695 158.736 250.893 158.736C246.083 158.736 242.181 154.835 242.181 150.028Z" fill="white"/>
<path d="M261.055 162.091C266.963 162.624 271.593 167.593 271.593 173.654V176.546V177.81V197.786C271.593 199.641 270.08 201.158 268.221 201.158C266.349 201.158 264.845 199.641 264.845 197.786V177.06C264.845 176.283 264.616 175.229 263.197 175.229C262.214 175.229 262.01 176.27 261.974 176.936V239.054C261.974 241.724 259.811 243.903 257.128 243.903C254.443 243.903 252.27 241.724 252.27 239.054V203.255C252.256 202.862 252.125 201.836 250.894 201.836H250.888C249.651 201.836 249.501 202.862 249.487 203.255V239.054C249.487 241.724 247.327 243.903 244.644 243.903C241.957 243.903 239.793 241.724 239.793 239.054V176.935C239.762 176.27 239.549 175.228 238.574 175.228C237.144 175.228 236.927 176.282 236.927 177.059V197.785C236.927 199.64 235.415 201.158 233.551 201.158C231.685 201.158 230.181 199.64 230.181 197.785V177.81V176.545V173.653C230.181 167.593 234.812 162.624 240.732 162.091C240.923 162.065 241.136 162.038 241.368 162.038H250.894H260.394C260.643 162.039 260.849 162.066 261.055 162.091Z" fill="white"/>
<path d="M190.41 154.6C190.41 150.048 186.729 146.348 182.174 146.348C177.617 146.348 173.926 150.047 173.926 154.6C173.926 159.156 177.617 162.845 182.174 162.845C186.729 162.845 190.41 159.156 190.41 154.6Z" fill="white"/>
<path d="M165.563 173.274L158.71 195.581C158.71 195.581 157.489 199.671 160.957 200.692C164.41 201.716 165.458 197.72 165.458 197.72L170.985 179.103C170.985 179.103 171.284 177.67 172.362 177.981C173.439 178.29 173.034 179.821 173.034 179.821L163.416 214.711H172.361V239.704C172.361 242.067 174.285 243.992 176.659 243.992C179.03 243.992 180.948 242.067 180.948 239.704V214.711H182.174H183.389V239.704C183.389 242.067 185.304 243.992 187.678 243.992C190.06 243.992 191.984 242.067 191.984 239.704V214.711H200.923L191.312 179.821C191.312 179.821 190.908 178.29 191.984 177.981C193.06 177.67 193.361 179.103 193.361 179.103L198.884 197.72C198.884 197.72 199.935 201.716 203.384 200.692C206.859 199.671 205.632 195.581 205.632 195.581L198.779 173.274C198.779 173.274 196.331 166.825 190.908 166.825H182.175H173.439C168.017 166.825 165.563 173.274 165.563 173.274Z" fill="white"/>
<path d="M141.035 154.6C141.035 150.048 137.348 146.348 132.795 146.348C128.238 146.348 124.55 150.047 124.55 154.6C124.55 159.156 128.238 162.845 132.795 162.845C137.348 162.845 141.035 159.156 141.035 154.6Z" fill="white"/>
<path d="M116.184 173.274L109.334 195.581C109.334 195.581 108.109 199.671 111.581 200.692C115.031 201.716 116.078 197.72 116.078 197.72L121.606 179.103C121.606 179.103 121.905 177.67 122.983 177.981C124.061 178.29 123.652 179.821 123.652 179.821L114.038 214.711H122.983V239.704C122.983 242.067 124.913 243.992 127.281 243.992C129.656 243.992 131.573 242.067 131.573 239.704V214.711H132.804H134.014V239.704C134.014 242.067 135.926 243.992 138.308 243.992C140.688 243.992 142.606 242.067 142.606 239.704V214.711H151.55L141.94 179.821C141.94 179.821 141.532 178.29 142.606 177.981C143.68 177.67 143.985 179.103 143.985 179.103L149.505 197.72C149.505 197.72 150.557 201.716 154.006 200.692C157.48 199.671 156.253 195.581 156.253 195.581L149.4 173.274C149.4 173.274 146.957 166.825 141.532 166.825H132.805H124.062C118.642 166.825 116.184 173.274 116.184 173.274Z" fill="white"/>
<path d="M218.097 200.737C221.891 200.737 224.956 197.665 224.956 193.87C224.956 190.075 221.891 187.015 218.097 187.015C214.303 187.015 211.235 190.075 211.235 193.87C211.234 197.665 214.303 200.737 218.097 200.737Z" fill="white"/>
<path d="M201.645 222.055C201.309 222.856 201.035 224.556 202.645 225.299C204.536 226.167 205.586 224.34 205.586 224.34L209.317 212.445C209.317 212.445 209.963 211.651 209.963 212.473V240.477H209.982C209.982 242.424 211.547 243.997 213.501 243.997C215.447 243.997 217.02 242.424 217.02 240.477V229.426C217.02 229.426 216.818 227.864 218.073 227.864C219.335 227.864 219.14 229.426 219.14 229.426V240.477C219.14 242.424 220.72 243.997 222.667 243.997C224.609 243.997 226.196 242.424 226.196 240.477V212.473C226.196 211.651 226.63 212.238 226.63 212.238L229.555 220.383C229.555 220.383 230.825 224.024 231.214 224.184C232.535 224.737 234.058 224.107 234.615 222.775C234.981 221.909 234.84 220.976 234.336 220.272L234.359 220.249C234.275 219.984 229.991 209.474 229.487 208C227.939 203.483 225.123 203.521 222.411 203.446C219.696 203.379 218.073 203.446 218.073 203.446C218.073 203.446 216.34 203.373 212.761 203.483C209.184 203.594 208.055 205.425 204.112 215.574C203.551 217.036 201.644 221.764 201.62 222.046L201.645 222.055Z" fill="white"/>
<path d="M67.4125 150.028C67.4125 145.216 63.5064 141.318 58.699 141.318C53.8958 141.318 50.0049 145.216 50.0049 150.028C50.0049 154.835 53.8958 158.735 58.699 158.735C63.5064 158.735 67.4125 154.835 67.4125 150.028Z" fill="white"/>
<path d="M48.5345 162.091C42.6307 162.624 37.9937 167.593 37.9937 173.654V176.546V177.809V197.786C37.9937 199.641 39.508 201.158 41.3722 201.158C43.2382 201.158 44.7489 199.641 44.7489 197.786V177.06C44.7489 176.283 44.9741 175.229 46.394 175.229C47.3754 175.229 47.5808 176.27 47.6217 176.936V239.054C47.6217 241.724 49.7809 243.903 52.4658 243.903C55.1465 243.903 57.3142 241.724 57.3142 239.054V203.255C57.3347 202.862 57.4635 201.835 58.6973 201.835H58.7009C59.9377 201.835 60.0888 202.862 60.0996 203.255V239.054C60.0996 241.724 62.2631 243.903 64.9444 243.903C67.6311 243.903 69.7939 241.724 69.7939 239.054V176.935C69.824 176.27 70.0444 175.228 71.0169 175.228C72.4457 175.228 72.6613 176.282 72.6613 177.059V197.785C72.6613 199.64 74.1738 201.158 76.038 201.158C77.9022 201.158 79.4106 199.64 79.4106 197.785V177.809V176.545V173.653C79.4106 167.593 74.7802 162.624 68.8618 162.091C68.6668 162.066 68.4572 162.038 68.2236 162.038H58.6967H49.1969C48.9482 162.038 48.7393 162.066 48.5345 162.091Z" fill="white"/>
<path d="M40.9436 201.292L33.2129 242.267" stroke="white" stroke-width="1.307" stroke-miterlimit="10" stroke-linecap="round"/>
<path d="M83.5454 197.142C83.0956 196.438 82.32 195.969 81.4271 195.969C80.0488 195.969 78.9282 197.091 78.9282 198.463C78.9282 198.862 79.1721 199.562 79.1721 199.562L86.0888 212.079C86.0888 212.079 86.5139 212.943 86.5139 213.731V240.612H86.5259C86.5259 242.487 88.0397 243.992 89.9105 243.992C91.7771 243.992 93.2818 242.487 93.2818 240.612V230.001C93.2818 230.001 93.0921 228.501 94.3036 228.501C95.5109 228.501 95.3212 230.001 95.3212 230.001V240.612C95.3212 242.487 96.8398 243.992 98.7082 243.992C100.575 243.992 102.096 242.487 102.096 240.612V213.731C102.096 212.943 102.514 212.079 102.514 212.079L108.909 200.522C108.909 200.522 109.691 198.862 109.691 198.463C109.691 197.092 108.574 195.969 107.19 195.969C106.285 195.969 105.51 196.438 105.073 197.142L105.044 197.129C104.843 197.301 101.641 203.005 100.584 204.06C99.4651 205.187 98.4661 205.064 98.4661 205.064H94.3042H90.1513C90.1513 205.064 89.1434 205.187 88.0318 204.06C86.9612 203.005 83.7712 197.301 83.5682 197.129L83.5454 197.142Z" fill="white"/>
<path d="M94.3022 200.737C98.0968 200.737 101.16 197.665 101.16 193.87C101.16 190.075 98.0968 187.015 94.3022 187.015C90.5094 187.015 87.4434 190.075 87.4434 193.87C87.4428 197.665 90.5094 200.737 94.3022 200.737Z" fill="white"/>
<path d="M94.3138 210.369L102.069 216.025L105.755 229.594H94.3138H82.8643L86.5577 216.025L94.3138 210.369Z" fill="white"/>
<path d="M90.4409 26.0294H100.752V29.5547H94.7624V36.9082H99.046V40.3962H94.7624V48.2048H100.752V51.7301H90.4409V26.0294Z" fill="white"/>
<path d="M107.766 39.941V51.7301H103.444V26.0288H109.737C114.097 26.0288 115.689 28.1897 115.689 31.7909V35.0886C115.689 37.8559 114.703 39.4858 112.239 40.0548L116.371 51.7301H111.822L107.766 39.941ZM107.766 29.5547V37.553H109.207C110.686 37.553 111.329 36.795 111.329 35.4306V31.6398C111.329 30.2369 110.685 29.5553 109.207 29.5553L107.766 29.5547Z" fill="white"/>
<path d="M122.74 39.941V51.7301H118.418V26.0288H124.711C129.071 26.0288 130.663 28.1897 130.663 31.7909V35.0886C130.663 37.8559 129.677 39.4858 127.213 40.0548L131.345 51.7301H126.796L122.74 39.941ZM122.74 29.5547V37.553H124.181C125.66 37.553 126.303 36.795 126.303 35.4306V31.6398C126.303 30.2369 125.659 29.5553 124.181 29.5553L122.74 29.5547Z" fill="white"/>
<path d="M132.712 51.7301L137.564 26.0288H142.492L147.382 51.7301H142.947L142.151 47.0295H137.564L136.806 51.7301H132.712ZM138.133 43.5801H141.583L139.877 33.2691H139.839L138.133 43.5801Z" fill="white"/>
<path d="M162.47 32.9283V44.8306C162.47 48.7732 160.839 51.7301 156.214 51.7301H149.542V26.0288H156.214C160.839 26.0294 162.47 28.9484 162.47 32.9283ZM155.684 48.2048C157.466 48.2048 158.148 47.1433 158.148 45.5893V32.1323C158.148 30.6162 157.465 29.5547 155.684 29.5547H153.864V48.2048H155.684Z" fill="white"/>
<path d="M165.313 26.0294H169.634V51.7307H165.313V26.0294Z" fill="white"/>
<path d="M172.516 45.0961V32.6627C172.516 28.6449 174.411 25.7259 178.96 25.7259C183.737 25.7259 185.064 28.3794 185.064 32.1702V35.203H181.121V31.8294C181.121 30.2368 180.591 29.3277 179.036 29.3277C177.482 29.3277 176.838 30.4271 176.838 31.9811V45.7795C176.838 47.3335 177.482 48.433 179.036 48.433C180.591 48.433 181.121 47.4473 181.121 45.9312V41.1927H185.064V45.6278C185.064 49.3048 183.547 52.0342 178.96 52.0342C174.411 52.0336 172.516 49.0766 172.516 45.0961Z" fill="white"/>
<path d="M187.112 51.7301L191.964 26.0288H196.893L201.783 51.7301H197.348L196.552 47.0295H191.965L191.207 51.7301H187.112ZM192.533 43.5801H195.982L194.277 33.2691H194.238L192.533 43.5801Z" fill="white"/>
<path d="M208.529 54.3457C209.743 54.3078 209.932 54.0423 209.932 53.7394C209.932 53.4739 209.705 53.3221 209.325 53.3221H209.136V51.9199C205.459 51.4647 203.943 48.698 203.943 45.0968V32.6634C203.943 28.6456 205.838 25.7266 210.387 25.7266C215.164 25.7266 216.491 28.3801 216.491 32.1709V35.2037H212.548V31.8301C212.548 30.2375 212.017 29.3284 210.463 29.3284C208.909 29.3284 208.264 30.4278 208.264 31.9818V45.7802C208.264 47.3342 208.909 48.4337 210.463 48.4337C212.017 48.4337 212.548 47.448 212.548 45.9319V41.1934H216.491V45.6285C216.491 49.2297 215.05 51.8831 210.766 52.0348V52.3756C211.79 52.5274 212.359 52.9061 212.359 53.7406C212.359 54.9159 211.259 55.5602 208.53 55.5602V54.3457H208.529Z" fill="white"/>
<path d="M218.538 51.7302L223.39 26.0288H228.319L233.209 51.7302H228.774L227.978 47.0296H223.391L222.633 51.7302H218.538ZM221.912 25.0059C221.988 23.2243 222.67 21.7834 224.566 21.7834C225.664 21.7834 226.575 22.4277 227.143 22.4277C227.446 22.4277 227.674 22.2386 227.674 21.8593H229.796C229.721 23.6409 229.038 25.0817 227.143 25.0817C226.044 25.0817 225.134 24.4375 224.566 24.4375C224.262 24.4375 224.034 24.6271 224.034 25.0059H221.912ZM223.959 43.5801H227.408L225.702 33.2691H225.664L223.959 43.5801Z" fill="white"/>
<path d="M235.37 45.0961V32.6627C235.37 28.6449 237.341 25.7259 241.89 25.7259C246.477 25.7259 248.448 28.6449 248.448 32.6627V45.0961C248.448 49.076 246.478 52.0336 241.89 52.0336C237.341 52.0336 235.37 49.0766 235.37 45.0961ZM244.127 45.7789V31.9805C244.127 30.4265 243.445 29.3271 241.89 29.3271C240.374 29.3271 239.692 30.4265 239.692 31.9805V45.7789C239.692 47.3329 240.374 48.4324 241.89 48.4324C243.445 48.4318 244.127 47.3329 244.127 45.7789Z" fill="white"/>
<path d="M103.368 70.9506V82.853C103.368 86.7956 101.738 89.7519 97.1131 89.7519H90.4409V64.0511H97.1131C101.738 64.0517 103.368 66.9708 103.368 70.9506ZM96.5827 86.2272C98.3644 86.2272 99.0466 85.1657 99.0466 83.6116V70.1547C99.0466 68.6386 98.3644 67.5771 96.5827 67.5771H94.763V86.2272H96.5827Z" fill="white"/>
<path d="M105.53 89.7525L110.383 64.0518H115.311L120.201 89.7525H115.766L114.97 85.0519H110.383L109.625 89.7525H105.53ZM110.951 81.6025H114.401L112.695 71.292H112.657L110.951 81.6025Z" fill="white"/>
<path d="M126.72 64.0518H133.126C137.486 64.0518 139.078 66.2127 139.078 69.8139V75.2346C139.078 78.8358 137.486 81.0341 133.126 81.0341H131.041V89.7525H126.72V64.0518ZM131.042 67.5771V77.6984H132.634C134.112 77.6984 134.756 76.9783 134.756 75.5754V69.6621C134.756 68.2598 134.112 67.5777 132.634 67.5777H131.042V67.5771Z" fill="white"/>
<path d="M141.695 83.119V70.6856C141.695 66.6678 143.666 63.7488 148.215 63.7488C152.802 63.7488 154.774 66.6678 154.774 70.6856V83.119C154.774 87.0989 152.802 90.0559 148.215 90.0559C143.666 90.0559 141.695 87.0989 141.695 83.119ZM150.452 83.8012V70.0028C150.452 68.4482 149.769 67.3494 148.215 67.3494C146.699 67.3494 146.016 68.4488 146.016 70.0028V83.8012C146.016 85.3552 146.699 86.4547 148.215 86.4547C149.769 86.4547 150.452 85.3552 150.452 83.8012Z" fill="white"/>
<path d="M157.617 64.0518H163.873C168.194 64.0518 169.635 66.061 169.635 69.7001V72.3156C169.635 74.476 168.838 75.8409 167.057 76.4093C169.218 76.9018 170.279 78.3427 170.279 80.6927V84.1042C170.279 87.7433 168.649 89.7525 164.327 89.7525H157.618V64.0518H157.617ZM161.939 74.8932H163.455C164.858 74.8932 165.502 74.1731 165.502 72.8087V69.6621C165.502 68.2598 164.858 67.5777 163.417 67.5777H161.939V74.8932ZM161.939 78.1909V86.2272H163.834C165.275 86.2272 165.957 85.5071 165.957 84.1421V80.276C165.957 78.9111 165.312 78.1909 163.796 78.1909H161.939Z" fill="white"/>
<path d="M177.14 77.9633V89.7525H172.818V64.0518H179.111C183.47 64.0518 185.063 66.2127 185.063 69.8139V73.1116C185.063 75.8789 184.077 77.5088 181.613 78.0771L185.745 89.7525H181.196L177.14 77.9633ZM177.14 67.5771V75.5754H178.581C180.059 75.5754 180.703 74.8174 180.703 73.453V69.6621C180.703 68.2598 180.059 67.5777 178.581 67.5777H177.14V67.5771Z" fill="white"/>
<path d="M187.793 64.0518H198.104V67.5771H192.115V74.9305H196.399V78.4185H192.115V86.2272H198.104V89.7525H187.793V64.0518Z" fill="white"/>
<path d="M205.004 86.2272H211.563V89.7525H200.493V86.2272L207.279 67.5771H201.175V64.0518H211.827V67.5771L205.004 86.2272Z" fill="white"/>
<path d="M213.8 89.7525L218.652 64.0518H223.581L228.471 89.7525H224.036L223.24 85.0519H218.653L217.895 89.7525H213.8ZM219.221 81.6025H222.67L220.965 71.292H220.927L219.221 81.6025Z" fill="white"/>
</svg>
