<svg width="315" height="315" viewBox="0 0 315 315" fill="none" xmlns="http://www.w3.org/2000/svg">
<path d="M314.679 0H0.213867V314.465H314.679V0Z" fill="#4CA046"/>
<path d="M45.0886 90.6101C55.8469 90.6101 60.5188 84.9041 60.5188 76.1163V66.7651C60.5188 60.9677 57.9947 57.2254 52.6648 56.0097C57.0601 54.6106 59.9579 51.0536 59.9579 45.7251V40.2056C59.9579 31.2287 55.6572 25.7118 45.8386 25.7118C34.7992 25.7118 30.9648 32.254 30.9648 41.6059V47.2168H40.6914V40.7658C40.6914 36.8383 41.9109 34.5947 45.2783 34.5947C48.6445 34.5947 49.8544 36.8383 49.8544 40.2963V47.1248C49.8544 50.4921 47.6134 52.2655 44.154 52.2655H40.1305V60.4048H44.6229C48.3615 60.4048 49.8544 62.1795 49.8544 65.5455V76.0205C49.8544 79.3826 48.3614 81.7265 45.0886 81.7265C41.4414 81.7265 40.1305 79.2913 40.1305 75.5528V66.4827H30.4097V74.8035C30.4097 84.439 34.2396 90.6101 45.0886 90.6101Z" fill="white"/>
<path d="M263.071 196.53C263.071 187.68 257.393 180.507 248.793 180.507C244.494 180.507 239.306 185.217 236.487 188.112C233.673 185.213 228.831 180.499 224.526 180.499C215.928 180.499 209.901 187.674 209.901 196.526C209.901 200.949 211.643 204.955 214.464 207.856L236.508 229.94L258.522 207.882L258.505 207.866C261.323 204.962 263.071 200.955 263.071 196.53Z" fill="white"/>
<path d="M169.218 265.993C169.144 265.993 169.07 265.993 168.993 265.989C167.315 265.883 165.933 264.642 165.65 262.985L154.452 197.772L137.492 229.222C136.748 230.6 135.197 231.34 133.671 231.066C132.131 230.793 130.945 229.563 130.722 228.017L123.521 177.689L110.347 207.28C109.765 208.585 108.469 209.427 107.041 209.427H55.8354C53.8371 209.427 52.2163 207.807 52.2163 205.806C52.2163 203.809 53.8364 202.188 55.8354 202.188H104.688L122.019 163.267C122.675 161.793 124.227 160.933 125.825 161.154C127.421 161.377 128.68 162.627 128.909 164.226L136.333 216.119L153.059 185.106C153.792 183.746 155.306 182.999 156.833 183.253C158.355 183.501 159.553 184.69 159.815 186.211L170.182 246.608L207.975 121.076C208.406 119.645 209.669 118.627 211.156 118.51C212.648 118.401 214.053 119.202 214.702 120.546L234.589 161.77C235.454 163.569 234.701 165.733 232.901 166.603C231.101 167.47 228.935 166.716 228.065 164.914L212.225 132.075L172.682 263.419C172.22 264.955 170.804 265.993 169.218 265.993Z" fill="white"/>
<path d="M89.8154 46.5076V43.0579H93.8338V46.5836C93.8338 48.0242 94.4784 48.8579 95.9567 48.8579C97.3213 48.8579 97.9282 47.9482 97.9282 46.5836V45.5979C97.9282 44.1197 97.3213 43.2093 95.9951 41.9585L93.455 39.4185C90.9909 36.9922 89.8538 35.5139 89.8538 32.5568V31.6848C89.8538 28.5002 91.7115 26.0362 95.9197 26.0362C100.242 26.0362 101.947 28.1591 101.947 31.8739V33.959H98.0049V31.7225C98.0049 30.2442 97.3226 29.5236 95.9574 29.5236C94.7442 29.5236 93.9098 30.2059 93.9098 31.6465V32.1773C93.9098 33.6179 94.7065 34.4522 95.9574 35.6647L98.7249 38.3944C101.075 40.7824 102.213 42.223 102.213 45.0664V46.3172C102.213 49.843 100.318 52.3446 95.9197 52.3446C91.5212 52.3453 89.8154 49.8813 89.8154 46.5076Z" fill="white"/>
<path d="M104.185 52.0424L109.038 26.3402H113.966L118.856 52.0424H114.421L113.625 47.3419H109.038L108.279 52.0424H104.185ZM109.606 43.8915H113.056L111.35 33.5801H111.313L109.606 43.8915Z" fill="white"/>
<path d="M133.565 26.3397V45.787C133.565 49.7676 131.859 52.3453 127.461 52.3453C122.912 52.3453 121.017 49.7676 121.017 45.787V26.3397H125.338V46.2042C125.338 47.7208 125.945 48.7442 127.461 48.7442C128.978 48.7442 129.584 47.7208 129.584 46.2042V26.3397H133.565ZM130.911 24.5203L124.125 25.3923V22.966L130.911 21.5255V24.5203Z" fill="white"/>
<path d="M149.336 33.239V45.1424C149.336 49.0853 147.707 52.0418 143.081 52.0418H136.409V26.3396H143.081C147.706 26.3396 149.336 29.2591 149.336 33.239ZM142.55 48.5167C144.332 48.5167 145.014 47.455 145.014 45.9007V32.443C145.014 30.9271 144.332 29.8654 142.55 29.8654H140.73V48.5167H142.55Z" fill="white"/>
<path d="M152.181 26.3396H162.492V29.8654H156.502V37.2196H160.786V40.707H156.502V48.5167H162.492V52.0418H152.181V26.3396Z" fill="white"/>
<path d="M169.543 26.3396H179.855V29.8654H173.865V37.2196H178.149V40.707H173.865V48.5167H179.855V52.0418H169.543V26.3396Z" fill="white"/>
<path d="M90.0439 63.4692H96.299C100.621 63.4692 102.061 65.4783 102.061 69.1177V71.7338C102.061 73.8943 101.265 75.2595 99.4836 75.828C101.644 76.3212 102.706 77.7611 102.706 80.112V83.5241C102.706 87.1635 101.076 89.1726 96.7538 89.1726H90.0439V63.4692ZM94.3658 74.3115H95.8824C97.2854 74.3115 97.93 73.5915 97.93 72.2263V69.0794C97.93 67.6772 97.2854 66.9943 95.8447 66.9943H94.3664V74.3115H94.3658ZM94.3658 77.6091V85.6463H96.2613C97.7019 85.6463 98.3842 84.9257 98.3842 83.5611V79.6943C98.3842 78.3297 97.7396 77.6091 96.2236 77.6091H94.3658Z" fill="white"/>
<path d="M105.245 63.4692H115.557V66.9949H109.567V74.3491H113.851V77.8372H109.567V85.6469H115.557V89.172H105.245V63.4692Z" fill="white"/>
<path d="M130.153 72.4914H130.04L127.121 89.1713H125.111L121.889 72.4914H121.813V89.1713H118.249V63.4692H123.291L126.097 77.9502H126.135L128.637 63.4692H134.096V89.1713H130.153V72.4914Z" fill="white"/>
<path d="M136.675 75.4863H142.741V78.9737H136.675V75.4863Z" fill="white"/>
<path d="M145.319 63.4692H155.631V66.9949H149.641V74.3491H153.924V77.8372H149.641V85.6469H155.631V89.172H145.319V63.4692Z" fill="white"/>
<path d="M158.095 83.6365V80.1869H162.114V83.7119C162.114 85.1525 162.758 85.9868 164.236 85.9868C165.601 85.9868 166.207 85.0771 166.207 83.7119V82.7269C166.207 81.2486 165.601 80.3383 164.274 79.0874L161.734 76.5474C159.27 74.1211 158.132 72.6429 158.132 69.6857V68.8137C158.132 65.6291 159.99 63.1652 164.198 63.1652C168.52 63.1652 170.226 65.288 170.226 69.0028V71.088H166.283V68.8514C166.283 67.3732 165.6 66.6525 164.236 66.6525C163.023 66.6525 162.188 67.3348 162.188 68.7754V69.3062C162.188 70.7468 162.984 71.5805 164.236 72.7943L167.003 75.5234C169.354 77.9113 170.491 79.3519 170.491 82.1954V83.4468C170.491 86.9719 168.595 89.4742 164.198 89.4742C159.8 89.4742 158.095 87.0109 158.095 83.6365Z" fill="white"/>
<path d="M172.653 63.4692H184.139V66.9949H180.576V89.172H176.216V66.9943H172.653V63.4692Z" fill="white"/>
<path d="M185.846 89.1713L190.698 63.4692H195.627L200.518 89.1713H196.082L195.286 84.4708H190.698L189.94 89.1713H185.846ZM191.267 81.0211H194.717L193.01 70.7097H192.972L191.267 81.0211Z" fill="white"/>
<path d="M207 77.3817V89.1713H202.678V63.4692H208.971C213.331 63.4692 214.923 65.6297 214.923 69.2315V72.5298C214.923 75.2972 213.938 76.9268 211.473 77.4954L215.606 89.1713H211.056L207 77.3817ZM207 66.9943V74.9931H208.441C209.919 74.9931 210.563 74.2348 210.563 72.8702V69.0788C210.563 67.6765 209.918 66.9936 208.441 66.9936H207V66.9943Z" fill="white"/>
</svg>
