<svg width="315" height="315" viewBox="0 0 315 315" fill="none" xmlns="http://www.w3.org/2000/svg">
<path d="M314.893 0H0.427734V314.465H314.893V0Z" fill="#EF412C"/>
<path d="M50.5691 46.4279C46.3631 46.4279 43.2751 47.9233 41.5919 50.8233H41.4948V35.0188H59.8285V26.3232H31.7753V62.0478H41.4948V60.6381C41.4948 56.8981 43.1838 54.8425 46.1715 54.8425C49.4467 54.8425 50.7594 57.0897 50.7594 60.5505V75.8862C50.7594 79.2538 49.5418 81.5898 46.2673 81.5898C42.6185 81.5898 41.3133 79.1586 41.3133 75.4205V67.4697H31.5806V74.6706C31.5806 84.3014 35.4159 90.4751 46.2673 90.4751C57.0229 90.4751 61.416 84.7715 61.416 75.9801V60.4566C61.416 50.4496 56.2749 46.4279 50.5691 46.4279Z" fill="white"/>
<path d="M229.479 118.989H190.395C190.128 118.989 189.899 119.21 189.899 119.487V132.474C189.899 132.752 190.128 132.972 190.395 132.972H205.958L188.677 150.256C179.973 143.419 169.021 139.325 157.117 139.325C128.894 139.325 105.926 162.287 105.926 190.515C105.926 216.502 125.398 238.004 150.509 241.259V256.224H135.092C134.808 256.224 134.59 256.446 134.59 256.716V270.639C134.59 270.914 134.808 271.135 135.092 271.135H150.509V285.863C150.509 286.134 150.731 286.36 151.006 286.36H164.92C165.197 286.36 165.424 286.134 165.424 285.863V271.135H180.838C181.113 271.135 181.334 270.914 181.334 270.639V256.716C181.334 256.445 181.113 256.224 180.838 256.224H165.424V241.015C189.712 237.03 208.305 215.908 208.305 190.514C208.305 179.557 204.838 169.405 198.956 161.07L215.99 144.035V158.569C215.99 158.845 216.219 159.066 216.494 159.066H229.479C229.756 159.066 229.986 158.845 229.986 158.569V119.486C229.986 119.21 229.756 118.989 229.479 118.989ZM157.117 228.19C136.34 228.19 119.441 211.289 119.441 190.515C119.441 169.736 136.34 152.836 157.117 152.836C177.896 152.836 194.798 169.736 194.798 190.515C194.798 211.289 177.896 228.19 157.117 228.19Z" fill="white"/>
<path d="M180.13 175.047H134.429C134.154 175.047 133.933 175.251 133.933 175.494V186.558C133.933 186.815 134.154 187.012 134.429 187.012H180.13C180.415 187.012 180.636 186.816 180.636 186.558V175.493C180.636 175.251 180.415 175.047 180.13 175.047Z" fill="white"/>
<path d="M180.13 194.8H134.429C134.154 194.8 133.933 195.011 133.933 195.262V206.325C133.933 206.573 134.154 206.774 134.429 206.774H180.13C180.415 206.774 180.636 206.573 180.636 206.325V195.262C180.636 195.011 180.415 194.8 180.13 194.8Z" fill="white"/>
<path d="M103.178 70.9225V82.8244C103.178 86.7661 101.548 89.7228 96.9232 89.7228H90.252V64.0235H96.9232C101.548 64.0235 103.178 66.9424 103.178 70.9225ZM96.3926 86.1977C98.1742 86.1977 98.8567 85.1359 98.8567 83.5825V70.126C98.8567 68.6098 98.1748 67.5486 96.3926 67.5486H94.5732V86.1977H96.3926Z" fill="white"/>
<path d="M105.947 64.0235H116.257V67.5486H110.268V74.902H114.551V78.3893H110.268V86.1977H116.257V89.7228H105.947V64.0235Z" fill="white"/>
<path d="M129.678 76.0016H135.818V89.7227H132.71V86.9179C132.142 88.8512 130.929 90.0265 128.579 90.0265C124.864 90.0265 123.158 87.0698 123.158 83.0896V70.6571C123.158 66.6392 125.091 63.7203 129.64 63.7203C134.416 63.7203 135.818 66.3733 135.818 70.1644V72.4386H131.876V69.8234C131.876 68.2316 131.27 67.3217 129.716 67.3217C128.161 67.3217 127.479 68.4213 127.479 69.9753V83.7727C127.479 85.3267 128.123 86.4257 129.602 86.4257C131.005 86.4257 131.725 85.6298 131.725 83.9618V79.4133H129.678V76.0016Z" fill="white"/>
<path d="M138.587 64.0234H148.898V67.5485H142.909V74.9019H147.192V78.3892H142.909V86.1976H148.898V89.7227H138.587V64.0234ZM140.369 63.0762V60.9917L143.098 58.9827H144.993L147.723 60.9917V63.0762L144.084 61.9772L140.369 63.0762Z" fill="white"/>
<path d="M155.153 73.5755V89.7228H151.515V64.0235H155.76L160.422 78.7681V64.0235H164.023V89.7228H160.232L155.153 73.5755Z" fill="white"/>
<path d="M166.792 64.0235H177.102V67.5486H171.113V74.902H175.397V78.3893H171.113V86.1977H177.102V89.7228H166.792V64.0235Z" fill="white"/>
<path d="M184.041 77.935V89.7228H179.72V64.0235H186.012C190.371 64.0235 191.963 66.1843 191.963 69.7851V73.0827C191.963 75.8498 190.977 77.4794 188.514 78.0478L192.645 89.7222H188.096L184.041 77.935ZM184.041 67.5486V75.5467H185.481C186.959 75.5467 187.604 74.7886 187.604 73.4236V69.6332C187.604 68.2305 186.959 67.548 185.481 67.548H184.041V67.5486Z" fill="white"/>
<path d="M194.619 83.0896V70.6571C194.619 66.6392 196.59 63.7203 201.139 63.7203C205.725 63.7203 207.697 66.6392 207.697 70.6571V83.0896C207.697 87.0698 205.725 90.0265 201.139 90.0265C196.59 90.0265 194.619 87.0698 194.619 83.0896ZM203.375 83.7721V69.9747C203.375 68.4207 202.692 67.3211 201.138 67.3211C199.622 67.3211 198.94 68.4207 198.94 69.9747V83.7721C198.94 85.3261 199.622 86.4251 201.138 86.4251C202.692 86.4251 203.375 85.3261 203.375 83.7721Z" fill="white"/>
<path d="M90.252 26.3421H94.5732V52.0414H90.252V26.3421Z" fill="white"/>
<path d="M103.975 38.3196H110.116V52.0407H107.008V49.2359C106.439 51.1692 105.226 52.3445 102.875 52.3445C99.1604 52.3445 97.4551 49.3877 97.4551 45.4076V32.9751C97.4551 28.9572 99.3879 26.0383 103.937 26.0383C108.714 26.0383 110.116 28.6913 110.116 32.4823V34.7566H106.174V32.1414C106.174 30.5496 105.568 29.6397 104.013 29.6397C102.459 29.6397 101.776 30.7393 101.776 32.2927V46.0901C101.776 47.6441 102.42 48.7431 103.899 48.7431C105.302 48.7431 106.022 47.9472 106.022 46.2791V41.7306H103.975V38.3196Z" fill="white"/>
<path d="M125.507 26.3421V45.787C125.507 49.7671 123.801 52.3445 119.404 52.3445C114.855 52.3445 112.959 49.7671 112.959 45.787V26.3421H117.281V46.2042C117.281 47.7204 117.887 48.7438 119.404 48.7438C120.92 48.7438 121.526 47.7204 121.526 46.2042V26.3421H125.507Z" fill="white"/>
<path d="M127.668 52.0407L132.52 26.3414H137.449L142.338 52.0407H137.903L137.107 47.3403H132.52L131.762 52.0407H127.668ZM133.089 43.8915H136.539L134.833 33.5813H134.795L133.089 43.8915Z" fill="white"/>
<path d="M144.501 26.3421H148.822V48.5163H153.978V52.0414H144.501V26.3421Z" fill="white"/>
<path d="M169.255 33.2404V45.1423C169.255 49.084 167.625 52.0407 163 52.0407H156.329V26.3414H163C167.625 26.342 169.255 29.2603 169.255 33.2404ZM162.469 48.5156C164.251 48.5156 164.933 47.4544 164.933 45.9004V32.4439C164.933 30.9277 164.251 29.8665 162.469 29.8665H160.65V48.5156H162.469Z" fill="white"/>
<path d="M171.417 52.0407L176.269 26.3414H181.196L186.087 52.0407H181.651L180.855 47.3403H176.269L175.511 52.0407H171.417ZM176.838 43.8915H180.288L178.582 33.5813H178.544L176.838 43.8915Z" fill="white"/>
<path d="M201.174 33.2404V45.1423C201.174 49.084 199.544 52.0407 194.919 52.0407H188.248V26.3414H194.919C199.544 26.342 201.174 29.2603 201.174 33.2404ZM194.389 48.5156C196.17 48.5156 196.853 47.4544 196.853 45.9004V32.4439C196.853 30.9277 196.17 29.8665 194.389 29.8665H192.569V48.5156H194.389Z" fill="white"/>
<path d="M204.02 26.3421H214.33V29.8672H208.341V37.2206H212.624V40.7079H208.341V48.5163H214.33V52.0414H204.02V26.3421Z" fill="white"/>
</svg>
