<svg width="315" height="315" viewBox="0 0 315 315" fill="none" xmlns="http://www.w3.org/2000/svg">
<path d="M314.786 0H0.320801V314.465H314.786V0Z" fill="#C5202E"/>
<path d="M49.5831 89.7588H59.682V79.4722H63.987V71.1521H59.682V26.3528H49.205L30.7856 72.9268V79.4728H49.5831V89.7588ZM40.1362 71.1521L49.6742 45.0616H49.7692V71.1521H40.1362Z" fill="white"/>
<path d="M139.764 168.612L83.3643 136.048V241.394L139.764 258.41V168.612Z" fill="white"/>
<path d="M145.965 168.828V258.446L202.731 241.38V136.053L145.965 168.828Z" fill="white"/>
<path d="M247.005 133.382C247.005 129.692 244.017 126.707 240.338 126.707C236.647 126.707 233.663 129.692 233.663 133.382V140.575H247.005V133.382H247.005Z" fill="white"/>
<path d="M235.318 239.525H233.662L240.337 262.847L247 239.525H245.344H247V145.799H245.344H243.688H241.932H238.61H236.974H235.318H233.658V239.525H235.318Z" fill="white"/>
<path d="M214.845 140.572L208.8 135.797V244.252L146.133 264.5H143.233H142.66H139.763L77.3761 247.071V135.797L71.3262 140.572V251.313L139.477 270.179H142.66H143.233H146.418L209.292 250.214L214.845 248.58V140.572Z" fill="white"/>
<path d="M95.0886 91.4662V89.7226C91.6387 89.1164 90.1606 86.5766 90.1606 83.0887V70.6558C90.1606 66.6373 92.1318 63.7187 96.6804 63.7187C101.268 63.7187 103.238 66.6379 103.238 70.6558V83.0887C103.238 85.8941 102.253 88.092 100.054 89.1539L103.238 89.7607V92.9824L95.0886 91.4662ZM98.9173 83.9992V69.9733C98.9173 68.4197 98.2348 67.3204 96.6804 67.3204C95.1642 67.3204 94.4824 68.4197 94.4824 69.9733V83.9992C94.4824 85.5154 95.1649 86.6522 96.6804 86.6522C98.2348 86.6522 98.9173 85.5147 98.9173 83.9992Z" fill="white"/>
<path d="M118.554 64.0223V83.4685C118.554 87.4482 116.848 90.0261 112.451 90.0261C107.902 90.0261 106.007 87.4482 106.007 83.4685V64.0223H110.329V83.8847C110.329 85.4015 110.935 86.4251 112.451 86.4251C113.968 86.4251 114.574 85.4015 114.574 83.8847V64.0223H118.554Z" fill="white"/>
<path d="M120.639 89.7224L125.492 64.0217H130.42L135.31 89.7224H130.874L130.078 85.0221H125.491L124.733 89.7224H120.639ZM126.06 81.573H129.51L127.804 71.2625H127.766L126.06 81.573Z" fill="white"/>
<path d="M137.397 64.0223H141.718V86.197H146.874V89.7224H137.397V64.0223Z" fill="white"/>
<path d="M149.147 64.0223H153.469V89.723H149.147V64.0223Z" fill="white"/>
<path d="M169.201 70.9206V82.8235C169.201 86.7658 167.571 89.7224 162.946 89.7224H156.275V64.0217H162.946C167.571 64.0223 169.201 66.9402 169.201 70.9206ZM162.416 86.1971C164.197 86.1971 164.88 85.1352 164.88 83.5816V70.125C164.88 68.6082 164.197 67.5471 162.416 67.5471H160.596V86.1971H162.416Z" fill="white"/>
<path d="M171.287 89.7224L176.139 64.0217H181.067L185.957 89.7224H181.521L180.726 85.0221H176.139L175.38 89.7224H171.287ZM176.706 81.573H180.156L178.451 71.2625H178.413L176.706 81.573Z" fill="white"/>
<path d="M200.969 70.9206V82.8235C200.969 86.7658 199.34 89.7224 194.714 89.7224H188.043V64.0217H194.714C199.34 64.0223 200.969 66.9402 200.969 70.9206ZM194.184 86.1971C195.965 86.1971 196.648 85.1352 196.648 83.5816V70.125C196.648 68.6082 195.965 67.5471 194.184 67.5471H192.364V86.1971H194.184Z" fill="white"/>
<path d="M203.737 64.0223H214.047V67.547H208.057V74.9016H212.342V78.3888H208.057V86.1977H214.047V89.723H203.737V64.0223Z" fill="white"/>
<path d="M90.1606 26.3399H100.472V29.8653H94.4818V37.2192H98.7654V40.7065H94.4818V48.5153H100.472V52.0407H90.1606V26.3399Z" fill="white"/>
<path d="M116.053 33.2395V45.1418C116.053 49.084 114.423 52.0407 109.798 52.0407H103.126V26.3399H109.798C114.423 26.3399 116.053 29.2591 116.053 33.2395ZM109.268 48.5153C111.049 48.5153 111.731 47.4541 111.731 45.8999V32.4426C111.731 30.9265 111.049 29.8653 109.268 29.8653H107.448V48.5153H109.268Z" fill="white"/>
<path d="M131.406 26.3399V45.7861C131.406 49.7665 129.699 52.3438 125.303 52.3438C120.754 52.3438 118.858 49.7658 118.858 45.7861V26.3399H123.18V46.203C123.18 47.7191 123.786 48.7428 125.302 48.7428C126.819 48.7428 127.425 47.7198 127.425 46.203V26.3399H131.406Z" fill="white"/>
<path d="M134.213 45.4074V32.9739C134.213 28.956 136.108 26.0368 140.657 26.0368C145.434 26.0368 146.76 28.6904 146.76 32.4814V35.5137H142.818V32.1395C142.818 30.5478 142.287 29.6378 140.732 29.6378C139.178 29.6378 138.534 30.7371 138.534 32.2914V46.0892C138.534 47.6435 139.178 48.7428 140.732 48.7428C142.286 48.7428 142.818 47.7572 142.818 46.2411V41.5027H146.76V45.938C146.76 49.6146 145.244 52.3444 140.657 52.3444C136.108 52.3444 134.213 49.3878 134.213 45.4074Z" fill="white"/>
<path d="M147.859 52.0407L152.711 26.3399H157.639L162.529 52.0407H158.094L157.299 47.3404H152.711L151.953 52.0407H147.859ZM153.28 43.8913H156.729L155.024 33.5807H154.986L153.28 43.8913Z" fill="white"/>
<path d="M168.329 54.6567C169.542 54.6186 169.732 54.3536 169.732 54.0499C169.732 53.7843 169.504 53.6324 169.125 53.6324H168.936V52.23C165.259 51.775 163.743 49.0077 163.743 45.4067V32.9732C163.743 28.9553 165.638 26.0361 170.187 26.0361C174.964 26.0361 176.29 28.6897 176.29 32.4807V35.513H172.348V32.1388C172.348 30.5471 171.817 29.6371 170.262 29.6371C168.708 29.6371 168.064 30.7364 168.064 32.2907V46.0885C168.064 47.6428 168.709 48.7421 170.262 48.7421C171.816 48.7421 172.348 47.7565 172.348 46.2404V41.502H176.29V45.9373C176.29 49.5383 174.85 52.1919 170.566 52.3437V52.685C171.59 52.8368 172.158 53.2156 172.158 54.0499C172.158 55.2248 171.06 55.8691 168.329 55.8691V54.6567Z" fill="white"/>
<path d="M177.391 52.0407L182.243 26.3399H187.171L192.061 52.0407H187.625L186.83 47.3404H182.242L181.484 52.0407H177.391ZM180.765 25.3169C180.841 23.5351 181.522 22.0946 183.418 22.0946C184.517 22.0946 185.427 22.7389 185.995 22.7389C186.298 22.7389 186.527 22.5495 186.527 22.1708H188.648C188.573 23.9519 187.891 25.3925 185.995 25.3925C184.896 25.3925 183.986 24.7482 183.418 24.7482C183.115 24.7482 182.888 24.9382 182.888 25.3169H180.765ZM182.811 43.8912H186.261L184.555 33.5807H184.517L182.811 43.8912Z" fill="white"/>
<path d="M193.275 45.4074V32.9739C193.275 28.956 195.245 26.0368 199.795 26.0368C204.382 26.0368 206.352 28.956 206.352 32.9739V45.4074C206.352 49.3878 204.381 52.3444 199.795 52.3444C195.245 52.3444 193.275 49.3878 193.275 45.4074ZM202.032 46.0899V32.2921C202.032 30.7378 201.348 29.6385 199.795 29.6385C198.279 29.6385 197.596 30.7378 197.596 32.2921V46.0899C197.596 47.6441 198.279 48.7434 199.795 48.7434C201.348 48.7428 202.032 47.6441 202.032 46.0899Z" fill="white"/>
<path d="M224.587 33.2395V45.1418C224.587 49.084 222.957 52.0407 218.332 52.0407H211.66V26.3399H218.332C222.957 26.3399 224.587 29.2591 224.587 33.2395ZM217.801 48.5153C219.584 48.5153 220.265 47.4541 220.265 45.8999V32.4426C220.265 30.9265 219.583 29.8653 217.801 29.8653H215.982V48.5153H217.801Z" fill="white"/>
<path d="M226.484 26.3399H236.794V29.8653H230.804V37.2192H235.089V40.7065H230.804V48.5153H236.794V52.0407H226.484V26.3399Z" fill="white"/>
</svg>
