<svg width="315" height="315" viewBox="0 0 315 315" fill="none" xmlns="http://www.w3.org/2000/svg">
<path d="M314.679 0.45282H0.213867V314.918H314.679V0.45282Z" fill="#F26A2C"/>
<path d="M57.8092 42.7609C57.8092 32.9438 53.5071 25.845 42.2916 25.845C30.9789 25.845 26.5908 32.0098 26.5908 41.8251V51.1737C26.5908 61.5497 30.6985 66.7807 38.3683 66.7807C42.8549 66.7807 45.5639 64.724 47.152 61.6438H47.2436V75.2851C47.2436 79.1167 45.7464 81.83 41.9165 81.83C38.0848 81.83 36.6829 79.5871 36.6829 75.6608V71.4578H26.9603V74.8228C26.9603 84.1664 30.3285 90.7095 42.1066 90.7095C53.317 90.7095 57.8092 83.5122 57.8092 73.6047V42.7609ZM47.2436 52.4827C47.056 56.0315 45.5632 58.2744 42.1981 58.2744C38.5577 58.2744 37.1502 56.0309 37.1502 51.9176V40.888C37.1502 36.8714 38.6436 34.5356 42.2916 34.5356C45.843 34.5356 47.2436 36.9648 47.2436 40.888V52.4827Z" fill="white"/>
<path d="M237.778 207.144L200.395 185.569V142.41C200.395 141.499 199.911 140.658 199.12 140.202L160.474 117.888C159.682 117.435 158.713 117.435 157.923 117.888L119.272 140.202C118.481 140.658 117.996 141.499 117.996 142.41V185.569L80.6193 207.143C79.829 207.6 79.3447 208.441 79.3447 209.351V253.988C79.3447 254.901 79.829 255.741 80.6193 256.198L119.272 278.508C119.667 278.733 120.104 278.85 120.545 278.85C120.985 278.85 121.425 278.733 121.82 278.508L159.197 256.933L196.57 278.508C196.963 278.733 197.404 278.85 197.845 278.85C198.285 278.85 198.725 278.737 199.12 278.508L237.777 256.198C238.565 255.742 239.05 254.901 239.05 253.989V209.351C239.051 208.441 238.566 207.599 237.778 207.144ZM156.647 249.57L125.644 231.67L156.647 213.769V249.57ZM192.745 187.043L161.748 204.935V169.139L192.745 187.043ZM156.647 204.935L125.647 187.041L156.647 169.139V204.935ZM164.301 209.353L197.846 189.986L231.402 209.351L197.846 228.726L164.301 209.353ZM195.296 182.625L164.301 164.723L195.296 146.828V182.625ZM154.097 164.723L123.096 182.625V146.828L154.097 164.723ZM117.996 271.882L84.4428 252.514V213.769L117.996 233.144V271.882ZM123.096 271.882V236.088L154.097 253.988L123.096 271.882ZM233.954 252.515L200.395 271.883V233.144L233.954 213.769V252.515Z" fill="white"/>
<path d="M74.4229 27.3078H78.5437V51.8162H74.4229V27.3078Z" fill="white"/>
<path d="M83.8575 36.4168V51.8156H80.3877V27.3072H84.4358L88.8823 41.3687V27.3072H92.317V51.8156H88.7016L83.8575 36.4168Z" fill="white"/>
<path d="M106.451 33.8866V45.2373C106.451 48.9968 104.896 51.8162 100.486 51.8162H94.1235V27.3078H100.486C104.897 27.3078 106.451 30.0907 106.451 33.8866ZM99.9806 48.4543C101.68 48.4543 102.33 47.442 102.33 45.9599V33.1277C102.33 31.682 101.68 30.6697 99.9806 30.6697H98.2451V48.4543H99.9806Z" fill="white"/>
<path d="M120.224 27.3076V45.8512C120.224 49.6465 118.597 52.1045 114.404 52.1045C110.066 52.1045 108.258 49.6465 108.258 45.8512V27.3076H112.379V46.2489C112.379 47.6946 112.957 48.6705 114.403 48.6705C115.85 48.6705 116.428 47.6946 116.428 46.2489V27.3076H120.224ZM117.693 25.5722L111.223 26.4038V24.0907L117.693 22.7171V25.5722Z" fill="white"/>
<path d="M121.817 46.538V43.2489H125.649V46.6107C125.649 47.9843 126.263 48.7796 127.673 48.7796C128.974 48.7796 129.553 47.9122 129.553 46.6107V45.6705C129.553 44.2606 128.974 43.3931 127.71 42.2002L125.288 39.7785C122.938 37.4653 121.853 36.0553 121.853 33.2354V32.4037C121.853 29.3674 123.624 27.0178 127.637 27.0178C131.758 27.0178 133.385 29.0418 133.385 32.5843V34.5726H129.626V32.4401C129.626 31.0301 128.975 30.3433 127.674 30.3433C126.517 30.3433 125.722 30.9944 125.722 32.368V32.8741C125.722 34.2477 126.481 35.043 127.674 36.1996L130.313 38.8025C132.554 41.08 133.638 42.4536 133.638 45.1644V46.3573C133.638 49.7192 131.831 52.1045 127.638 52.1045C123.444 52.1045 121.817 49.7549 121.817 46.538Z" fill="white"/>
<path d="M133.891 27.3076H144.844V30.6695H141.446V51.816H137.289V30.6695H133.891V27.3076Z" fill="white"/>
<path d="M150.34 40.5738V51.816H146.219V27.3076H152.22C156.377 27.3076 157.895 29.368 157.895 32.802V35.9468C157.895 38.5862 156.956 40.1404 154.606 40.6823L158.546 51.816H154.208L150.34 40.5738ZM150.34 30.6695V38.2964H151.714C153.124 38.2964 153.738 37.5738 153.738 36.2724V32.6571C153.738 31.3199 153.124 30.6695 151.714 30.6695H150.34Z" fill="white"/>
<path d="M158.691 27.3077H162.812V51.8161H158.691V27.3077Z" fill="white"/>
<path d="M164.005 51.8161L168.632 27.3077H173.331L177.995 51.8161H173.765L173.006 47.334H168.632L167.909 51.8161H164.005ZM169.174 44.0442H172.464L170.837 34.212H170.8L169.174 44.0442Z" fill="white"/>
<path d="M183.382 48.2008L181.285 53.7316H178.972L179.478 47.8759H183.382V48.2008H183.382Z" fill="white"/>
<path d="M188.442 27.3077H192.563V51.8161H188.442V27.3077Z" fill="white"/>
<path d="M197.878 36.4167V51.8154H194.407V27.3071H198.456L202.902 41.3686V27.3071H206.336V51.8154H202.722L197.878 36.4167Z" fill="white"/>
<path d="M208.144 45.49V33.6331C208.144 29.8015 210.024 27.0186 214.362 27.0186C218.736 27.0186 220.616 29.8021 220.616 33.6331V45.49C220.616 49.2853 218.736 52.1046 214.362 52.1046C210.024 52.1046 208.144 49.2853 208.144 45.49ZM216.495 46.1404V32.9827C216.495 31.5006 215.845 30.4525 214.362 30.4525C212.916 30.4525 212.266 31.5006 212.266 32.9827V46.1404C212.266 47.6225 212.916 48.6706 214.362 48.6706C215.845 48.6706 216.495 47.6225 216.495 46.1404Z" fill="white"/>
<path d="M235.617 27.3077L230.954 51.8161H226.471L221.808 27.3077H226.001L228.821 44.4055H228.857L231.749 27.3077H235.617Z" fill="white"/>
<path d="M236.125 51.8161L240.752 27.3077H245.451L250.114 51.8161H245.885L245.126 47.334H240.752L240.029 51.8161H236.125ZM241.294 44.0442H244.583L242.956 34.212H242.92L241.294 44.0442Z" fill="white"/>
<path d="M255.645 54.3099C256.802 54.2735 256.983 54.0207 256.983 53.7316C256.983 53.4782 256.766 53.3339 256.405 53.3339H256.224V51.9967C252.717 51.5633 251.271 48.9246 251.271 45.49V33.6331C251.271 29.8015 253.079 27.0186 257.417 27.0186C261.972 27.0186 263.237 29.5487 263.237 33.1634V36.0548H259.478V32.8378C259.478 31.3194 258.971 30.4519 257.489 30.4519C256.007 30.4519 255.392 31.5 255.392 32.9821V46.1398C255.392 47.6219 256.006 48.67 257.489 48.67C258.971 48.67 259.478 47.7298 259.478 46.284V41.7656H263.237V45.9949C263.237 49.4289 261.863 51.9591 257.778 52.104V52.4295C258.755 52.5737 259.297 52.9356 259.297 53.731C259.297 54.8518 258.248 55.4658 255.646 55.4658V54.3099H255.645Z" fill="white"/>
<path d="M264.285 51.816L268.912 27.3076H273.611L278.274 51.816H274.045L273.286 47.3339H268.912L268.189 51.816H264.285ZM267.502 26.3317C267.574 24.6326 268.225 23.259 270.032 23.259C271.081 23.259 271.948 23.8736 272.491 23.8736C272.78 23.8736 272.997 23.693 272.997 23.3311H275.021C274.949 25.0302 274.298 26.4038 272.491 26.4038C271.442 26.4038 270.575 25.7898 270.033 25.7898C269.743 25.7898 269.526 25.9704 269.526 26.3317H267.502ZM269.454 44.0442H272.743L271.116 34.212H271.08L269.454 44.0442Z" fill="white"/>
<path d="M279.432 45.49V33.6331C279.432 29.8015 281.312 27.0186 285.65 27.0186C290.024 27.0186 291.904 29.8021 291.904 33.6331V45.49C291.904 49.2853 290.024 52.1046 285.65 52.1046C281.312 52.1046 279.432 49.2853 279.432 45.49ZM287.782 46.1404V32.9827C287.782 31.5006 287.132 30.4525 285.65 30.4525C284.203 30.4525 283.553 31.5006 283.553 32.9827V46.1404C283.553 47.6225 284.203 48.6706 285.65 48.6706C287.132 48.6706 287.782 47.6225 287.782 46.1404Z" fill="white"/>
<path d="M74.4229 65.0859H84.2553V68.4478H78.5444V75.4606H82.6289V78.7861H78.5444V86.233H84.2553V89.5943H74.4229V65.0859Z" fill="white"/>
<path d="M89.8955 65.0859H94.0164V89.5943H89.8955V65.0859Z" fill="white"/>
<path d="M99.6921 74.1949V89.5943H96.2217V65.0859H100.27L104.717 79.1474V65.0859H108.152V89.5943H104.536L99.6921 74.1949Z" fill="white"/>
<path d="M110.32 65.0859H119.972V68.4478H114.441V75.4606H118.562V78.7861H114.441V89.5943H110.32L110.32 65.0859Z" fill="white"/>
<path d="M125.72 78.3521V89.5943H121.599V65.0859H127.599C131.757 65.0859 133.274 67.1463 133.274 70.5809V73.7258C133.274 76.3645 132.335 77.9193 129.985 78.4612L133.926 89.5949H129.588L125.72 78.3521ZM125.72 68.4478V76.0747H127.093C128.503 76.0747 129.118 75.3521 129.118 74.05V70.4354C129.118 69.0976 128.503 68.4471 127.093 68.4471H125.72V68.4478Z" fill="white"/>
<path d="M134.686 89.5943L139.313 65.0859H144.012L148.675 89.5943H144.446L143.687 85.1122H139.313L138.591 89.5943H134.686ZM139.855 81.8225H143.145L141.518 71.9896H141.481L139.855 81.8225Z" fill="white"/>
<path d="M150.193 65.0859H160.026V68.4478H154.314V75.4606H158.4V78.7861H154.314V86.233H160.026V89.5943H150.193V65.0859Z" fill="white"/>
<path d="M161.833 84.3169V81.0271H165.665V84.389C165.665 85.7626 166.279 86.5579 167.689 86.5579C168.99 86.5579 169.569 85.6898 169.569 84.389V83.4488C169.569 82.0394 168.99 81.1714 167.726 79.9791L165.304 77.5574C162.954 75.2442 161.87 73.8342 161.87 71.0143V70.1832C161.87 67.1463 163.641 64.7967 167.654 64.7967C171.775 64.7967 173.402 66.8214 173.402 70.3639V72.3521H169.643V70.2196C169.643 68.8096 168.992 68.1228 167.691 68.1228C166.533 68.1228 165.739 68.7732 165.739 70.1475V70.6536C165.739 72.0266 166.498 72.8225 167.691 73.9791L170.329 76.5814C172.571 78.8588 173.655 80.2324 173.655 82.9433V84.1362C173.655 87.4975 171.848 89.8834 167.655 89.8834C163.46 89.8834 161.833 87.5338 161.833 84.3169Z" fill="white"/>
<path d="M175.173 65.0859H186.127V68.4478H182.728V89.5943H178.572V68.4478H175.173V65.0859Z" fill="white"/>
<path d="M191.983 78.3521V89.5943H187.862V65.0859H193.863C198.02 65.0859 199.538 67.1463 199.538 70.5809V73.7258C199.538 76.3645 198.599 77.9193 196.249 78.4612L200.189 89.5949H195.851L191.983 78.3521ZM191.983 68.4478V76.0747H193.357C194.766 76.0747 195.382 75.3521 195.382 74.05V70.4354C195.382 69.0976 194.767 68.4471 193.357 68.4471H191.983V68.4478Z" fill="white"/>
<path d="M213.565 65.0859V83.6295C213.565 87.4254 211.938 89.8834 207.745 89.8834C203.407 89.8834 201.6 87.4254 201.6 83.6295V65.0859H205.72V84.0278C205.72 85.4735 206.298 86.4494 207.745 86.4494C209.191 86.4494 209.769 85.4728 209.769 84.0278V65.0859H213.565Z" fill="white"/>
<path d="M215.264 65.0859H226.217V68.4478H222.819V89.5943H218.662V68.4478H215.264V65.0859Z" fill="white"/>
<path d="M239.917 65.0859V83.6295C239.917 87.4254 238.29 89.8834 234.097 89.8834C229.759 89.8834 227.952 87.4254 227.952 83.6295V65.0859H232.073V84.0278C232.073 85.4735 232.651 86.4494 234.097 86.4494C235.544 86.4494 236.122 85.4728 236.122 84.0278V65.0859H239.917Z" fill="white"/>
<path d="M246.209 78.3521V89.5943H242.088V65.0859H248.089C252.246 65.0859 253.764 67.1463 253.764 70.5809V73.7258C253.764 76.3645 252.824 77.9193 250.475 78.4612L254.415 89.5949H250.077L246.209 78.3521ZM246.209 68.4478V76.0747H247.582C248.992 76.0747 249.606 75.3521 249.606 74.05V70.4354C249.606 69.0976 248.992 68.4471 247.582 68.4471H246.209V68.4478Z" fill="white"/>
<path d="M255.174 89.5943L259.801 65.0859H264.5L269.162 89.5943H264.934L264.175 85.1122H259.8L259.078 89.5943H255.174ZM260.343 81.8225H263.633L262.006 71.9896H261.969L260.343 81.8225Z" fill="white"/>
</svg>
