<svg width="315" height="315" viewBox="0 0 315 315" fill="none" xmlns="http://www.w3.org/2000/svg">
<path d="M314.679 0.389954H0.213867V314.855H314.679V0.389954Z" fill="#5CBA47"/>
<path d="M23.2397 38.2154V49.3425H23.3307L30.8119 41.5838H30.9072V90.1171H41.5675V26.7106H33.0551L23.2397 38.2154Z" fill="white"/>
<path d="M66.9098 46.8222C62.705 46.8222 59.6212 48.3145 57.9326 51.215H57.8372V35.4084H76.1688V26.7162H48.1166V62.4387H57.8372V61.0299C57.8372 57.2932 59.5215 55.2364 62.5131 55.2364C65.7876 55.2364 67.1018 57.4808 67.1018 60.9427V76.277C67.1018 79.6411 65.8842 81.9789 62.6085 81.9789C58.9645 81.9789 57.659 79.5495 57.659 75.8097V67.8621H47.9253V75.0638C47.9253 84.695 51.7612 90.8642 62.6078 90.8642C73.3635 90.8642 77.7565 85.1586 77.7565 76.3686V60.8474C77.7571 50.8405 72.6164 46.8222 66.9098 46.8222Z" fill="white"/>
<path d="M130.435 213.007C130.818 213.007 131.127 213.318 131.127 213.702V236.599C131.127 236.988 130.818 237.295 130.435 237.295H121.169C120.782 237.295 120.471 236.988 120.471 236.599V213.702C120.471 213.318 120.782 213.007 121.169 213.007H130.435Z" fill="white"/>
<path d="M232.197 247.127H79.4917C79.111 247.127 78.7944 247.455 78.7944 247.844V257.176C78.7944 257.557 79.111 257.864 79.4917 257.864L232.197 257.865C232.572 257.865 232.897 257.558 232.897 257.176V247.844C232.897 247.455 232.572 247.127 232.197 247.127Z" fill="white"/>
<path d="M232.197 265.677H79.4917C79.111 265.677 78.7944 265.984 78.7944 266.364V275.726C78.7944 276.101 79.111 276.416 79.4917 276.416H232.197C232.572 276.416 232.897 276.101 232.897 275.726V266.364C232.897 265.984 232.572 265.677 232.197 265.677Z" fill="white"/>
<path d="M203.14 187.66C201.229 186.167 196.14 182.683 189.931 182.683C185.491 182.683 181.361 184.431 177.667 187.894C177.405 188.143 177.259 188.484 177.259 188.852V189.684C177.259 190.093 177.394 190.476 177.697 190.728C178.023 190.978 178.373 191.074 178.768 190.978C178.859 190.966 178.967 190.938 179.057 190.905C179.337 190.806 179.605 190.636 179.818 190.421C180.623 189.883 182.809 189.148 185.936 189.148C189.173 189.148 195.528 190.014 201.671 195.741L201.81 195.869C202.158 196.224 202.635 196.42 203.14 196.42C203.622 196.42 204.119 196.22 204.433 195.88L204.558 195.753C210.733 190.014 217.078 189.148 220.313 189.148C223.462 189.148 225.641 189.883 226.445 190.421C226.664 190.637 226.934 190.811 227.287 190.938C227.425 190.978 227.813 191.058 228.184 190.967C228.749 190.806 229.145 190.297 229.145 189.707V188.971C229.145 188.622 228.993 188.27 228.736 188.026C225.004 184.473 220.833 182.675 216.324 182.675C210.171 182.675 205.101 186.106 203.14 187.66Z" fill="white"/>
<path d="M193.662 126.802C193.336 126.95 193.103 127.249 192.996 127.606L192.842 128.115C192.728 128.516 192.802 128.94 193.042 129.261C193.279 129.572 193.614 129.759 193.986 129.775C194.057 129.784 194.127 129.801 194.18 129.784C194.443 129.775 194.683 129.717 194.916 129.595C195.053 129.568 195.332 129.492 195.841 129.492C196.526 129.492 202.681 129.698 206.752 136.618L206.806 136.715C207.025 137.116 207.37 137.393 207.782 137.5C207.899 137.536 208.126 137.575 208.266 137.575C208.549 137.575 208.835 137.5 209.035 137.385L209.137 137.336C211.366 136.222 213.671 135.648 215.949 135.648C219.807 135.648 222.325 137.223 222.913 137.879C223.033 138.101 223.216 138.295 223.423 138.448C223.555 138.525 223.784 138.639 223.919 138.688C223.992 138.703 224.071 138.713 224.148 138.719C224.187 138.728 224.239 138.728 224.283 138.728C224.491 138.728 224.692 138.675 224.888 138.576C225.201 138.417 225.436 138.133 225.537 137.793L225.665 137.343C225.706 137.228 225.717 137.102 225.717 136.97C225.717 136.733 225.657 136.502 225.541 136.316C222.576 131.165 218.273 130.09 215.183 130.09C212.884 130.09 210.874 130.686 209.686 131.121C208.286 129.241 204.751 125.351 199.389 125.351C197.501 125.351 195.58 125.835 193.662 126.802Z" fill="white"/>
<path d="M161.397 150.292L161.44 150.98C161.461 151.408 161.685 151.78 162.051 152.008C162.352 152.198 162.739 152.264 163.078 152.163C163.15 152.146 163.234 152.12 163.302 152.095C163.562 151.986 163.788 151.818 163.959 151.606C164.608 151.139 166.701 150.284 169.785 150.284C172.749 150.284 177.263 151.076 181.859 154.85L181.966 154.961C182.294 155.244 182.714 155.404 183.145 155.404H183.258C183.739 155.367 184.183 155.146 184.456 154.828L184.559 154.713C189.648 149.328 195.131 148.527 197.945 148.527C199.951 148.527 201.373 148.941 201.926 149.254C202.138 149.436 202.394 149.578 202.718 149.666C202.81 149.687 203.035 149.73 203.278 149.702C203.377 149.691 203.503 149.659 203.6 149.626C204.146 149.435 204.504 148.903 204.466 148.313L204.432 147.716C204.409 147.359 204.242 147.04 203.971 146.807C200.932 144.252 197.657 142.962 194.205 142.962C188.833 142.962 184.551 146.135 182.772 147.693C181.15 146.586 177.209 144.309 172.585 144.309C168.52 144.309 164.88 145.998 161.753 149.315C161.506 149.578 161.382 149.935 161.397 150.292Z" fill="white"/>
<path d="M84.1196 162.55C84.1196 153.407 91.5335 145.997 100.676 145.997C101.033 145.997 101.382 146.028 101.737 146.05C102.608 134.479 112.25 125.352 124.049 125.352C136.421 125.352 146.451 135.379 146.451 147.751C146.451 151.254 145.62 154.555 144.184 157.511C155.398 159.994 163.788 169.977 163.788 181.929C163.788 195.752 152.58 206.962 138.756 206.962C137.745 206.962 105.35 206.766 105.35 206.766C95.5576 206.764 87.624 198.834 87.624 189.044C87.624 184.34 89.466 180.082 92.4569 176.909C87.4807 174.053 84.1196 168.701 84.1196 162.55Z" fill="white"/>
<path d="M114.588 26.7168L109.698 52.4175H104.997L100.107 26.7168H104.504L107.461 44.6469H107.499L110.532 26.7168H114.588Z" fill="white"/>
<path d="M116.749 26.7168H121.071V52.4175H116.749V26.7168Z" fill="white"/>
<path d="M136.879 33.6157V45.5186C136.879 49.461 135.249 52.4175 130.624 52.4175H123.952V26.7168H130.624C135.249 26.7168 136.879 29.636 136.879 33.6157ZM130.094 48.8927C131.875 48.8927 132.558 47.8309 132.558 46.2769V32.82C132.558 31.3034 131.876 30.2423 130.094 30.2423H128.274V48.8927H130.094Z" fill="white"/>
<path d="M139.041 52.4184L143.893 26.7177H148.821L153.711 52.4184H149.276L148.48 47.7177H143.893L143.135 52.4184H139.041ZM144.461 44.2683H147.911L146.205 33.958H146.167L144.461 44.2683Z" fill="white"/>
<path d="M100.22 64.4737H111.707V67.9991H108.143V90.1744H103.784V67.9991H100.22V64.4737Z" fill="white"/>
<path d="M113.64 64.4737H123.951V67.9991H117.961V75.3529H122.245V78.8403H117.961V86.6495H123.951V90.175H113.64V64.4737Z" fill="white"/>
<path d="M130.51 78.3854V90.1744H126.188V64.4737H132.481C136.84 64.4737 138.433 66.6346 138.433 70.2354V73.5334C138.433 76.3006 137.447 77.9306 134.983 78.4995L139.115 90.175H134.566L130.51 78.3854ZM130.51 67.9991V75.9971H131.95C133.429 75.9971 134.073 75.2388 134.073 73.8743V70.0834C134.073 68.6808 133.429 67.9985 131.95 67.9985L130.51 67.9991Z" fill="white"/>
<path d="M145.029 78.3854V90.1744H140.708V64.4737H147C151.36 64.4737 152.952 66.6346 152.952 70.2354V73.5334C152.952 76.3006 151.967 77.9306 149.503 78.4995L153.635 90.175H149.086L145.029 78.3854ZM145.029 67.9991V75.9971H146.469C147.948 75.9971 148.592 75.2388 148.592 73.8743V70.0834C148.592 68.6808 147.948 67.9985 146.469 67.9985L145.029 67.9991Z" fill="white"/>
<path d="M155.227 64.4737H165.538V67.9991H159.549V75.3529H163.832V78.8403H159.549V86.6495H165.538V90.175H155.227V64.4737Z" fill="white"/>
<path d="M167.547 84.6402V81.1907H171.565V84.7162C171.565 86.1561 172.21 86.9905 173.688 86.9905C175.052 86.9905 175.659 86.0807 175.659 84.7162V83.7304C175.659 82.2525 175.052 81.3428 173.726 80.0916L171.186 77.5519C168.722 75.1255 167.585 73.6476 167.585 70.691V69.8193C167.585 66.6353 169.442 64.1716 173.65 64.1716C177.971 64.1716 179.678 66.2944 179.678 70.0093V72.0942H175.735V69.8579C175.735 68.3799 175.052 67.659 173.688 67.659C172.475 67.659 171.641 68.3413 171.641 69.7819V70.3121C171.641 71.7527 172.437 72.5864 173.688 73.7996L176.455 76.5287C178.805 78.9171 179.943 80.3577 179.943 83.2002V84.4507C179.943 87.9762 178.048 90.4779 173.65 90.4779C169.253 90.4779 167.547 88.0142 167.547 84.6402Z" fill="white"/>
<path d="M181.649 64.4737H193.136V67.9991H189.572V90.1744H185.212V67.9991H181.649V64.4737Z" fill="white"/>
<path d="M199.39 78.3854V90.1744H195.068V64.4737H201.362C205.721 64.4737 207.313 66.6346 207.313 70.2354V73.5334C207.313 76.3006 206.328 77.9306 203.864 78.4995L207.996 90.175H203.447L199.39 78.3854ZM199.39 67.9991V75.9971H200.831C202.309 75.9971 202.953 75.2388 202.953 73.8743V70.0834C202.953 68.6808 202.309 67.9985 200.831 67.9985L199.39 67.9991Z" fill="white"/>
<path d="M209.587 64.4737H219.899V67.9991H213.909V75.3529H218.193V78.8403H213.909V86.6495H219.899V90.175H209.587V64.4737Z" fill="white"/>
</svg>
