<?xml version="1.0" encoding="UTF-8" standalone="no"?>
<!-- Created with Inkscape (http://www.inkscape.org/) -->

<svg
   version="1.1"
   id="svg2"
   width="1333.3333"
   height="1333.3333"
   viewBox="0 0 1333.3333 1333.3333"
   sodipodi:docname="Roda_ODS_Vetorizada._AI._Fundo_Transparente._Colorida.ai"
   xmlns:inkscape="http://www.inkscape.org/namespaces/inkscape"
   xmlns:sodipodi="http://sodipodi.sourceforge.net/DTD/sodipodi-0.dtd"
   xmlns="http://www.w3.org/2000/svg"
   xmlns:svg="http://www.w3.org/2000/svg">
  <defs
     id="defs6">
    <clipPath
       clipPathUnits="userSpaceOnUse"
       id="clipPath16">
      <path
         d="M 0,1000 H 1000 V 0 H 0 Z"
         id="path14" />
    </clipPath>
  </defs>
  <sodipodi:namedview
     id="namedview4"
     pagecolor="#ffffff"
     bordercolor="#000000"
     borderopacity="0.25"
     inkscape:showpageshadow="2"
     inkscape:pageopacity="0.0"
     inkscape:pagecheckerboard="0"
     inkscape:deskcolor="#d1d1d1" />
  <g
     id="g8"
     inkscape:groupmode="layer"
     inkscape:label="Roda_ODS_Vetorizada._AI._Fundo_Transparente._Colorida"
     transform="matrix(1.3333333,0,0,-1.3333333,0,1333.3333)">
    <g
       id="g10">
      <g
         id="g12"
         clip-path="url(#clipPath16)">
        <g
           id="g18"
           transform="translate(102.7241,221.7725)">
          <path
             d="m 0,0 c -29.592,41.473 -51.917,86.235 -67.509,134.617 20.71,5.944 41.322,11.862 61.935,17.775 42.286,12.127 84.574,24.249 126.861,36.376 4.357,1.25 8.719,2.485 13.059,3.794 1.756,0.529 2.707,0.212 3.382,-1.712 7.735,-22.058 18.221,-42.747 31.51,-62.453 C 112.887,85.645 56.623,42.958 0,0"
             style="fill:#bd892d;fill-opacity:1;fill-rule:nonzero;stroke:none"
             id="path20" />
        </g>
        <g
           id="g22"
           transform="translate(12.9424,520.4204)">
          <path
             d="M 0,0 V 14.605 C 70.908,8.267 141.46,1.96 211.73,-4.321 c 0.439,-12.414 0.419,-24.436 1.412,-36.375 0.974,-11.72 2.979,-23.352 4.605,-35.576 -67.28,-19.28 -135.104,-38.717 -203.572,-58.337 -0.398,1.406 -0.89,2.796 -1.18,4.226 -2.241,11.052 -4.545,22.093 -6.623,33.176 -1.487,7.922 -2.913,15.872 -3.887,23.867 -0.821,6.75 -0.964,13.583 -1.391,20.38 -0.377,6.002 -0.73,12.005 -1.093,18.008 C 0,-23.301 0,-11.651 0,0"
             style="fill:#3e7c44;fill-opacity:1;fill-rule:nonzero;stroke:none"
             id="path24" />
        </g>
        <g
           id="g26"
           transform="translate(257.6113,81.4063)">
          <path
             d="M 0,0 C 37.53,60.611 74.633,120.534 111.809,180.575 133.392,169.24 155.507,160.613 179.318,155.031 166.248,85.699 153.206,16.518 140.017,-53.444 90.533,-43.008 44.175,-25.035 0,0"
             style="fill:#dc1367;fill-opacity:1;fill-rule:nonzero;stroke:none"
             id="path28" />
        </g>
        <g
           id="g30"
           transform="translate(485.3706,17.6055)">
          <path
             d="m 0,0 c -3.406,0.034 -6.823,-0.092 -10.216,0.137 -5.838,0.393 -11.658,1.041 -17.491,1.514 -3.845,0.313 -7.72,0.337 -11.544,0.795 -5.622,0.674 -11.224,1.544 -16.793,2.555 -0.611,0.11 -1.474,1.774 -1.341,2.573 1.274,7.69 2.659,15.363 4.165,23.011 1.694,8.606 3.671,17.158 5.294,25.778 1.669,8.864 2.94,17.803 4.609,26.667 1.621,8.614 3.604,17.159 5.284,25.763 1.658,8.497 3.114,17.035 4.699,25.547 1.65,8.859 3.353,17.709 5.023,26.564 1.629,8.638 3.278,17.272 4.859,25.918 1.533,8.382 2.933,16.789 4.589,25.146 0.133,0.675 1.819,1.535 2.74,1.486 10.325,-0.547 20.65,-1.905 30.956,-1.749 11.708,0.179 23.401,1.605 35.085,2.653 2.41,0.216 3.607,0.028 4.096,-2.777 2.24,-12.839 4.75,-25.63 7.142,-38.443 3.451,-18.491 6.866,-36.988 10.331,-55.476 C 74.535,101.396 77.635,85.142 80.7,68.88 84.533,48.544 88.351,28.205 92.183,7.869 92.249,7.52 92.414,7.188 92.728,6.29 71.205,2.656 49.748,0.434 28.1,0.008 18.734,0.006 9.367,0.003 0,0"
             style="fill:#fe6923;fill-opacity:1;fill-rule:nonzero;stroke:none"
             id="path32" />
        </g>
        <g
           id="g34"
           transform="translate(248.5454,614.5376)">
          <path
             d="m 0,0 c -8.487,-18.803 -14.324,-37.929 -18.492,-57.583 -0.443,-2.087 -0.706,-4.213 -1.041,-6.323 -0.641,-4.041 -2.186,-4.899 -6.115,-4.306 -4.886,0.738 -9.846,0.972 -14.763,1.514 -3.933,0.434 -7.845,1.054 -11.777,1.499 -3.337,0.378 -6.686,0.679 -10.037,0.916 -6.945,0.491 -13.906,0.783 -20.838,1.405 -6.9,0.62 -13.764,1.627 -20.66,2.303 -4.084,0.402 -8.207,0.389 -12.296,0.751 -4.316,0.383 -8.61,1.018 -12.919,1.49 -3.091,0.338 -6.187,0.648 -9.289,0.868 -7.06,0.5 -14.137,0.809 -21.186,1.434 -6.907,0.612 -13.787,1.538 -20.683,2.289 -3.086,0.336 -6.178,0.64 -9.274,0.856 -7.064,0.494 -14.141,0.807 -21.193,1.413 -7.251,0.623 -14.479,1.505 -21.59,2.261 6.457,50.361 20.535,97.962 42.025,143.822 C -126.766,63.08 -63.517,31.606 0,0"
             style="fill:#0995d8;fill-opacity:1;fill-rule:nonzero;stroke:none"
             id="path36" />
        </g>
        <g
           id="g38"
           transform="translate(612.7559,752.3496)">
          <path
             d="M 0,0 C 25.501,66.163 50.848,131.927 76.35,198.094 122.847,178.337 165.085,151.883 203.626,118.907 155.776,66.732 108.06,14.702 60.095,-37.599 41.51,-22.423 21.42,-10.125 0,0"
             style="fill:#dca539;fill-opacity:1;fill-rule:nonzero;stroke:none"
             id="path40" />
        </g>
        <g
           id="g42"
           transform="translate(290.4033,325.9434)">
          <path
             d="m 0,0 c 15.863,-18.406 33.275,-34.122 53.029,-48.052 -37.196,-60.092 -74.374,-120.153 -111.717,-180.481 -20.959,13.726 -40.31,28.992 -58.782,45.353 -18.828,16.677 -35.739,35.219 -51.844,54.815 C -112.957,-85.638 -56.607,-42.916 0,0"
             style="fill:#fe9e23;fill-opacity:1;fill-rule:nonzero;stroke:none"
             id="path44" />
        </g>
        <g
           id="g46"
           transform="translate(306.2715,697.7886)">
          <path
             d="m 0,0 c -17.383,-16.901 -31.417,-35.552 -43.767,-56.074 -6.359,3.069 -12.597,5.993 -18.76,9.068 -30.999,15.461 -61.962,30.993 -92.968,46.438 -24.865,12.386 -49.752,24.731 -74.694,36.96 -3.153,1.545 -3.906,2.816 -1.843,5.978 10.95,16.781 21.432,33.874 32.667,50.46 5.674,8.377 12.353,16.119 19.003,23.78 11.836,13.636 23.995,26.991 36.46,40.959 C -95.544,104.619 -47.882,52.429 0,0"
             style="fill:#55c12b;fill-opacity:1;fill-rule:nonzero;stroke:none"
             id="path48" />
        </g>
        <g
           id="g50"
           transform="translate(659.5098,281.0693)">
          <path
             d="m 0,0 c 9.315,7.78 18.593,14.86 27.071,22.794 8.603,8.051 16.416,16.944 24.806,25.71 C 108.085,6.178 164.39,-36.222 220.661,-78.595 207.623,-101.301 140.476,-163.674 111.428,-180.19 74.291,-120.135 37.152,-60.078 0,0"
             style="fill:#fac20a;fill-opacity:1;fill-rule:nonzero;stroke:none"
             id="path52" />
        </g>
        <g
           id="g54"
           transform="translate(485.9233,988.9395)">
          <path
             d="m 0,0 v -212.227 c -23.403,-1.242 -46.598,-4.825 -69.403,-12.263 -25.603,65.963 -51.143,131.765 -76.816,197.909 C -99.212,-10.235 -50.487,-1.545 0,0"
             style="fill:#18476a;fill-opacity:1;fill-rule:nonzero;stroke:none"
             id="path56" />
        </g>
        <g
           id="g58"
           transform="translate(568.5918,238.002)">
          <path
             d="m 0,0 c 8.447,2.85 17.145,5.216 25.373,8.691 12.726,5.374 25.172,11.418 37.63,17.403 2.147,1.031 2.666,-0.013 3.461,-1.3 5.863,-9.483 11.702,-18.982 17.563,-28.467 16.132,-26.106 32.27,-52.209 48.41,-78.31 14.627,-23.658 29.26,-47.312 44.173,-71.421 -2.365,-1.416 -4.734,-2.911 -7.173,-4.283 -24.092,-13.559 -48.958,-25.514 -75.19,-34.292 -17.011,-5.691 -34.385,-10.295 -51.575,-15.458 -2.942,-0.883 -3.657,-0.227 -4.165,2.996 -1.583,10.04 -3.89,19.963 -5.79,29.956 -1.65,8.677 -3.064,17.4 -4.701,26.08 -1.664,8.817 -3.518,17.598 -5.207,26.41 -1.642,8.563 -3.155,17.151 -4.772,25.719 -1.685,8.932 -3.476,17.845 -5.136,26.783 -1.613,8.689 -3.049,17.412 -4.688,26.097 -1.66,8.808 -3.516,17.579 -5.202,26.382 C 1.942,-11.436 1.025,-5.827 0,0"
             style="fill:#a01842;fill-opacity:1;fill-rule:nonzero;stroke:none"
             id="path60" />
        </g>
        <g
           id="g62"
           transform="translate(982.334,563.6768)">
          <path
             d="m 0,0 c -7.022,-0.744 -13.193,-1.39 -19.361,-2.053 -4.44,-0.477 -8.876,-0.989 -13.316,-1.464 -3.084,-0.33 -6.172,-0.63 -9.26,-0.931 -7.776,-0.757 -15.546,-1.576 -23.331,-2.238 -6.427,-0.546 -12.884,-0.766 -19.305,-1.378 -6.913,-0.66 -13.786,-1.732 -20.699,-2.393 -6.55,-0.626 -13.14,-0.833 -19.692,-1.441 -6.789,-0.63 -13.551,-1.547 -20.331,-2.285 -3.335,-0.363 -6.685,-0.588 -10.025,-0.909 -7.648,-0.737 -15.287,-1.56 -22.941,-2.223 -6.303,-0.547 -12.625,-0.879 -18.932,-1.373 -3.981,-0.312 -8.033,-0.391 -11.899,-1.257 -2.393,-0.535 -2.877,-0.439 -3.288,2.088 -2.797,17.2 -7.298,33.989 -12.919,50.47 -1.672,4.903 -3.84,9.637 -5.873,14.677 7.654,3.871 15.558,7.925 23.511,11.876 21.03,10.448 42.101,20.814 63.122,31.281 32.417,16.14 64.809,32.333 97.205,48.514 6.303,3.149 6.251,3.154 9.127,-3.314 C -25.63,107.367 -15.816,78.14 -9.032,47.965 -5.52,32.339 -3.065,16.476 0,0"
             style="fill:#c4182c;fill-opacity:1;fill-rule:nonzero;stroke:none"
             id="path64" />
        </g>
        <g
           id="g66"
           transform="translate(738.1689,638.291)">
          <path
             d="m 0,0 c -6.849,9.994 -13.143,19.913 -20.192,29.261 -7.024,9.312 -14.805,18.051 -22.241,27.026 3.633,4.107 7.537,8.621 11.553,13.031 4.237,4.653 8.619,9.175 12.873,13.812 4.141,4.514 8.162,9.137 12.307,13.647 4.343,4.728 8.805,9.345 13.147,14.074 3.97,4.323 7.812,8.765 11.777,13.093 4.335,4.732 8.778,9.365 13.117,14.095 4.31,4.699 8.538,9.474 12.823,14.196 3.038,3.348 6.109,6.663 9.167,9.993 5.858,6.377 11.678,12.792 17.586,19.122 7.198,7.712 14.507,15.32 21.692,23.043 2.359,2.534 4.483,5.286 6.892,8.15 35.803,-35.237 65.464,-74.207 89.012,-118.028 C 126.146,62.912 62.894,31.366 0,0"
             style="fill:#4b9e38;fill-opacity:1;fill-rule:nonzero;stroke:none"
             id="path68" />
        </g>
        <g
           id="g70"
           transform="translate(772.9209,512.3389)">
          <path
             d="m 0,0 c 3.48,0.628 6.937,1.497 10.444,1.845 18.448,1.833 36.905,3.564 55.364,5.272 14.956,1.384 29.924,2.628 44.877,4.041 17.065,1.613 34.117,3.37 51.179,5.015 15.941,1.538 31.884,3.041 47.839,4.413 0.673,0.058 2.109,-1.363 2.12,-2.112 0.217,-13.518 0.361,-27.04 0.313,-40.561 -0.021,-6.059 -0.238,-12.141 -0.816,-18.169 -1.357,-14.146 -2.559,-28.331 -4.623,-42.382 -2.145,-14.605 -5.23,-29.072 -7.931,-43.748 -18.417,5.377 -36.163,10.636 -53.956,15.731 -16.706,4.782 -33.483,9.315 -50.188,14.1 -14.226,4.076 -28.37,8.438 -42.595,12.517 -14.827,4.253 -29.709,8.314 -44.563,12.472 -3.741,1.045 -7.473,2.123 -11.202,3.21 -3.314,0.965 -1.807,3.12 -1.484,5.259 1.349,8.929 2.551,17.882 3.645,26.845 0.675,5.536 1.059,11.106 1.575,16.664 C -0.001,-13.058 -0.001,-6.529 0,0"
             style="fill:#fe3920;fill-opacity:1;fill-rule:nonzero;stroke:none"
             id="path72" />
        </g>
        <g
           id="g74"
           transform="translate(387.9863,753.769)">
          <path
             d="m 0,0 c -20.987,-9.498 -40.573,-21.054 -59.009,-35.792 -5.246,5.898 -10.447,11.771 -15.678,17.615 -2.926,3.268 -5.868,6.523 -8.864,9.726 -7.113,7.605 -14.313,15.128 -21.384,22.772 -7.819,8.454 -15.529,17.009 -23.294,25.513 -8.193,8.973 -16.398,17.935 -24.592,26.908 -7.765,8.504 -15.54,17.001 -23.278,25.53 -8.668,9.556 -17.3,19.145 -26.093,28.879 18.643,15.856 38.572,30.261 59.598,43.104 20.967,12.806 42.711,24.13 65.858,33.417 C -51.079,131.58 -25.626,66.013 0,0"
             style="fill:#00689c;fill-opacity:1;fill-rule:nonzero;stroke:none"
             id="path76" />
        </g>
        <g
           id="g78"
           transform="translate(516.7441,776.4575)">
          <path
             d="m 0,0 v 212.227 c 49.42,-1.786 97.299,-10.736 143.958,-27.26 -8.712,-22.633 -17.306,-44.992 -25.924,-67.342 C 106.265,87.103 94.462,56.592 82.704,26.065 78.041,13.96 73.402,1.846 68.888,-10.314 68.002,-12.699 66.606,-12.8 64.597,-12.282 53.079,-9.315 41.62,-6.075 30.006,-3.551 23.555,-2.149 16.839,-1.97 10.244,-1.223 6.936,-0.848 3.632,-0.435 0,0"
             style="fill:#e71f39;fill-opacity:1;fill-rule:nonzero;stroke:none"
             id="path80" />
        </g>
        <g
           id="g82"
           transform="translate(962.9824,356.9287)">
          <path
             d="m 0,0 c -15.142,-46.842 -36.311,-90.096 -64.382,-130.32 -56.767,42.762 -113.298,85.346 -169.726,127.853 12.651,19.198 22.383,39.564 29.941,61.073 C -135.967,39.029 -68.145,19.561 0,0"
             style="fill:#25bbe0;fill-opacity:1;fill-rule:nonzero;stroke:none"
             id="path84" />
        </g>
      </g>
    </g>
  </g>
</svg>
