<svg width="517" height="310" viewBox="0 0 517 310" fill="none" xmlns="http://www.w3.org/2000/svg">
<path d="M6.2427 139.059C-2.00878 147.21 -2.09085 160.506 6.05938 168.757L138.875 303.223C147.025 311.474 160.322 311.556 168.573 303.406C176.824 295.256 176.907 281.96 168.756 273.708L50.6979 154.183L170.223 36.1249C178.474 27.9747 178.556 14.6785 170.406 6.42701C162.256 -1.82447 148.96 -1.90654 140.708 6.24369L6.2427 139.059ZM495.861 177.932C507.459 178.003 516.919 168.659 516.991 157.062C517.062 145.464 507.718 136.004 496.121 135.932L495.861 177.932ZM20.8704 175L495.861 177.932L496.121 135.932L21.1296 133L20.8704 175Z" fill="#4C4C4C"/>
</svg>
