<svg width="800" height="800" viewBox="0 0 800 800" fill="none" xmlns="http://www.w3.org/2000/svg">
<path fill-rule="evenodd" clip-rule="evenodd" d="M650 200H150C136.2 200 125 188.825 125 175C125 161.2 136.2 150 150 150H650C663.8 150 675 161.2 675 175C675 188.825 663.8 200 650 200ZM625 700C625 727.6 602.6 750 575 750H225C197.4 750 175 727.6 175 700V250H625V700ZM325 75C325 61.175 336.2 50 350 50H450C463.8 50 475 61.175 475 75V100H325V75ZM675 100H525V50C525 22.4 502.6 0 475 0H325C297.4 0 275 22.4 275 50V100H125C97.4 100 75 122.4 75 150V200C75 227.6 97.4 250 125 250V700C125 755.225 169.775 800 225 800H575C630.225 800 675 755.225 675 700V250C702.6 250 725 227.6 725 200V150C725 122.4 702.6 100 675 100ZM400 700C413.8 700 425 688.825 425 675V375C425 361.2 413.8 350 400 350C386.2 350 375 361.2 375 375V675C375 688.825 386.2 700 400 700ZM275 700C288.8 700 300 688.825 300 675V375C300 361.2 288.8 350 275 350C261.2 350 250 361.2 250 375V675C250 688.825 261.2 700 275 700ZM525 700C538.8 700 550 688.825 550 675V375C550 361.2 538.8 350 525 350C511.2 350 500 361.2 500 375V675C500 688.825 511.2 700 525 700Z" fill="white"/>
</svg>
