<svg width="315" height="315" viewBox="0 0 315 315" fill="none" xmlns="http://www.w3.org/2000/svg">
<path d="M315 0.45282H0.534668V314.918H315V0.45282Z" fill="#BE8B2C"/>
<path d="M31.9257 41.7736H32.0211V90.3086H42.6817V26.9074H34.1625L24.3491 38.4081V49.5374H24.4407L31.9257 41.7736Z" fill="white"/>
<path d="M49.0365 40.0005V47.6664H58.7621V39.7156C58.7621 35.8852 60.6339 34.7615 62.8764 34.7615C64.937 34.7615 66.712 35.6022 66.712 39.5331V44.7664C66.712 50.0054 66.2465 52.0608 62.7803 55.7074L56.8001 62.0676C51.0024 68.2409 48.8457 72.3562 48.8457 78.6235V90.3124H76.5331V81.6132H59.0407V78.6235C59.0407 73.6656 60.8189 71.7953 63.5295 68.8959L70.3576 61.6969C75.8767 55.8054 77.0947 52.0608 77.0947 45.7025V39.5331C77.0947 30.4592 72.7012 26.1595 63.1594 26.1595C53.8039 26.1595 49.0365 31.1162 49.0365 40.0005Z" fill="white"/>
<path d="M243.891 168.906C231.067 158.778 215.688 157.687 209.671 157.687C206.5 157.687 203.563 157.97 201.412 158.481L200.569 158.677C192.446 160.595 178.851 163.804 163.025 183.445L162.561 184.022C162.3 184.395 162.164 184.795 162.164 185.209C162.164 185.568 162.254 185.912 162.443 186.252L162.802 186.842C165.414 191.208 167.587 195.004 169.311 198.226C169.929 199.423 171.58 199.812 172.696 198.699C172.805 198.554 172.918 198.402 172.992 198.284C186.661 179.378 197.375 176.859 204.463 175.193L205.341 174.985C206.318 174.751 207.9 174.617 209.683 174.617C212.979 174.617 224.434 175.165 233.371 182.222C241.323 188.495 245.356 198.52 245.356 212.016C245.356 234.63 234.414 243.449 225.232 246.869C221.73 248.177 217.956 248.841 214.012 248.841C204.558 248.841 197.279 245.059 197.184 245.007L196.527 244.688C188.631 241.258 176.84 234.113 165.695 211.73C142.845 165.84 123.65 161.491 110.94 158.611L110.273 158.463C109.3 158.243 106.551 157.728 102.082 157.728C94.7228 157.728 80.5649 159.177 68.4308 168.861C60.1463 175.467 50.2681 188.304 50.2681 211.924C50.2681 226.316 53.2299 235.821 60.8313 245.818C62.261 247.768 75.5024 264.867 100.926 264.867C104.695 264.867 108.6 264.486 112.536 263.73C117.178 262.841 124.342 260.548 132.34 254.678L139.025 260.709C139.772 261.392 141.065 261.322 141.737 260.583C142.064 260.237 142.237 259.772 142.22 259.314L147.39 227.467L147.393 227.094C147.386 226.553 147.15 226.035 146.772 225.707C146.432 225.384 145.995 225.213 145.431 225.213H145.418L114.411 233.783L113.821 233.88C113.43 233.967 113.085 234.167 112.835 234.453C112.484 234.838 112.304 235.334 112.333 235.856C112.36 236.371 112.591 236.846 112.966 237.18L119.392 242.988C116.013 245.061 112.638 246.431 109.354 247.067C106.559 247.601 103.79 247.872 101.129 247.872C83.5605 247.872 74.9148 236.342 74.558 235.854L74.3843 235.616C69.0388 228.595 67.2338 222.617 67.2338 211.924C67.2338 198.387 71.1974 188.356 79.0105 182.115C87.7071 175.178 98.8956 174.638 102.121 174.638C103.883 174.638 105.486 174.773 106.514 175.006L107.2 175.161C117.346 177.457 131.238 180.601 150.501 219.29C160.675 239.714 173.432 253.076 189.467 260.119C191.333 261.07 201.278 265.814 214.028 265.814C219.98 265.814 225.743 264.791 231.165 262.774C240.531 259.278 262.322 247.334 262.322 212.017C262.323 188.414 252.299 175.547 243.891 168.906Z" fill="white"/>
<path d="M100.923 45.8234V33.3879C100.923 29.3692 102.819 26.4495 107.369 26.4495C112.146 26.4495 113.473 29.1034 113.473 32.895V35.9279H109.53V32.5535C109.53 30.961 108.999 30.0516 107.444 30.0516C105.89 30.0516 105.246 31.1512 105.246 32.7055V46.5058C105.246 48.06 105.891 49.1596 107.444 49.1596C108.999 49.1596 109.53 48.1739 109.53 46.6578V41.9186H113.473V46.3544C113.473 50.0321 111.957 52.7617 107.369 52.7617C102.819 52.7617 100.923 49.8038 100.923 45.8234Z" fill="white"/>
<path d="M115.783 45.8234V33.3879C115.783 29.3692 117.754 26.4495 122.304 26.4495C126.892 26.4495 128.864 29.3686 128.864 33.3879V45.8234C128.864 49.8038 126.892 52.7617 122.304 52.7617C117.754 52.7617 115.783 49.8038 115.783 45.8234ZM124.542 46.5058V32.7055C124.542 31.1512 123.859 30.0516 122.304 30.0516C120.788 30.0516 120.105 31.1512 120.105 32.7055V46.5058C120.105 48.06 120.787 49.1596 122.304 49.1596C123.859 49.1596 124.542 48.06 124.542 46.5058Z" fill="white"/>
<path d="M134.928 36.3068V52.4576H131.288V26.7521H135.535L140.198 41.5007V26.7528H143.8V52.4582H140.009L134.928 36.3068Z" fill="white"/>
<path d="M145.998 46.9228V43.4728H150.017V46.9985C150.017 48.439 150.661 49.2734 152.14 49.2734C153.505 49.2734 154.111 48.3633 154.111 46.9985V46.0128C154.111 44.5342 153.505 43.6241 152.177 42.3732L149.637 39.8332C147.173 37.407 146.035 35.9278 146.035 32.9712V32.0993C146.035 28.9144 147.893 26.4501 152.102 26.4501C156.424 26.4501 158.13 28.5729 158.13 32.2888V34.3741H154.187V32.1375C154.187 30.6588 153.505 29.9383 152.14 29.9383C150.926 29.9383 150.093 30.6207 150.093 32.0618V32.5922C150.093 34.0326 150.889 34.867 152.14 36.0798L154.908 38.8093C157.258 41.1979 158.395 42.6384 158.395 45.4824V46.7333C158.395 50.2591 156.5 52.7616 152.102 52.7616C147.703 52.7616 145.998 50.2972 145.998 46.9228Z" fill="white"/>
<path d="M173.181 26.7528V46.203C173.181 50.1834 171.475 52.7616 167.077 52.7616C162.527 52.7616 160.631 50.1834 160.631 46.203V26.7528H164.953V46.6195C164.953 48.1357 165.56 49.1596 167.077 49.1596C168.594 49.1596 169.2 48.1357 169.2 46.6195V26.7528H173.181Z" fill="white"/>
<path d="M187.512 35.7764H187.398L184.478 52.4583H182.469L179.247 35.7764H179.171V52.4583H175.607V26.7528H180.65L183.456 41.2355H183.494L185.997 26.7528H191.457V52.4583H187.513V35.7764H187.512Z" fill="white"/>
<path d="M193.879 45.8234V33.3879C193.879 29.3692 195.852 26.4495 200.401 26.4495C204.989 26.4495 206.96 29.3686 206.96 33.3879V45.8234C206.96 49.8038 204.988 52.7617 200.401 52.7617C195.852 52.7617 193.879 49.8038 193.879 45.8234ZM202.638 46.5058V32.7055C202.638 31.1512 201.956 30.0516 200.401 30.0516C198.884 30.0516 198.202 31.1512 198.202 32.7055V46.5058C198.202 48.06 198.884 49.1596 200.401 49.1596C201.955 49.1596 202.638 48.06 202.638 46.5058Z" fill="white"/>
<path d="M213.327 26.7528H223.64V30.2792H217.65V37.6341H221.934V41.1223H217.65V48.9325H223.64V52.4583H213.327V26.7528Z" fill="white"/>
<path d="M100.923 64.511H107.33C111.691 64.511 113.283 66.6719 113.283 70.274V75.6955C113.283 79.2976 111.691 81.4961 107.33 81.4961H105.245V90.2164H100.923V64.511ZM105.245 68.0367V78.1593H106.838C108.316 78.1593 108.961 77.4387 108.961 76.0364V70.122C108.961 68.7191 108.316 68.0367 106.838 68.0367H105.245Z" fill="white"/>
<path d="M120.22 78.4251V90.2158H115.898V64.5103H122.192C126.552 64.5103 128.145 66.6713 128.145 70.2734V73.5715C128.145 76.3392 127.159 77.9697 124.694 78.5383L128.827 90.2158H124.277L120.22 78.4251ZM120.22 68.0367V76.0364H121.661C123.14 76.0364 123.784 75.2784 123.784 73.9136V70.122C123.784 68.7191 123.139 68.0367 121.661 68.0367H120.22Z" fill="white"/>
<path d="M130.872 83.5814V71.1458C130.872 67.1272 132.844 64.2075 137.394 64.2075C141.982 64.2075 143.953 67.1266 143.953 71.1458V83.5814C143.953 87.5618 141.982 90.5197 137.394 90.5197C132.844 90.5197 130.872 87.5625 130.872 83.5814ZM139.63 84.2638V70.4635C139.63 68.9092 138.948 67.8096 137.393 67.8096C135.877 67.8096 135.194 68.9092 135.194 70.4635V84.2638C135.194 85.818 135.877 86.9176 137.393 86.9176C138.948 86.9176 139.63 85.818 139.63 84.2638Z" fill="white"/>
<path d="M159.723 71.4111V83.3162C159.723 87.2592 158.093 90.2164 153.467 90.2164H146.794V64.511H153.467C158.093 64.511 159.723 67.4306 159.723 71.4111ZM152.937 86.6906C154.719 86.6906 155.401 85.6292 155.401 84.0749V70.6155C155.401 69.0988 154.719 68.0373 152.937 68.0373H151.117V86.6906H152.937Z" fill="white"/>
<path d="M175.115 64.511V83.9605C175.115 87.9409 173.408 90.5197 169.01 90.5197C164.46 90.5197 162.564 87.9415 162.564 83.9605V64.511H166.887V84.3776C166.887 85.8938 167.493 86.9177 169.01 86.9177C170.527 86.9177 171.133 85.8938 171.133 84.3776V64.511H175.115Z" fill="white"/>
<path d="M182.545 92.832C183.758 92.7939 183.948 92.5287 183.948 92.2253C183.948 91.9595 183.72 91.8081 183.341 91.8081H183.152V90.4052C179.474 89.9505 177.957 87.1828 177.957 83.5814V71.1458C177.957 67.1272 179.854 64.2075 184.403 64.2075C189.18 64.2075 190.508 66.8614 190.508 70.653V73.6859H186.565V70.3115C186.565 68.719 186.034 67.809 184.479 67.809C182.925 67.809 182.281 68.9085 182.281 70.4628V84.2631C182.281 85.8174 182.925 86.917 184.479 86.917C186.034 86.917 186.565 85.9312 186.565 84.4145V79.6753H190.508V84.1111C190.508 87.7132 189.067 90.3664 184.783 90.5184V90.8599C185.806 91.0113 186.375 91.391 186.375 92.2247C186.375 93.3999 185.275 94.0442 182.545 94.0442V92.832Z" fill="white"/>
<path d="M192.553 90.2165L197.406 64.511H202.335L207.226 90.2165H202.79L201.993 85.5148H197.405L196.647 90.2165H192.553ZM195.927 63.4878C196.004 61.7058 196.685 60.2654 198.582 60.2654C199.681 60.2654 200.591 60.9102 201.16 60.9102C201.464 60.9102 201.691 60.7207 201.691 60.3411H203.814C203.739 62.123 203.056 63.5634 201.16 63.5634C200.061 63.5634 199.151 62.9192 198.582 62.9192C198.278 62.9192 198.051 63.1087 198.051 63.4878H195.927ZM197.975 82.0654H201.425L199.718 71.7527H199.68L197.975 82.0654Z" fill="white"/>
<path d="M209.385 83.5814V71.1458C209.385 67.1272 211.357 64.2075 215.907 64.2075C220.495 64.2075 222.466 67.1266 222.466 71.1458V83.5814C222.466 87.5618 220.494 90.5197 215.907 90.5197C211.357 90.5197 209.385 87.5625 209.385 83.5814ZM218.144 84.2638V70.4635C218.144 68.9092 217.461 67.8096 215.907 67.8096C214.39 67.8096 213.708 68.9092 213.708 70.4635V84.2638C213.708 85.818 214.39 86.9176 215.907 86.9176C217.461 86.9176 218.144 85.818 218.144 84.2638Z" fill="white"/>
<path d="M105.245 116.183V127.973H100.923V102.268H107.217C111.577 102.268 113.17 104.429 113.17 108.031V111.33C113.17 114.097 112.184 115.728 109.719 116.296L113.852 127.974H109.302L105.245 116.183ZM105.245 105.795V113.795H106.686C108.165 113.795 108.809 113.037 108.809 111.672V107.88C108.809 106.478 108.164 105.795 106.686 105.795H105.245Z" fill="white"/>
<path d="M115.631 102.269H125.945V105.794H119.954V113.149H124.239V116.637H119.954V124.448H125.945V127.973H115.631V102.269Z" fill="white"/>
<path d="M128.143 122.439V118.988H132.161V122.514C132.161 123.955 132.806 124.789 134.284 124.789C135.649 124.789 136.256 123.879 136.256 122.514V121.528C136.256 120.05 135.649 119.14 134.322 117.889L131.782 115.349C129.317 112.922 128.179 111.443 128.179 108.486V107.614C128.179 104.429 130.037 101.965 134.246 101.965C138.568 101.965 140.275 104.088 140.275 107.804V109.889H136.332V107.652C136.332 106.174 135.649 105.453 134.284 105.453C133.071 105.453 132.237 106.136 132.237 107.577V108.108C132.237 109.548 133.033 110.383 134.284 111.595L137.052 114.326C139.403 116.714 140.54 118.155 140.54 120.999V122.25C140.54 125.775 138.645 128.278 134.246 128.278C129.849 128.277 128.143 125.813 128.143 122.439Z" fill="white"/>
<path d="M142.927 102.269H149.335C153.695 102.269 155.288 104.43 155.288 108.032V113.453C155.288 117.055 153.695 119.254 149.335 119.254H147.249V127.974H142.927V102.269ZM147.25 105.795V115.917H148.843C150.321 115.917 150.966 115.197 150.966 113.795V107.88C150.966 106.478 150.321 105.795 148.843 105.795H147.25Z" fill="white"/>
<path d="M157.637 121.339V108.903C157.637 104.885 159.609 101.965 164.159 101.965C168.747 101.965 170.718 104.884 170.718 108.903V121.339C170.718 125.319 168.747 128.277 164.159 128.277C159.609 128.277 157.637 125.32 157.637 121.339ZM166.395 122.021V108.221C166.395 106.667 165.713 105.567 164.158 105.567C162.641 105.567 161.959 106.667 161.959 108.221V122.021C161.959 123.576 162.641 124.675 164.158 124.675C165.713 124.676 166.395 123.576 166.395 122.021Z" fill="white"/>
<path d="M176.933 111.823V127.974H173.293V102.269H177.54L182.203 117.017V102.269H185.806V127.974H182.014L176.933 111.823Z" fill="white"/>
<path d="M188.155 122.439V118.988H192.174V122.514C192.174 123.955 192.819 124.789 194.297 124.789C195.662 124.789 196.269 123.879 196.269 122.514V121.528C196.269 120.05 195.662 119.14 194.335 117.889L191.795 115.349C189.33 112.922 188.193 111.443 188.193 108.486V107.614C188.193 104.429 190.051 101.965 194.259 101.965C198.582 101.965 200.288 104.088 200.288 107.804V109.889H196.344V107.652C196.344 106.174 195.662 105.453 194.297 105.453C193.084 105.453 192.249 106.136 192.249 107.577V108.108C192.249 109.548 193.046 110.383 194.297 111.595L197.065 114.326C199.416 116.714 200.553 118.155 200.553 120.999V122.25C200.553 125.775 198.658 128.278 194.259 128.278C189.861 128.277 188.155 125.813 188.155 122.439Z" fill="white"/>
<path d="M202.258 127.974L207.111 102.269H212.04L216.931 127.974H212.495L211.699 123.272H207.11L206.352 127.974H202.258ZM213.102 100.449L206.315 101.321V98.8948L213.102 97.4543V100.449ZM207.68 119.823H211.13L209.424 109.51H209.385L207.68 119.823Z" fill="white"/>
<path d="M232.664 102.269L227.773 127.974H223.071L218.18 102.269H222.579L225.535 120.202H225.574L228.607 102.269H232.664Z" fill="white"/>
<path d="M234.557 102.269H244.87V105.794H238.88V113.149H243.164V116.637H238.88V124.448H244.87V127.973H234.557V102.269Z" fill="white"/>
<path d="M247.294 102.269H251.617V127.974H247.294V102.269Z" fill="white"/>
<path d="M254.005 122.439V118.988H258.024V122.514C258.024 123.955 258.669 124.789 260.147 124.789C261.512 124.789 262.119 123.879 262.119 122.514V121.528C262.119 120.05 261.512 119.14 260.185 117.889L257.645 115.349C255.18 112.922 254.043 111.443 254.043 108.486V107.614C254.043 104.429 255.901 101.965 260.109 101.965C264.432 101.965 266.138 104.088 266.138 107.804V109.889H262.195V107.652C262.195 106.174 261.512 105.453 260.147 105.453C258.934 105.453 258.099 106.136 258.099 107.577V108.108C258.099 109.548 258.896 110.383 260.147 111.595L262.915 114.326C265.266 116.714 266.403 118.155 266.403 120.999V122.25C266.403 125.775 264.508 128.278 260.109 128.278C255.711 128.277 254.005 125.813 254.005 122.439Z" fill="white"/>
</svg>
