<svg width="315" height="315" viewBox="0 0 315 315" fill="none" xmlns="http://www.w3.org/2000/svg">
<path d="M314.786 0.389954H0.320801V314.855H314.786V0.389954Z" fill="#07699E"/>
<path d="M24.5151 38.2704V49.3977H24.6106L32.0908 41.6369H32.1863V90.1698H42.8463V26.7661H34.3388L24.5151 38.2704Z" fill="white"/>
<path d="M80.1616 74.9304V65.5779C80.1616 55.1988 76.0474 49.9591 68.3799 49.9591C63.8875 49.9591 61.1777 52.0161 59.5896 55.1039H59.4977V41.4508C59.4977 37.6148 60.7076 34.9034 64.5473 34.9034C68.3799 34.9034 69.5015 37.1477 69.5015 41.0725V45.2897H79.2261V41.9179C79.2261 32.5654 76.1441 26.0216 64.3558 26.0216C53.1349 26.0216 48.9253 33.2217 48.9253 43.1349V73.9932C48.9253 83.8115 53.2304 90.9191 64.4513 90.9191C75.7652 90.9197 80.1616 84.7482 80.1616 74.9304ZM69.594 75.8634C69.594 79.8837 68.0977 82.2217 64.4525 82.2217C60.8991 82.2217 59.4983 79.7925 59.4983 75.8634V64.2685C59.682 60.7159 61.1783 58.4692 64.5479 58.4692C68.1896 58.4692 69.594 60.7159 69.594 64.831V75.8634Z" fill="white"/>
<path d="M220.417 107.609C220.417 107.609 216.793 112.424 217.846 117.112C218.908 121.804 224.255 124.593 224.255 124.593C224.255 124.593 227.881 119.78 226.823 115.091C225.766 110.399 220.417 107.609 220.417 107.609Z" fill="white"/>
<path d="M214.511 135.097C214.511 135.097 218.135 130.281 217.077 125.591C216.016 120.898 210.673 118.114 210.673 118.114C210.673 118.114 207.045 122.922 208.098 127.615C209.162 132.306 214.511 135.097 214.511 135.097Z" fill="white"/>
<path d="M229.406 129.942C229.406 129.942 233.234 133.804 237.591 133.415C241.951 133.028 245.183 128.543 245.183 128.543C245.183 128.543 241.36 124.683 236.998 125.071C232.639 125.457 229.406 129.942 229.406 129.942Z" fill="white"/>
<path d="M235.678 109.323C232.13 112.924 232.632 119.29 232.632 119.29C232.632 119.29 238.883 119.831 242.437 116.237C245.981 112.642 245.483 106.274 245.483 106.274C245.483 106.274 239.228 105.731 235.678 109.323Z" fill="white"/>
<path d="M227.854 144.252C232.196 144.765 236.279 141.035 236.279 141.035C236.279 141.035 233.322 136.474 228.984 135.962C224.636 135.453 220.552 139.182 220.552 139.182C220.552 139.182 223.511 143.74 227.854 144.252Z" fill="white"/>
<path d="M231.733 219.705H199.268C196.728 219.705 194.669 221.753 194.669 224.293C194.669 226.83 196.728 228.888 199.268 228.888H231.733C234.269 228.888 236.325 226.829 236.325 224.293C236.325 221.753 234.269 219.705 231.733 219.705Z" fill="white"/>
<path d="M231.733 270.326H199.268C196.728 270.326 194.669 272.378 194.669 274.917C194.669 277.45 196.728 279.51 199.268 279.51H231.733C234.269 279.51 236.325 277.449 236.325 274.917C236.325 272.378 234.269 270.326 231.733 270.326Z" fill="white"/>
<path d="M85.727 208.554C84.9639 208.319 84.208 208.112 83.4736 207.974C83.4736 207.974 84.3058 208.233 85.727 208.554Z" fill="white"/>
<path d="M230.537 232.095H200.454C199.011 232.095 197.839 233.27 197.839 234.708V243.819L178.2 245.977L149.51 245.32V227.797C153.321 227.308 157.137 226.549 160.925 225.482C188.542 217.689 194.565 194.857 193.965 179.06C193.363 162.97 198.513 156.722 205.911 153.944C208.029 153.148 210.125 152.646 212.043 152.32C212.125 156.272 212.927 160.865 214.694 166.338C215.35 166.304 216.003 166.249 216.652 166.178C214.786 160.579 213.989 155.972 213.947 152.045C217.766 151.593 220.494 151.847 220.494 151.847C220.494 151.847 217.911 150.46 214.262 147.408C215.502 139.79 220.041 135.114 224.718 130.33C227.288 127.696 229.945 124.975 232.037 121.737L230.407 120.685C228.428 123.765 225.827 126.409 223.327 128.973C218.766 133.638 214.163 138.405 212.604 145.97C211.121 144.632 209.518 143.05 207.877 141.208C201.066 133.573 192.299 139.182 179.798 150.822C167.287 162.456 151.561 162.856 136.199 147.139C115.933 126.39 98.2537 126.509 86.1304 127.687C94.4236 131.218 97.3249 138.968 101.522 158.665C105.922 179.331 117.017 188.684 132.192 189.973C123.751 192.957 123.334 197.722 112.025 205.532C103.192 211.628 90.7657 209.699 85.7275 208.555C94.9754 211.438 105.93 221.14 115.731 224.513C121.437 226.477 127.454 227.693 133.616 228.181V244.956L82.2168 243.782V255.486L178.201 253.29L197.84 255.452V264.554C197.84 265.995 199.011 267.173 200.454 267.173H230.537C231.982 267.173 233.156 265.995 233.156 264.554V234.709C233.155 233.27 231.981 232.095 230.537 232.095ZM138.344 228.424C140.484 228.459 142.63 228.397 144.781 228.252V245.212L138.344 245.065V228.424Z" fill="white"/>
<path d="M79.4068 253.551C79.4068 256.018 77.6853 258.019 75.5634 258.019H73.2499C71.1322 258.019 69.4048 256.018 69.4048 253.551V245.461C69.4048 242.99 71.1316 240.993 73.2499 240.993H75.5634C77.6853 240.993 79.4068 242.989 79.4068 245.461V253.551Z" fill="white"/>
<path d="M100.725 20.8536H107.132C111.492 20.8536 113.084 23.0144 113.084 26.6162V32.0373C113.084 35.6391 111.492 37.8378 107.132 37.8378H105.047V46.5568H100.725V20.8536ZM105.047 24.3791V34.5013H106.639C108.118 34.5013 108.762 33.7808 108.762 32.3783V26.4643C108.762 25.0618 108.118 24.3791 106.639 24.3791H105.047Z" fill="white"/>
<path d="M114.259 46.5562L119.112 20.853H124.04L128.931 46.5562H124.495L123.699 41.855H119.112L118.354 46.5562H114.259ZM119.681 38.4057H123.131L121.425 28.0944H121.387L119.681 38.4057Z" fill="white"/>
<path d="M134.541 43.0306H141.1V46.5562H130.029V43.0306L136.815 24.3791H130.712V20.8536H141.365V24.3791L134.541 43.0306Z" fill="white"/>
<path d="M147.695 42.7652L145.496 48.5657H143.07L143.601 42.4242H147.695V42.7652Z" fill="white"/>
<path d="M164.868 20.8536V40.7185C164.868 44.4338 163.238 46.86 158.916 46.86C154.442 46.86 153.229 44.3959 153.229 41.1358V36.0179H157.324V41.2114C157.324 42.5005 157.779 43.2588 158.916 43.2588C160.091 43.2588 160.546 42.5005 160.546 41.1736V20.8536H164.868Z" fill="white"/>
<path d="M179.464 20.8536V40.3012C179.464 44.2819 177.758 46.8594 173.36 46.8594C168.811 46.8594 166.916 44.2813 166.916 40.3012V20.8536H171.237V40.7185C171.237 42.2345 171.844 43.2582 173.36 43.2582C174.877 43.2582 175.484 42.2345 175.484 40.7185V20.8536H179.464Z" fill="white"/>
<path d="M181.32 41.0209V37.571H185.339V41.0966C185.339 42.5369 185.983 43.3715 187.462 43.3715C188.826 43.3715 189.433 42.4613 189.433 41.0966V40.1107C189.433 38.6325 188.826 37.7223 187.499 36.4711L184.96 33.9314C182.496 31.5051 181.358 30.027 181.358 27.0694V26.1976C181.358 23.0131 183.216 20.549 187.424 20.549C191.746 20.549 193.452 22.672 193.452 26.3873V28.4725H189.51V26.2354C189.51 24.7572 188.827 24.0368 187.463 24.0368C186.249 24.0368 185.415 24.7194 185.415 26.1598V26.6905C185.415 28.1309 186.211 28.9655 187.463 30.1783L190.23 32.9077C192.58 35.2961 193.718 36.7365 193.718 39.5794V40.8306C193.718 44.3562 191.822 46.858 187.425 46.858C183.027 46.8592 181.32 44.3952 181.32 41.0209Z" fill="white"/>
<path d="M195.12 20.8536H206.608V24.3791H203.044V46.5568H198.684V24.3791H195.12V20.8536H195.12Z" fill="white"/>
<path d="M208.236 20.8536H212.558V46.5568H208.236V20.8536Z" fill="white"/>
<path d="M219.268 49.1721C220.481 49.1342 220.671 48.8689 220.671 48.5656C220.671 48.3003 220.443 48.1484 220.064 48.1484H219.874V46.7458C216.197 46.2907 214.681 43.5235 214.681 39.9217V27.4873C214.681 23.4688 216.576 20.5497 221.126 20.5497C225.903 20.5497 227.23 23.2035 227.23 26.9944V30.027H223.287V26.6528C223.287 25.0605 222.756 24.1509 221.201 24.1509C219.647 24.1509 219.003 25.2502 219.003 26.8047V40.6037C219.003 42.1582 219.647 43.2575 221.201 43.2575C222.756 43.2575 223.287 42.2716 223.287 40.7556V36.0166H227.23V40.4524C227.23 44.0536 225.789 46.7074 221.505 46.8587V47.1997C222.528 47.3516 223.097 47.7305 223.097 48.5644C223.097 49.7394 221.998 50.3843 219.268 50.3843V49.1721Z" fill="white"/>
<path d="M228.518 46.5562L233.371 20.853H238.299L243.19 46.5562H238.754L237.958 41.855H233.371L232.612 46.5562H228.518ZM233.939 38.4057H237.389L235.683 28.0944H235.645L233.939 38.4057Z" fill="white"/>
<path d="M248.192 20.8536H258.504V24.3791H252.514V31.7335H256.798V35.2212H252.514V43.0306H258.504V46.5562H248.192V20.8536Z" fill="white"/>
<path d="M100.876 54.6251H105.198V80.3283H100.876V54.6251Z" fill="white"/>
<path d="M111.68 64.1781V80.3277H108.04V54.6245H112.286L116.949 69.3716V54.6245H120.551V80.3277H116.76L111.68 64.1781Z" fill="white"/>
<path d="M123.128 74.7926V71.3426H127.147V74.8682C127.147 76.3086 127.791 77.1431 129.27 77.1431C130.635 77.1431 131.241 76.2329 131.241 74.8682V73.8824C131.241 72.4042 130.635 71.4939 129.308 70.2427L126.768 67.703C124.304 65.2768 123.166 63.7986 123.166 60.841V59.9692C123.166 56.7847 125.023 54.3206 129.231 54.3206C133.553 54.3206 135.26 56.4437 135.26 60.159V62.2441H131.317V60.0071C131.317 58.5289 130.635 57.8084 129.27 57.8084C128.056 57.8084 127.222 58.491 127.222 59.9314V60.4622C127.222 61.9025 128.018 62.7371 129.27 63.9499L132.037 66.6793C134.388 69.0677 135.525 70.5081 135.525 73.351V74.6022C135.525 78.1278 133.629 80.6297 129.232 80.6297C124.834 80.6309 123.128 78.1668 123.128 74.7926Z" fill="white"/>
<path d="M137.647 54.6251H149.134V58.1506H145.571V80.3283H141.211V58.1506H137.647V54.6251Z" fill="white"/>
<path d="M151.485 54.6251H155.807V80.3283H151.485V54.6251Z" fill="white"/>
<path d="M158.157 54.6251H169.645V58.1506H166.081V80.3283H161.72V58.1506H158.157V54.6251H158.157Z" fill="white"/>
<path d="M184.542 54.6251V74.0727C184.542 78.0534 182.836 80.6309 178.438 80.6309C173.889 80.6309 171.993 78.0534 171.993 74.0727V54.6251H176.315V74.49C176.315 76.006 176.922 77.0297 178.438 77.0297C179.954 77.0297 180.561 76.006 180.561 74.49V54.6251H184.542Z" fill="white"/>
<path d="M187.347 54.6251H191.669V80.3283H187.347V54.6251Z" fill="white"/>
<path d="M199.1 82.9436C200.314 82.9052 200.503 82.6404 200.503 82.3372C200.503 82.0718 200.276 81.9199 199.897 81.9199H199.707V80.5174C196.03 80.0623 194.513 77.295 194.513 73.6932V61.2589C194.513 57.2404 196.409 54.3212 200.958 54.3212C205.735 54.3212 207.062 56.975 207.062 60.7659V63.7986H203.119V60.4243C203.119 58.8321 202.588 57.9224 201.034 57.9224C199.479 57.9224 198.835 59.0218 198.835 60.5762V74.3753C198.835 75.9297 199.479 77.029 201.034 77.029C202.588 77.029 203.119 76.0432 203.119 74.5266V69.7876H207.062V74.2234C207.062 77.8246 205.622 80.4783 201.338 80.6296V80.9707C202.361 81.1226 202.929 81.5014 202.929 82.3354C202.929 83.5104 201.83 84.1552 199.1 84.1552V82.9436Z" fill="white"/>
<path d="M209.751 73.6935V61.2592C209.751 57.2407 211.723 54.3215 216.272 54.3215C220.86 54.3215 222.831 57.2407 222.831 61.2592V73.6935C222.831 77.6742 220.86 80.6311 216.272 80.6311C211.723 80.6311 209.751 77.6742 209.751 73.6935ZM212.329 53.6016C212.405 51.8196 213.088 50.3793 214.983 50.3793C216.083 50.3793 216.993 51.0235 217.561 51.0235C217.865 51.0235 218.092 50.8344 218.092 50.4549H220.215C220.139 52.2363 219.456 53.6773 217.561 53.6773C216.462 53.6773 215.552 53.033 214.983 53.033C214.68 53.033 214.452 53.2228 214.452 53.6016H212.329ZM218.509 74.3761V60.5771C218.509 59.0227 217.826 57.9233 216.272 57.9233C214.756 57.9233 214.073 59.0227 214.073 60.5771V74.3761C214.073 75.9306 214.756 77.0299 216.272 77.0299C217.826 77.0299 218.509 75.9306 218.509 74.3761Z" fill="white"/>
<path d="M225.635 54.6251H235.948V58.1506H229.958V65.5056H234.242V68.9933H229.958V76.8027H235.948V80.3283H225.635V54.6251Z" fill="white"/>
<path d="M238.374 74.7926V71.3426H242.392V74.8682C242.392 76.3086 243.036 77.1431 244.515 77.1431C245.88 77.1431 246.487 76.2329 246.487 74.8682V73.8824C246.487 72.4042 245.88 71.4939 244.553 70.2427L242.013 67.703C239.549 65.2768 238.411 63.7986 238.411 60.841V59.9692C238.411 56.7847 240.269 54.3206 244.478 54.3206C248.799 54.3206 250.505 56.4437 250.505 60.159V62.2441H246.562V60.0071C246.562 58.5289 245.88 57.8084 244.515 57.8084C243.302 57.8084 242.468 58.491 242.468 59.9314V60.4622C242.468 61.9025 243.264 62.7371 244.515 63.9499L247.283 66.6793C249.633 69.0677 250.771 70.5081 250.771 73.351V74.6022C250.771 78.1278 248.875 80.6297 244.478 80.6297C240.08 80.6297 238.374 78.1668 238.374 74.7926Z" fill="white"/>
<path d="M100.876 89.7979H111.188V93.3234H105.197V100.678H109.481V104.166H105.197V111.976H111.188V115.501H100.876V89.7979Z" fill="white"/>
<path d="M113.841 89.7979H123.963V93.3234H118.162V100.678H122.484V104.166H118.162V115.501H113.84V89.7979H113.841Z" fill="white"/>
<path d="M126.199 89.7979H130.521V115.501H126.199V89.7979Z" fill="white"/>
<path d="M133.364 108.867V96.4322C133.364 92.4137 135.26 89.4946 139.809 89.4946C144.586 89.4946 145.913 92.1478 145.913 95.9393V98.9719H141.971V95.5977C141.971 94.0054 141.44 93.0958 139.886 93.0958C138.331 93.0958 137.686 94.1951 137.686 95.7496V109.549C137.686 111.103 138.331 112.202 139.886 112.202C141.439 112.202 141.971 111.217 141.971 109.7V104.961H145.913V109.397C145.913 113.074 144.397 115.804 139.809 115.804C135.259 115.804 133.364 112.847 133.364 108.867Z" fill="white"/>
<path d="M147.92 115.501L152.773 89.7979H157.701L162.592 115.501H158.157L157.36 110.8H152.773L152.015 115.501H147.92ZM153.342 107.351H156.792L155.087 97.0393H155.049L153.342 107.351Z" fill="white"/>
<path d="M168.923 111.976H175.482V115.501H164.412V111.976L171.198 93.324H165.094V89.7985H175.747V93.324L168.923 111.976Z" fill="white"/>
<path d="M178.362 89.7979H188.675V93.3234H182.684V100.678H186.968V104.166H182.684V111.976H188.675V115.501H178.362V89.7979Z" fill="white"/>
<path d="M191.099 109.966V106.516H195.118V110.042C195.118 111.482 195.762 112.316 197.241 112.316C198.605 112.316 199.212 111.406 199.212 110.042V109.056C199.212 107.577 198.605 106.667 197.278 105.417L194.738 102.877C192.274 100.451 191.137 98.9725 191.137 96.015V95.1432C191.137 91.9586 192.995 89.4946 197.203 89.4946C201.524 89.4946 203.23 91.6176 203.23 95.3329V97.4181H199.288V95.1816C199.288 93.7028 198.605 92.9823 197.241 92.9823C196.027 92.9823 195.193 93.665 195.193 95.1054V95.6361C195.193 97.0765 195.99 97.911 197.241 99.1238L200.008 101.853C202.358 104.242 203.496 105.682 203.496 108.526V109.777C203.496 113.302 201.601 115.804 197.203 115.804C192.806 115.804 191.099 113.34 191.099 109.966Z" fill="white"/>
</svg>
