<svg width="315" height="315" viewBox="0 0 315 315" fill="none" xmlns="http://www.w3.org/2000/svg">
<path d="M314.893 0.389954H0.427734V314.855H314.893V0.389954Z" fill="#18496B"/>
<path d="M47.4832 26.7433V90.1441H36.823V41.6106H36.7274L29.2462 49.3717H29.1548V38.246L38.975 26.7433H47.4832Z" fill="white"/>
<path d="M52.3452 26.7433H79.0927V36.5613L65.158 90.1441H54.5851L68.8024 35.437H52.3452V26.7433Z" fill="white"/>
<path d="M237.584 191.105C237.584 169.023 220.017 150.979 198.13 150.181C192.501 134.285 177.319 122.863 159.513 122.863C141.71 122.863 126.53 134.285 120.895 150.181C99.0101 150.98 81.4492 169.025 81.4492 191.105C81.4492 204.211 87.6415 215.89 97.2528 223.39C96.2104 227.004 95.6365 230.815 95.6365 234.759C95.6365 257.335 114.01 275.709 136.597 275.709C145.168 275.709 153.128 273.055 159.713 268.538C166.22 272.891 174.034 275.437 182.436 275.437C205.02 275.437 223.394 257.063 223.394 234.488C223.394 230.622 222.846 226.886 221.842 223.343C231.413 215.839 237.584 204.182 237.584 191.105ZM192.226 163.819C192.226 180.213 180.093 193.787 164.338 196.133C164.084 194.487 163.914 192.815 163.914 191.105C163.914 174.71 176.047 161.134 191.799 158.791C192.055 160.429 192.226 162.105 192.226 163.819ZM159.667 257.916C153.542 251.968 149.724 243.671 149.724 234.489C149.724 225.446 153.419 217.247 159.365 211.322C165.485 217.268 169.306 225.57 169.306 234.759C169.305 243.797 165.616 251.992 159.667 257.916ZM127.231 158.788C142.983 161.133 155.12 174.71 155.12 191.105C155.12 192.815 154.946 194.487 154.691 196.133C138.934 193.787 126.801 180.213 126.801 163.819C126.802 162.105 126.976 160.429 127.231 158.788ZM151.62 205.737C146.239 216.437 135.181 223.816 122.405 223.816C116.989 223.816 111.884 222.466 107.38 220.125C112.762 209.425 123.823 202.048 136.597 202.048C142.017 202.049 147.116 203.394 151.62 205.737ZM167.304 205.515C171.835 203.141 176.973 201.775 182.436 201.775C195.297 201.775 206.414 209.256 211.761 220.075C207.225 222.451 202.082 223.816 196.627 223.816C183.763 223.816 172.642 216.335 167.304 205.515ZM159.513 131.109C172.918 131.109 184.449 139.215 189.498 150.777C176.193 153.123 165.084 161.908 159.513 173.791C153.95 161.906 142.838 153.121 129.531 150.777C134.582 139.215 146.112 131.109 159.513 131.109ZM89.6955 191.105C89.6955 174.248 102.507 160.343 118.899 158.585C118.682 160.3 118.556 162.046 118.556 163.819C118.556 175.791 123.723 186.579 131.936 194.073C118.352 195.621 106.762 203.83 100.533 215.356C93.8992 209.366 89.6955 200.725 89.6955 191.105ZM103.884 234.76C103.884 232.433 104.132 230.168 104.6 227.982C109.989 230.594 116.029 232.06 122.405 232.06C129.577 232.06 136.315 230.203 142.183 226.954C141.726 229.396 141.475 231.913 141.475 234.489C141.475 245.549 145.899 255.596 153.053 262.974C148.212 265.808 142.597 267.464 136.597 267.464C118.555 267.464 103.884 252.791 103.884 234.76ZM215.148 234.489C215.148 252.518 200.475 267.191 182.436 267.191C176.566 267.191 171.074 265.618 166.307 262.901C173.265 255.558 177.554 245.649 177.554 234.76C177.554 232.079 177.284 229.459 176.792 226.922C182.673 230.191 189.432 232.06 196.627 232.06C203.026 232.06 209.088 230.583 214.486 227.949C214.921 230.064 215.148 232.251 215.148 234.489ZM187.346 193.834C195.411 186.347 200.475 175.665 200.475 163.819C200.475 162.047 200.35 160.3 200.131 158.586C216.524 160.341 229.339 174.25 229.339 191.105C229.339 200.682 225.178 209.281 218.591 215.27C212.427 203.722 200.894 195.461 187.346 193.834Z" fill="white"/>
<path d="M92.9523 26.6652H99.3592C103.719 26.6652 105.311 28.8265 105.311 32.4277V37.8493C105.311 41.4505 103.719 43.6496 99.3592 43.6496H97.2739V52.3692H92.9517V26.6652H92.9523ZM97.2745 30.1909V40.3132H98.8667C100.346 40.3132 100.99 39.593 100.99 38.1903V32.2761C100.99 30.8734 100.346 30.1909 98.8667 30.1909H97.2745Z" fill="white"/>
<path d="M105.878 52.3692L110.731 26.6652H115.66L120.551 52.3692H116.115L115.318 47.6684H110.73L109.972 52.3692H105.878ZM111.3 44.2182H114.75L113.044 33.9066H113.006L111.3 44.2182Z" fill="white"/>
<path d="M125.668 40.5787V52.3692H121.346V26.6652H127.639C131.999 26.6652 133.591 28.8265 133.591 32.4277V35.7263C133.591 38.4935 132.605 40.1239 130.141 40.6919L134.274 52.3686H129.724L125.668 40.5787ZM125.668 30.1909V38.1903H127.108C128.587 38.1903 129.232 37.4323 129.232 36.0673V32.2761C129.232 30.8734 128.587 30.1909 127.108 30.1909H125.668Z" fill="white"/>
<path d="M134.956 45.7347V33.3001C134.956 29.2813 136.851 26.3619 141.401 26.3619C146.178 26.3619 147.506 29.0158 147.506 32.807V35.8401H143.563V32.466C143.563 30.8739 143.032 29.9637 141.477 29.9637C139.923 29.9637 139.278 31.0633 139.278 32.6176V46.4172C139.278 47.9716 139.922 49.0711 141.477 49.0711C143.032 49.0711 143.563 48.0854 143.563 46.5688V41.8297H147.506V46.2656C147.506 49.9429 145.989 52.6729 141.401 52.6729C136.851 52.6723 134.956 49.7152 134.956 45.7347Z" fill="white"/>
<path d="M148.868 26.6652H159.18V30.1909H153.19V37.5461H157.474V41.0335H153.19V48.8435H159.18V52.3692H148.868V26.6652Z" fill="white"/>
<path d="M164.831 40.5787V52.3692H160.508V26.6652H166.802C171.162 26.6652 172.754 28.8265 172.754 32.4277V35.7263C172.754 38.4935 171.769 40.1239 169.305 40.6919L173.436 52.3686H168.887L164.831 40.5787ZM164.831 30.1909V38.1903H166.271C167.75 38.1903 168.394 37.4323 168.394 36.0673V32.2761C168.394 30.8734 167.75 30.1909 166.271 30.1909H164.831Z" fill="white"/>
<path d="M174.118 26.6652H178.44V52.3692H174.118V26.6652Z" fill="white"/>
<path d="M179.272 52.3692L184.126 26.6652H189.054L193.945 52.3692H189.509L188.713 47.6684H184.125L183.367 52.3692H179.272ZM184.694 44.2182H188.144L186.437 33.9066H186.399L184.694 44.2182Z" fill="white"/>
<path d="M194.512 46.8335V43.3833H198.53V46.909C198.53 48.3495 199.174 49.1836 200.654 49.1836C202.018 49.1836 202.625 48.274 202.625 46.909V45.9233C202.625 44.4445 202.018 43.5349 200.692 42.2837L198.151 39.7437C195.687 37.3176 194.55 35.8387 194.55 32.8817V32.0092C194.55 28.8251 196.407 26.3606 200.616 26.3606C204.938 26.3606 206.644 28.4835 206.644 32.1986V34.2838H202.701V32.047C202.701 30.5688 202.018 29.8479 200.654 29.8479C199.44 29.8479 198.606 30.5304 198.606 31.9709V32.5018C198.606 33.9423 199.403 34.7764 200.654 35.9897L203.421 38.7191C205.771 41.1069 206.909 42.548 206.909 45.3912V46.6424C206.909 50.1681 205.013 52.6703 200.615 52.6703C196.218 52.6721 194.512 50.2076 194.512 46.8335Z" fill="white"/>
<path d="M211.193 26.6652H221.505V30.1909H215.515V37.5461H219.8V41.0335H215.515V48.8435H221.505V52.3692H211.193V26.6652Z" fill="white"/>
<path d="M237.73 35.688H237.617L234.697 52.3686H232.688L229.466 35.688H229.39V52.3686H225.827V26.6652H230.869L233.674 41.1473H233.713L236.215 26.6652H241.674V52.3692H237.731V35.688H237.73Z" fill="white"/>
<path d="M243.151 26.6652H253.462V30.1909H247.473V37.5461H251.758V41.0335H247.473V48.8435H253.462V52.3692H243.151V26.6652Z" fill="white"/>
<path d="M254.789 26.6652H259.111V52.3692H254.789V26.6652Z" fill="white"/>
<path d="M260.628 45.7347V33.3001C260.628 29.2813 262.599 26.3619 267.149 26.3619C271.736 26.3619 273.709 29.2813 273.709 33.3001V45.7347C273.709 49.7152 271.736 52.6723 267.149 52.6723C262.599 52.6723 260.628 49.7152 260.628 45.7347ZM269.386 46.4166V32.617C269.386 31.0627 268.704 29.9632 267.149 29.9632C265.633 29.9632 264.95 31.0627 264.95 32.617V46.4166C264.95 47.971 265.633 49.0705 267.149 49.0705C268.704 49.0705 269.386 47.971 269.386 46.4166Z" fill="white"/>
<path d="M274.957 46.8335V43.3833H278.977V46.909C278.977 48.3495 279.621 49.1836 281.1 49.1836C282.465 49.1836 283.071 48.274 283.071 46.909V45.9233C283.071 44.4445 282.465 43.5349 281.138 42.2837L278.597 39.7437C276.134 37.3176 274.996 35.8387 274.996 32.8817V32.0092C274.996 28.8251 276.854 26.3606 281.062 26.3606C285.385 26.3606 287.09 28.4835 287.09 32.1986V34.2838H283.148V32.047C283.148 30.5688 282.466 29.8479 281.1 29.8479C279.887 29.8479 279.053 30.5304 279.053 31.9709V32.5018C279.053 33.9423 279.849 34.7764 281.1 35.9897L283.868 38.7191C286.219 41.1069 287.356 42.548 287.356 45.3912V46.6424C287.356 50.1681 285.461 52.6703 281.062 52.6703C276.664 52.6721 274.957 50.2076 274.957 46.8335Z" fill="white"/>
<path d="M106.105 71.0118V83.0996C106.105 87.1031 104.45 90.1056 99.7532 90.1056H92.9775V64.0052H99.7532C104.45 64.0058 106.105 66.97 106.105 71.0118ZM99.2146 86.5256C101.024 86.5256 101.717 85.4479 101.717 83.8694V70.2037C101.717 68.6641 101.024 67.5858 99.2146 67.5858H97.3664V86.5256H99.2146Z" fill="white"/>
<path d="M108.184 64.0058H118.655V67.5858H112.572V75.0536H116.922V78.5953H112.572V86.5256H118.655V90.1056H108.184V64.0058Z" fill="white"/>
<path d="M124.198 64.0058H128.587V90.1062H124.198V64.0058Z" fill="white"/>
<path d="M142.792 73.1672H142.677L139.712 90.1056H137.672L134.4 73.1672H134.323V90.1056H130.705V64.0052H135.825L138.674 78.7109H138.712L141.253 64.0052H146.796V90.1056H142.792L142.792 73.1672Z" fill="white"/>
<path d="M148.874 64.0058H155.38C159.807 64.0058 161.424 66.2002 161.424 69.8568V75.3616C161.424 79.0188 159.807 81.2515 155.38 81.2515H153.262V90.1056H148.874V64.0058ZM153.262 67.5858V77.8638H154.879C156.381 77.8638 157.035 77.1324 157.035 75.7084V69.7029C157.035 68.2789 156.381 67.5858 154.879 67.5858H153.262Z" fill="white"/>
<path d="M163.271 64.0058H167.66V86.5262H172.897V90.1062H163.272V64.0058H163.271Z" fill="white"/>
<path d="M174.473 64.0058H184.944V67.5858H178.861V75.0536H183.211V78.5953H178.861V86.5256H184.944V90.1056H174.473V64.0058Z" fill="white"/>
<path d="M198.957 73.1672H198.841L195.877 90.1056H193.837L190.564 73.1672H190.488V90.1056H186.869V64.0052H191.989L194.837 78.7109H194.876L197.417 64.0052H202.961V90.1056H198.957V73.1672Z" fill="white"/>
<path d="M205.039 64.0058H215.51V67.5858H209.427V75.0536H213.778V78.5953H209.427V86.5256H215.51V90.1056H205.039V64.0058Z" fill="white"/>
<path d="M221.13 73.7064V90.1062H217.434V64.0058H221.745L226.48 78.9805V64.0058H230.138V90.1062H226.288L221.13 73.7064Z" fill="white"/>
<path d="M231.716 64.0058H243.381V67.5858H239.762V90.1062H235.334V67.5858H231.716V64.0058H231.716Z" fill="white"/>
<path d="M244.303 90.1062L249.231 64.0058H254.236L259.201 90.1062H254.697L253.889 85.3329H249.231L248.461 90.1062H244.303ZM249.808 81.829H253.311L251.578 71.3581H251.54L249.808 81.829Z" fill="white"/>
<path d="M265.245 92.7624C266.477 92.7241 266.671 92.4545 266.671 92.1466C266.671 91.877 266.439 91.723 266.054 91.723H265.862V90.2985C262.128 89.8366 260.587 87.0264 260.587 83.3692V70.7422C260.587 66.662 262.513 63.6979 267.132 63.6979C271.984 63.6979 273.331 66.3925 273.331 70.242V73.3218H269.327V69.8952C269.327 68.2789 268.788 67.3546 267.209 67.3546C265.63 67.3546 264.976 68.4712 264.976 70.0491V84.0617C264.976 85.6402 265.63 86.7563 267.209 86.7563C268.788 86.7563 269.327 85.7552 269.327 84.2156V79.4034H273.331V83.9071C273.331 87.5644 271.868 90.2595 267.518 90.4129V90.7592C268.557 90.9131 269.134 91.2983 269.134 92.1454C269.134 93.3387 268.018 93.9929 265.245 93.9929V92.7624Z" fill="white"/>
<path d="M274.6 90.1064L279.527 64.006H284.532L289.498 90.1064H284.994L284.185 85.3331H279.527L278.757 90.1064H274.6ZM278.026 62.9661C278.103 61.1569 278.796 59.694 280.72 59.694C281.837 59.694 282.761 60.3482 283.338 60.3482C283.646 60.3482 283.877 60.1553 283.877 59.7707H286.033C285.955 61.5799 285.263 63.0428 283.338 63.0428C282.221 63.0428 281.297 62.388 280.72 62.388C280.413 62.388 280.181 62.5809 280.181 62.9655L278.026 62.9661ZM280.105 81.8292H283.609L281.876 71.3583H281.837L280.105 81.8292Z" fill="white"/>
<path d="M290.883 83.3692V70.7422C290.883 66.662 292.885 63.6979 297.505 63.6979C302.163 63.6979 304.166 66.662 304.166 70.7422V83.3692C304.166 87.4116 302.163 90.4141 297.505 90.4141C292.886 90.4141 290.883 87.411 290.883 83.3692ZM299.777 84.0623V70.0497C299.777 68.4718 299.083 67.3551 297.504 67.3551C295.965 67.3551 295.272 68.4718 295.272 70.0497V84.0623C295.272 85.6408 295.965 86.7568 297.504 86.7568C299.084 86.7568 299.777 85.6402 299.777 84.0623Z" fill="white"/>
</svg>
