<svg width="315" height="315" viewBox="0 0 315 315" fill="none" xmlns="http://www.w3.org/2000/svg">
<path d="M314.465 0.45282H0V314.918H314.465V0.45282Z" fill="#FAC315"/>
<path d="M32.2559 35.5065H48.7175L34.4974 90.2113H45.0715L59.0045 36.6283V26.8066H32.2559V35.5065Z" fill="white"/>
<path d="M157.349 152.811C131.898 152.811 111.264 173.446 111.264 198.898C111.264 224.362 131.898 244.991 157.349 244.991C182.801 244.991 203.434 224.362 203.434 198.898C203.434 173.445 182.801 152.811 157.349 152.811ZM153.937 171.018C153.937 169.484 155.477 167.795 157.368 167.795C159.256 167.795 160.782 169.484 160.782 171.018V186.841C160.782 188.368 159.256 190.04 157.368 190.04C155.477 190.04 153.937 188.368 153.937 186.841V171.018ZM157.357 222.515C144.12 222.515 133.385 211.785 133.385 198.546C133.385 187.785 140.469 178.684 150.234 175.65V184.575C145.152 187.17 141.665 192.445 141.665 198.546C141.665 207.213 148.689 214.238 157.358 214.238C166.028 214.238 173.05 207.213 173.05 198.546C173.05 192.428 169.546 187.143 164.441 184.554V175.638C174.223 178.659 181.332 187.77 181.332 198.546C181.331 211.784 170.599 222.515 157.357 222.515Z" fill="white"/>
<path d="M104.442 198.495C104.442 196.405 102.592 194.713 100.901 194.713H80.7162C79.0144 194.713 77.147 196.405 77.147 198.495C77.147 200.59 79.0144 202.293 80.7162 202.293H100.901C102.593 202.293 104.442 200.591 104.442 198.495Z" fill="white"/>
<path d="M237.57 198.495C237.57 196.405 235.719 194.713 234.029 194.713H213.845C212.146 194.713 210.277 196.405 210.277 198.495C210.277 200.59 212.146 202.293 213.845 202.293H234.029C235.719 202.293 237.57 200.591 237.57 198.495Z" fill="white"/>
<path d="M157.369 145.588C159.454 145.588 161.149 143.737 161.149 142.05V121.864C161.149 120.162 159.454 118.296 157.369 118.296C155.276 118.296 153.57 120.162 153.57 121.864V142.05C153.57 143.737 155.277 145.588 157.369 145.588Z" fill="white"/>
<path d="M157.369 278.708C159.454 278.708 161.149 276.857 161.149 275.167V254.986C161.149 253.286 159.454 251.416 157.369 251.416C155.276 251.416 153.57 253.286 153.57 254.986V275.167C153.57 276.857 155.277 278.708 157.369 278.708Z" fill="white"/>
<path d="M111.437 172.213C112.476 170.398 111.712 168.011 110.243 167.171L92.725 157.147C91.2477 156.299 88.7861 156.841 87.7481 158.654C86.7089 160.473 87.4846 162.877 88.9613 163.724L106.478 173.749C107.944 174.588 110.396 174.031 111.437 172.213Z" fill="white"/>
<path d="M226.979 238.336C228.013 236.526 227.25 234.135 225.784 233.295L208.267 223.271C206.79 222.427 204.326 222.967 203.29 224.784C202.25 226.597 203.025 229.005 204.502 229.848L222.019 239.873C223.486 240.713 225.936 240.155 226.979 238.336Z" fill="white"/>
<path d="M183.652 152.582C185.465 153.618 187.85 152.853 188.692 151.387L198.717 133.871C199.564 132.392 199.022 129.93 197.209 128.892C195.392 127.851 192.984 128.629 192.138 130.105L182.114 147.62C181.274 149.089 181.831 151.542 183.652 152.582Z" fill="white"/>
<path d="M117.526 268.119C119.337 269.155 121.725 268.39 122.566 266.923L132.591 249.408C133.437 247.931 132.893 245.466 131.08 244.43C129.266 243.39 126.855 244.166 126.012 245.641L115.988 263.157C115.148 264.623 115.706 267.079 117.526 268.119Z" fill="white"/>
<path d="M130.987 152.628C132.798 151.586 133.343 149.138 132.499 147.672L122.439 130.175C121.587 128.7 119.193 127.926 117.38 128.97C115.56 130.012 115.02 132.482 115.872 133.955L125.93 151.449C126.776 152.914 129.168 153.672 130.987 152.628Z" fill="white"/>
<path d="M197.35 268.03C199.161 266.988 199.706 264.54 198.865 263.076L188.805 245.579C187.954 244.104 185.557 243.329 183.744 244.371C181.927 245.413 181.384 247.882 182.237 249.36L192.295 266.854C193.136 268.318 195.533 269.074 197.35 268.03Z" fill="white"/>
<path d="M203.237 172.131C204.278 173.94 206.726 174.486 208.192 173.644L225.685 163.583C227.162 162.734 227.941 160.335 226.899 158.524C225.852 156.709 223.387 156.164 221.91 157.013L204.415 167.073C202.949 167.915 202.192 170.316 203.237 172.131Z" fill="white"/>
<path d="M87.8318 238.493C88.8717 240.302 91.3205 240.848 92.7857 240.004L110.278 229.944C111.757 229.097 112.536 226.698 111.489 224.887C110.45 223.07 107.979 222.527 106.506 223.374L89.0086 233.434C87.5428 234.275 86.7881 236.676 87.8318 238.493Z" fill="white"/>
<path d="M89.7944 26.6987H100.106V30.2243H94.1164V37.5794H98.4V41.0673H94.1164V48.8764H100.106V52.4021H89.7944V26.6987Z" fill="white"/>
<path d="M105.867 36.2518V52.4014H102.229V26.6987H106.474L111.138 41.4459V26.6987H114.74V52.4014H110.948L105.867 36.2518Z" fill="white"/>
<path d="M117.013 26.6987H127.325V30.2243H121.335V37.5794H125.619V41.0673H121.335V48.8764H127.325V52.4021H117.013V26.6987Z" fill="white"/>
<path d="M133.769 40.6119V52.402H129.447V26.6993H135.74C140.1 26.6993 141.693 28.8602 141.693 32.4613V35.7599C141.693 38.5271 140.706 40.1572 138.242 40.7264L142.374 52.4027H137.825L133.769 40.6119ZM133.769 30.2243V38.2234H135.209C136.688 38.2234 137.332 37.4649 137.332 36.1002V32.3091C137.332 30.9067 136.688 30.2237 135.209 30.2237H133.769V30.2243Z" fill="white"/>
<path d="M149.996 38.678H156.137V52.4013H153.029V49.5958C152.46 51.529 151.247 52.7044 148.896 52.7044C145.181 52.7044 143.476 49.748 143.476 45.767V33.3329C143.476 29.3142 145.409 26.3948 149.958 26.3948C154.735 26.3948 156.138 29.0488 156.138 32.8398V35.1146H152.195V32.499C152.195 30.9066 151.589 29.9966 150.034 29.9966C148.479 29.9966 147.797 31.0959 147.797 32.6499V46.4493C147.797 48.004 148.442 49.1033 149.92 49.1033C151.323 49.1033 152.043 48.3071 152.043 46.6393V42.0904H149.996V38.678H149.996Z" fill="white"/>
<path d="M158.031 26.6987H162.353V52.4014H158.031V26.6987Z" fill="white"/>
<path d="M163.603 52.4014L168.456 26.6987H173.383L178.275 52.4014H173.839L173.042 47.7004H168.455L167.697 52.4014H163.603ZM169.024 44.2508H172.475L170.768 33.9393H170.731L169.024 44.2508Z" fill="white"/>
<path d="M182.898 26.6987H187.22V48.8758H192.375V52.4014H182.898V26.6987Z" fill="white"/>
<path d="M193.779 26.6987H198.101V52.4014H193.779V26.6987Z" fill="white"/>
<path d="M211.937 35.721H211.823L208.904 52.4014H206.895L203.673 35.721H203.597V52.4014H200.033V26.6987H205.076L207.882 41.1805H207.919L210.421 26.6987H215.88V52.4014H211.938V35.721H211.937Z" fill="white"/>
<path d="M217.775 26.6987H224.182C228.542 26.6987 230.135 28.8596 230.135 32.4607V37.8819C230.135 41.4836 228.543 43.6823 224.182 43.6823H222.097V52.4014H217.775V26.6987ZM222.097 30.2243V40.3466H223.689C225.168 40.3466 225.813 39.6265 225.813 38.2234V32.3091C225.813 30.9067 225.168 30.2237 223.689 30.2237H222.097V30.2243Z" fill="white"/>
<path d="M231.119 52.4014L235.971 26.6987H240.9L245.79 52.4014H241.355L240.559 47.7004H235.971L235.213 52.4014H231.119ZM236.539 44.2508H239.99L238.285 33.9393H238.246L236.539 44.2508Z" fill="white"/>
<path d="M89.7676 64.5564H100.026V68.0635H94.0672V75.3802H98.3291V78.8502H94.0672V86.6197H100.026V90.1262H89.7676V64.5564Z" fill="white"/>
<path d="M104.476 90.1274L109.304 64.5571H114.207L119.072 90.1274H114.659L113.868 85.4519H109.304L108.549 90.1274H104.476ZM109.869 82.019H113.301L111.604 71.7606H111.566L109.869 82.019Z" fill="white"/>
<path d="M120.278 83.5277V71.1569C120.278 67.1586 122.164 64.2546 126.69 64.2546C131.442 64.2546 132.762 66.8945 132.762 70.6657V73.6836H128.839V70.3268C128.839 68.7427 128.312 67.8372 126.765 67.8372C125.219 67.8372 124.577 68.9307 124.577 70.4771V84.2062C124.577 85.7525 125.219 86.8461 126.765 86.8461C128.312 86.8461 128.839 85.8657 128.839 84.3565V79.642H132.762V84.0546C132.762 87.7133 131.253 90.428 126.69 90.428C122.164 90.4287 120.278 87.4882 120.278 83.5277Z" fill="white"/>
<path d="M134.535 64.5564H144.793V68.0635H138.834V75.3802H143.096V78.8502H138.834V86.6197H144.793V90.1262H134.535V64.5564Z" fill="white"/>
<path d="M146.3 84.6212V81.189H150.299V84.6967C150.299 86.1299 150.939 86.9593 152.411 86.9593C153.769 86.9593 154.372 86.0544 154.372 84.6967V83.7163C154.372 82.2448 153.769 81.3399 152.448 80.0954L149.921 77.5687C147.47 75.1551 146.338 73.6843 146.338 70.7419V69.8747C146.338 66.7065 148.186 64.2553 152.373 64.2553C156.673 64.2553 158.37 66.3676 158.37 70.0633V72.1379H154.447V69.913C154.447 68.4415 153.769 67.7253 152.41 67.7253C151.203 67.7253 150.374 68.4044 150.374 69.8376V70.3652C150.374 71.7983 151.165 72.6284 152.41 73.8352L155.164 76.5506C157.502 78.927 158.634 80.3602 158.634 83.1887V84.4332C158.634 87.9403 156.748 90.4293 152.373 90.4293C147.998 90.4287 146.3 87.9781 146.3 84.6212Z" fill="white"/>
<path d="M160.104 84.6212V81.189H164.102V84.6967C164.102 86.1299 164.743 86.9593 166.214 86.9593C167.572 86.9593 168.175 86.0544 168.175 84.6967V83.7163C168.175 82.2448 167.572 81.3399 166.251 80.0954L163.725 77.5687C161.274 75.1551 160.142 73.6843 160.142 70.7419V69.8747C160.142 66.7065 161.99 64.2553 166.177 64.2553C170.476 64.2553 172.173 66.3676 172.173 70.0633V72.1379H168.251V69.913C168.251 68.4415 167.572 67.7253 166.214 67.7253C165.007 67.7253 164.177 68.4044 164.177 69.8376V70.3652C164.177 71.7983 164.969 72.6284 166.214 73.8352L168.967 76.5506C171.305 78.927 172.437 80.3602 172.437 83.1887V84.4332C172.437 87.9403 170.552 90.4293 166.177 90.4293C161.801 90.4293 160.104 87.9781 160.104 84.6212Z" fill="white"/>
<path d="M179.792 62.7461L173.041 63.6133V61.1997L179.792 59.7672V62.7461ZM174.135 64.5565H178.434V90.1269H174.135V64.5565Z" fill="white"/>
<path d="M194.124 64.5564L189.259 90.1268H184.583L179.717 64.5564H184.093L187.034 82.3964H187.072L190.09 64.5564H194.124Z" fill="white"/>
<path d="M195.33 64.5564H205.588V68.0635H199.629V75.3802H203.891V78.8502H199.629V86.6197H205.588V90.1262H195.33V64.5564Z" fill="white"/>
<path d="M207.324 64.5564H211.622V86.6203H216.752V90.1268H207.324V64.5564Z" fill="white"/>
</svg>
