<svg width="315" height="315" viewBox="0 0 315 315" fill="none" xmlns="http://www.w3.org/2000/svg">
<path d="M315 0H0.534668V314.465H315V0Z" fill="#29BEE2"/>
<path d="M48.115 90.5953C59.4277 90.5953 63.8247 84.4205 63.8247 74.5994V65.2468C63.8247 54.8671 59.7101 49.6313 52.0378 49.6313C47.5496 49.6313 44.8397 51.6912 43.2482 54.777H43.1563V41.1228C43.1563 37.2841 44.3741 34.5762 48.2063 34.5762C52.0378 34.5762 53.1643 36.8235 53.1643 40.7485V44.9565H62.8893V41.5913C62.8893 32.2345 59.8014 25.6946 48.0194 25.6946C36.798 25.6946 32.5879 32.8918 32.5879 42.8054V73.6659C32.5879 83.4864 36.8893 90.5953 48.115 90.5953ZM43.1563 63.9379C43.3438 60.3871 44.8397 58.1422 48.2063 58.1422C51.8516 58.1422 53.2556 60.3871 53.2556 64.5032V75.5396C53.2556 79.5577 51.7634 81.8963 48.1144 81.8963C44.5573 81.8963 43.1563 79.4652 43.1563 75.5396V63.9379Z" fill="white"/>
<path d="M215.685 127.158C215.418 126.869 215.059 126.707 214.653 126.707H100.564C100.17 126.707 99.8068 126.869 99.5396 127.158C99.2877 127.477 99.1903 127.869 99.2536 128.236L118.422 244.157C118.526 244.799 119.088 245.273 119.736 245.273H143.261L144.87 264.154L134.971 264.165L158.006 287.198L181.096 264.114L171.198 264.126L172.805 245.273H196.744C197.403 245.273 197.956 244.799 198.051 244.137L215.986 128.236C216.046 127.841 215.931 127.459 215.685 127.158ZM171.59 219.96C171.59 219.96 166.408 225.284 157.977 224.708C149.525 225.284 144.349 219.96 144.349 219.96C135.802 211.423 138.852 200.799 141.826 195.309C143.662 191.87 156.796 172.15 157.925 170.474V170.342C157.925 170.342 157.944 170.366 157.977 170.403L158.023 170.342V170.474C159.122 172.15 172.274 191.87 174.113 195.309C177.091 200.799 180.132 211.423 171.59 219.96ZM207.783 151.547C204.691 150.185 200.771 150.675 197.008 152.2C182.851 157.937 173.219 160.003 158.328 155.34C148.952 152.405 140.179 146.257 129.809 150.001C122.927 152.477 116.516 154.838 108.735 154.777L104.241 131.739H211.014L207.783 151.547Z" fill="white"/>
<path d="M90.6865 64.0171H100.999V67.5429H95.0092V74.8976H99.2936V78.3857H95.0092V86.1956H100.999V89.7215H90.6865V64.0171Z" fill="white"/>
<path d="M107.063 84.1868V80.7371H111.082V84.2629C111.082 85.7039 111.727 86.5376 113.206 86.5376C114.571 86.5376 115.178 85.6278 115.178 84.2629V83.2771C115.178 81.7983 114.571 80.8886 113.244 79.6374L110.704 77.0974C108.24 74.6712 107.102 73.1925 107.102 70.2356V69.3636C107.102 66.1791 108.96 63.7146 113.169 63.7146C117.491 63.7146 119.197 65.8377 119.197 69.5528V71.6383H115.254V69.4013C115.254 67.9226 114.571 67.2021 113.206 67.2021C111.993 67.2021 111.159 67.8849 111.159 69.3253V69.8559C111.159 71.2963 111.956 72.1306 113.206 73.344L115.974 76.0733C118.325 78.4618 119.463 79.9028 119.463 82.7458V83.997C119.463 87.5228 117.567 90.0251 113.169 90.0251C108.77 90.0251 107.063 87.5612 107.063 84.1868Z" fill="white"/>
<path d="M121.053 89.7221L125.907 64.0171H130.835L135.726 89.7221H131.29L130.494 85.0206H125.906L125.148 89.7221H121.053ZM126.476 81.5708H129.926L128.219 71.2586H128.181L126.476 81.5708Z" fill="white"/>
<path d="M141.146 73.571V89.7221H137.506V64.0171H141.753L146.416 78.7649V64.0171H150.019V89.7221H146.227L141.146 73.571Z" fill="white"/>
<path d="M152.48 64.0171H162.793V67.5429H156.803V74.8976H161.087V78.3857H156.803V86.1956H162.793V89.7215H152.48V64.0171Z" fill="white"/>
<path d="M164.423 89.7221L169.276 64.0171H174.205L179.096 89.7221H174.66L173.864 85.0206H169.276L168.518 89.7221H164.423ZM169.845 81.5708H173.295L171.588 71.2586H171.55L169.845 81.5708Z" fill="white"/>
<path d="M192.78 73.0404H192.667L189.747 89.7221H187.737L184.514 73.0404H184.439V89.7221H180.875V64.0171H185.917L188.723 78.4995H188.76L191.262 64.0171H196.722V89.7221H192.779V73.0404H192.78Z" fill="white"/>
<path d="M199.186 64.0171H209.499V67.5429H203.508V74.8976H207.792V78.3857H203.508V86.1956H209.499V89.7215H199.186V64.0171Z" fill="white"/>
<path d="M215.449 73.571V89.7221H211.81V64.0171H216.057L220.72 78.7649V64.0171H224.322V89.7221H220.531L215.449 73.571Z" fill="white"/>
<path d="M226.292 64.0171H237.78V67.5429H234.217V89.7215H229.856V67.5429H226.293V64.0171H226.292Z" fill="white"/>
<path d="M239.788 83.0872V70.6518C239.788 66.6331 241.759 63.714 246.309 63.714C250.896 63.714 252.868 66.6331 252.868 70.6518V83.0872C252.868 87.0676 250.896 90.0251 246.309 90.0251C241.759 90.0251 239.788 87.0682 239.788 83.0872ZM248.546 83.77V69.9697C248.546 68.4149 247.863 67.3159 246.308 67.3159C244.792 67.3159 244.11 68.4155 244.11 69.9697V83.77C244.11 85.3242 244.792 86.4238 246.308 86.4238C247.863 86.4238 248.546 85.3242 248.546 83.77Z" fill="white"/>
<path d="M89.8159 51.8135L94.6693 26.1084H99.5981L104.489 51.8135H100.053L99.2567 47.112H94.6687L93.9104 51.8135H89.8159ZM100.659 24.2889L93.8727 25.161V22.7347L100.659 21.2937V24.2889ZM95.2377 43.6622H98.6877L96.9812 33.35H96.9435L95.2377 43.6622Z" fill="white"/>
<path d="M113.169 38.0894H119.312V51.8136H116.202V49.0083C115.634 50.9416 114.421 52.1173 112.07 52.1173C108.354 52.1173 106.648 49.1598 106.648 45.1794V32.744C106.648 28.7253 108.582 25.8061 113.132 25.8061C117.909 25.8061 119.312 28.4599 119.312 32.2511V34.5258H115.368V31.9097C115.368 30.3172 114.761 29.4074 113.207 29.4074C111.652 29.4074 110.97 30.507 110.97 32.0612V45.8615C110.97 47.4157 111.614 48.5154 113.093 48.5154C114.496 48.5154 115.217 47.7194 115.217 46.0514V41.5014H113.169V38.0894Z" fill="white"/>
<path d="M134.702 26.1086V45.5579C134.702 49.5389 132.996 52.1166 128.598 52.1166C124.049 52.1166 122.153 49.5383 122.153 45.5579V26.1086H126.475V45.9747C126.475 47.4912 127.082 48.5147 128.598 48.5147C130.115 48.5147 130.722 47.4912 130.722 45.9747V26.1086H134.702Z" fill="white"/>
<path d="M136.861 51.8136L141.715 26.1086H146.644L151.535 51.8136H147.099L146.303 47.1121H141.715L140.956 51.8136H136.861ZM142.284 43.6623H145.734L144.027 33.3501H143.99L142.284 43.6623Z" fill="white"/>
<path d="M158.054 26.1086H164.462C168.822 26.1086 170.414 28.2695 170.414 31.8714V37.2928C170.414 40.8947 168.822 43.0933 164.462 43.0933H162.376V51.8136H158.054V26.1086H158.054ZM162.377 29.635V39.7573H163.969C165.448 39.7573 166.092 39.0368 166.092 37.6342V31.7198C166.092 30.3172 165.447 29.635 163.969 29.635H162.377Z" fill="white"/>
<path d="M173.029 45.1788V32.7434C173.029 28.7246 175 25.8055 179.55 25.8055C184.138 25.8055 186.109 28.7246 186.109 32.7434V45.1788C186.109 49.1598 184.138 52.1166 179.55 52.1166C175 52.1173 173.029 49.1598 173.029 45.1788ZM181.787 45.8615V32.0612C181.787 30.5064 181.105 29.4074 179.55 29.4074C178.033 29.4074 177.351 30.507 177.351 32.0612V45.8615C177.351 47.4157 178.033 48.5153 179.55 48.5153C181.105 48.5153 181.787 47.4157 181.787 45.8615Z" fill="white"/>
<path d="M188.458 26.1086H199.947V29.635H196.382V51.8136H192.022V29.635H188.458V26.1086Z" fill="white"/>
<path d="M201.651 51.8135L206.505 26.1084H211.434L216.325 51.8135H211.889L211.092 47.112H206.505L205.746 51.8135H201.651ZM212.494 24.2889L205.708 25.161V22.7347L212.494 21.2937V24.2889ZM207.073 43.6622H210.523L208.817 33.35H208.779L207.073 43.6622Z" fill="white"/>
<path d="M232.321 26.1086L227.43 51.8136H222.729L217.837 26.1086H222.236L225.193 44.0414H225.231L228.264 26.1086H232.321Z" fill="white"/>
<path d="M234.481 26.1086H244.794V29.635H238.803V36.9897H243.087V40.4772H238.803V48.2877H244.794V51.8136H234.481V26.1086Z" fill="white"/>
<path d="M247.484 26.1086H251.807V48.2877H256.963V51.8136H247.485L247.484 26.1086Z" fill="white"/>
</svg>
