<svg width="315" height="315" viewBox="0 0 315 315" fill="none" xmlns="http://www.w3.org/2000/svg">
<path d="M314.465 0.389954H0V314.855H314.465V0.389954Z" fill="#417F45"/>
<path d="M39.6943 26.7678V90.1438H29.0357V41.6315H28.9421L21.467 49.3886H21.3691V38.2653L31.1833 26.7678H39.6943Z" fill="white"/>
<path d="M74.84 40.5114V46.0244C74.84 51.3503 71.9439 54.9017 67.5509 56.3088C72.8765 57.5219 75.4008 61.2604 75.4008 67.056V76.4048C75.4008 85.191 70.7283 90.8924 59.9779 90.8924C49.1327 90.8924 45.2954 84.7232 45.2954 75.0962V66.7759H55.0216V75.8459C55.0216 79.5845 56.3271 82.0113 59.9779 82.0113C63.2433 82.0113 64.7384 79.6774 64.7384 76.3094V65.8422C64.7384 62.4742 63.2433 60.7016 59.507 60.7016H55.0222V52.5684H59.0441C62.5016 52.5684 64.7384 50.7896 64.7384 47.4277V40.6037C64.7384 37.144 63.5289 34.9017 60.1631 34.9017C56.8023 34.9017 55.5829 37.144 55.5829 41.0715V47.5195H45.8568V41.9129C45.8568 32.5641 49.6922 26.0207 60.7202 26.0207C70.5405 26.0201 74.84 31.5368 74.84 40.5114Z" fill="white"/>
<path d="M275.009 197.258C266.725 185.636 229.248 139.242 159.584 139.242C89.9062 139.242 52.4404 185.636 44.1424 197.258C43.7917 197.754 43.4856 198.183 43.2378 198.55C43.4856 198.926 43.7917 199.353 44.1424 199.856C52.4404 211.471 89.9056 257.867 159.584 257.867C229.248 257.867 266.725 211.471 275.009 199.856C275.372 199.353 275.67 198.926 275.908 198.55C275.67 198.183 275.372 197.753 275.009 197.258ZM120.72 168.579C121.348 167.658 123.435 165.027 123.687 164.694C124.224 164.003 125.289 163.862 126.038 163.728C126.776 163.587 127.761 164.003 127.881 164.558C128.008 165.115 127.593 167.272 127.23 167.642C126.208 168.703 123.549 170.201 122.083 169.964C120.949 169.791 120.505 168.914 120.72 168.579ZM118.231 173.529C118.343 173.397 118.442 173.289 118.483 173.234C119.36 172.236 121.104 172.022 122.309 171.835C123.519 171.627 125.129 172.236 125.322 173.039C125.529 173.836 122.295 175.302 121.703 175.85C120.026 177.393 117.404 180.54 115.868 180.878C115.368 180.991 114.955 180.915 114.615 180.747C115.624 178.232 116.832 175.812 118.231 173.529ZM144.304 227.014C143.361 230.723 142.26 232.061 141.322 233.23C140.384 234.414 136.91 235.925 134.705 235.763C132.497 235.597 132.19 229.706 132.19 226.678C132.19 225.632 130.708 228.735 129.936 222.428C129.442 218.392 126.851 222.85 126.669 220.157C126.483 217.47 125.19 218.006 123.827 216.327C122.473 214.65 120.785 216.491 118.891 217.341C117.01 218.177 117.785 218.618 115.107 217.774C115.04 217.753 115.004 217.734 114.938 217.708C112.481 211.903 111.125 205.52 111.125 198.82C111.125 197.181 111.214 195.571 111.365 193.978C111.458 193.815 111.552 193.661 111.665 193.525C114.233 190.49 114.174 189.778 114.174 189.778L117.013 188.795C117.013 188.795 121.548 189.493 124.965 190.781C127.777 191.833 132.209 194.222 134.786 193.17C136.647 192.401 138.105 191.384 137.932 189.832C137.72 187.888 136.188 187.424 134.333 188.735C133.648 189.217 132.19 185.802 131.046 185.977C129.903 186.147 132.46 189.991 131.492 190.152C130.519 190.319 128.565 186.147 128.231 185.47C127.902 184.8 126.391 183.126 125.037 184.403C122.175 187.122 117.526 186.955 116.593 187.654C113.75 189.78 113.001 186.955 113.064 185.235C113.179 184.841 113.295 184.445 113.422 184.056C114.348 183.033 117.677 182.693 118.821 183.456C120.077 184.296 120.978 183.24 121.468 182.731C121.968 182.235 121.79 181.428 121.479 180.758C121.16 180.084 122.106 179.589 122.755 179.418C123.41 179.245 125.57 177.729 126.434 177.224C127.306 176.723 131.792 176.177 133.804 177.185C135.815 178.196 137.66 177.37 138.648 176.206C139.888 174.733 141.467 173.612 142.168 173.273C142.872 172.943 140.436 170.672 138.433 173.149C136.427 175.615 135.407 175.842 134.464 175.842C133.52 175.842 127.919 174.446 127.226 172.675C126.542 170.906 128.977 169.581 131.047 168.579C133.114 167.595 138.772 167.608 140.218 167.28C143.159 166.635 146.919 165.158 148.813 166.448C150.698 167.713 140.904 169.944 144.123 171.682C145.268 172.312 150.447 168.703 152.221 167.779C156.394 165.629 148.173 164.917 149.241 160.541C150.446 155.595 139.155 157.509 133.529 157.929C141.076 153.093 150.04 150.28 159.665 150.28C182.559 150.28 201.74 166.142 206.855 187.468C206.891 188.524 206.727 189.283 206.618 189.713C206.178 191.464 202.861 192.966 200.935 190.151C200.444 189.441 198.36 187.476 198.433 190.838C198.502 194.203 201.7 194.546 198.597 196.564C195.502 198.582 194.933 198.095 193.498 198.605C192.071 199.11 190.681 202.576 191.025 204.429C191.369 206.281 195.794 211.338 192.511 211.132C191.744 211.075 185.943 207.113 184.987 204.568C183.975 201.887 182.872 199.263 182.09 197.24C181.298 195.224 179.252 194.709 177.518 195.894C175.792 197.077 177.998 198.257 176.757 200.786C175.521 203.308 174.632 205.562 172.807 203.48C168.07 198.051 161.189 200.729 160.109 194.689C159.526 191.413 156.706 191.727 154.349 189.873C151.979 188.029 150.659 187.025 150.261 188.362C149.909 189.533 157.679 195.693 158.231 197.27C159.057 199.613 155.906 201.682 153.599 202.237C151.302 202.789 150.289 200.943 148.029 198.589C145.768 196.239 144.777 194.556 144.62 196.403C144.395 199.074 146.769 202.995 149.072 204.46C151.037 205.704 153.237 206.268 152.6 208.287C151.96 210.31 152.59 209.164 150.39 211.34C148.186 213.528 147.765 214.233 147.925 217.254C148.083 220.284 147.296 220.458 146.821 222.976C146.35 225.499 145.258 223.317 144.304 227.014ZM196.368 207.662C197.999 207.53 200.45 209.792 199.489 210.66C198.536 211.519 196.089 211.204 194.863 210.244C193.643 209.293 195.635 207.722 196.368 207.662ZM194.303 206.171C193.783 205.975 193.318 205.478 192.923 204.287C192.527 203.097 193.529 202.415 194.509 202.895C195.505 203.402 196.799 204.887 196.799 205.68C196.799 206.474 194.841 206.379 194.303 206.171ZM172.883 206.087C171.927 206.94 169.473 206.627 168.246 205.669C167.024 204.721 169.02 203.144 169.75 203.087C171.383 202.942 173.837 205.222 172.883 206.087ZM153.064 215.722C152.396 216.813 150.571 224.978 149.345 224.027C148.114 223.072 149.841 214.559 150.197 213.913C152.113 210.397 156.26 210.572 153.064 215.722ZM159.665 247.354C154.921 247.354 150.349 246.663 146.022 245.4C145.4 244.893 145.045 244.045 145.433 243.028C146.936 239.112 151.408 237.58 154.939 237.24C162.809 236.473 173.152 242.348 174.797 241.4C176.448 240.454 179.776 236.128 184.656 236.309C187.988 236.437 187.963 236.996 189.082 237.418C180.921 243.644 170.728 247.354 159.665 247.354ZM193.89 233.227C193.406 233.089 192.906 232.932 192.367 232.664C189.719 231.315 190.035 233.471 188.734 232.996C187.423 232.509 190.204 229.486 186.291 232.041C182.395 234.593 183.448 231.646 181.746 227.33C180.028 223.008 183.7 218.077 186.769 216.959C190.984 215.432 193.602 215.121 195.581 214.633C201.41 213.178 202.643 209.719 203.7 211.826C203.898 212.219 204.093 212.593 204.268 212.948C204.608 213.578 205 214.851 205.02 216.108C202.543 222.594 198.725 228.42 193.89 233.227ZM207.186 208.726C205.884 208.371 200.434 200.838 204.744 195.88C205.459 195.065 203.297 192.668 203.89 192.618C206.246 192.437 207.499 193.898 208.119 196.007C208.165 196.935 208.204 197.874 208.204 198.82C208.204 202.215 207.846 205.528 207.186 208.726Z" fill="white"/>
<path d="M99.6021 52.8666L104.555 26.6319H109.586L114.578 52.8666H110.05L109.237 48.0686H104.555L103.781 52.8666H99.6021ZM105.135 44.5476H108.657L106.915 34.0228H106.877L105.135 44.5476Z" fill="white"/>
<path d="M121.501 55.537C122.739 55.4986 122.933 55.2272 122.933 54.9181C122.933 54.6473 122.701 54.4924 122.314 54.4924H122.12V53.0606C118.367 52.5959 116.819 49.7712 116.819 46.0953V33.4038C116.819 29.3022 118.753 26.3227 123.397 26.3227C128.273 26.3227 129.628 29.0315 129.628 32.9008V35.9968H125.603V32.5526C125.603 30.9274 125.062 29.9986 123.475 29.9986C121.889 29.9986 121.231 31.1213 121.231 32.7074V46.7923C121.231 48.379 121.889 49.5011 123.475 49.5011C125.062 49.5011 125.603 48.4949 125.603 46.9472V42.1102H129.628V46.6374C129.628 50.3134 128.157 53.0222 123.784 53.1771V53.5253C124.829 53.6801 125.409 54.0668 125.409 54.9187C125.409 56.1182 124.287 56.7756 121.501 56.7756V55.537Z" fill="white"/>
<path d="M131.755 52.8664L136.708 26.6316H141.738L146.73 52.8664H142.202L141.39 48.0684H136.707L135.934 52.8664H131.755ZM135.199 25.5864C135.276 23.7673 135.973 22.2971 137.908 22.2971C139.03 22.2971 139.959 22.955 140.539 22.955C140.849 22.955 141.081 22.7617 141.081 22.3745H143.248C143.17 24.193 142.474 25.6638 140.539 25.6638C139.416 25.6638 138.488 25.0058 137.908 25.0058C137.598 25.0058 137.366 25.1992 137.366 25.5864H135.199ZM137.289 44.5473H140.811L139.069 34.0226H139.03L137.289 44.5473Z" fill="white"/>
<path d="M148.972 46.0953V33.4038C148.972 29.3022 150.984 26.3227 155.628 26.3227C160.309 26.3227 162.322 29.3022 162.322 33.4038V46.0953C162.322 50.1585 160.309 53.1764 155.628 53.1764C150.984 53.1764 148.972 50.1585 148.972 46.0953ZM157.912 46.7917V32.7068C157.912 31.1201 157.214 29.998 155.628 29.998C154.08 29.998 153.383 31.1207 153.383 32.7068V46.7917C153.383 48.3784 154.08 49.5005 155.628 49.5005C157.214 49.5005 157.912 48.3784 157.912 46.7917Z" fill="white"/>
<path d="M169.75 46.0953V33.4038C169.75 29.3022 171.685 26.3227 176.328 26.3227C181.204 26.3227 182.559 29.0315 182.559 32.9008V35.9968H178.535V32.5526C178.535 30.9274 177.993 29.9986 176.406 29.9986C174.82 29.9986 174.161 31.1213 174.161 32.7074V46.7923C174.161 48.379 174.819 49.5011 176.406 49.5011C177.993 49.5011 178.535 48.4949 178.535 46.9472V42.1102H182.559V46.6374C182.559 50.3908 181.011 53.1771 176.328 53.1771C171.685 53.1764 169.75 50.1585 169.75 46.0953Z" fill="white"/>
<path d="M185.382 46.0953V33.4038C185.382 29.3022 187.395 26.3227 192.038 26.3227C196.721 26.3227 198.733 29.3022 198.733 33.4038V46.0953C198.733 50.1585 196.721 53.1764 192.038 53.1764C187.395 53.1764 185.382 50.1585 185.382 46.0953ZM194.322 46.7917V32.7068C194.322 31.1201 193.624 29.998 192.038 29.998C190.49 29.998 189.793 31.1207 189.793 32.7068V46.7917C189.793 48.3784 190.49 49.5005 192.038 49.5005C193.624 49.5005 194.322 48.3784 194.322 46.7917Z" fill="white"/>
<path d="M205.384 36.3828V52.8666H201.67V26.6319H206.004L210.764 41.6839V26.6319H214.441V52.8666H210.571L205.384 36.3828Z" fill="white"/>
<path d="M216.877 26.6319H228.603V30.2304H224.965V52.8666H220.515V30.2304H216.877V26.6319Z" fill="white"/>
<path d="M235.487 40.8326V52.8666H231.076V26.6319H237.499C241.951 26.6319 243.576 28.8376 243.576 32.5135V35.8803C243.576 38.7049 242.569 40.3691 240.054 40.9497L244.272 52.8673H239.628L235.487 40.8326ZM235.487 30.2304V38.3952H236.958C238.468 38.3952 239.125 37.6213 239.125 36.2279V32.3586C239.125 30.9268 238.467 30.2304 236.958 30.2304H235.487Z" fill="white"/>
<path d="M245.702 52.8666L250.655 26.6319H255.686L260.678 52.8666H256.15L255.337 48.0686H250.655L249.882 52.8666H245.702ZM251.236 44.5476H254.758L253.017 34.0228H252.978L251.236 44.5476Z" fill="white"/>
<path d="M266.711 52.8666L271.664 26.6319H276.695L281.687 52.8666H277.16L276.347 48.0686H271.664L270.891 52.8666H266.711ZM272.245 44.5476H275.767L274.026 34.0228H273.987L272.245 44.5476Z" fill="white"/>
<path d="M112.373 73.0615H112.256L109.276 90.0862H107.225L103.936 73.0615H103.858V90.0862H100.221V63.8515H105.368L108.232 78.6327H108.27L110.824 63.8515H116.396V90.0862H112.372L112.373 73.0615Z" fill="white"/>
<path d="M131.139 63.8521V83.7027C131.139 87.7653 129.397 90.3966 124.909 90.3966C120.265 90.3966 118.33 87.7653 118.33 83.7027V63.8521H122.741V84.1284C122.741 85.6761 123.361 86.7207 124.909 86.7207C126.456 86.7207 127.075 85.6761 127.075 84.1284V63.8521H131.139Z" fill="white"/>
<path d="M146.267 70.8942V83.0447C146.267 87.0683 144.603 90.0862 139.883 90.0862H133.072V63.8515H139.883C144.603 63.8521 146.267 66.831 146.267 70.8942ZM139.34 86.4877C141.16 86.4877 141.855 85.4053 141.855 83.8186V70.0813C141.855 68.5336 141.16 67.45 139.34 67.45H137.483V86.4877H139.34Z" fill="white"/>
<path d="M147.504 90.0862L152.457 63.8515H157.488L162.481 90.0862H157.952L157.14 85.2889H152.457L151.683 90.0862H147.504ZM153.038 81.7678H156.56L154.818 71.243H154.779L153.038 81.7678Z" fill="white"/>
<path d="M167.43 73.603V90.0862H163.716V63.8515H168.05L172.81 78.9041V63.8515H176.487V90.0862H172.617L167.43 73.603Z" fill="white"/>
<path d="M183.1 92.7566C184.339 92.7182 184.531 92.4468 184.531 92.1376C184.531 91.8662 184.3 91.7113 183.913 91.7113H183.72V90.2795C179.965 89.8148 178.417 86.9902 178.417 83.3148V70.6234C178.417 66.5218 180.353 63.5416 184.996 63.5416C189.872 63.5416 191.226 66.2504 191.226 70.1197V73.2151H187.202V69.7715C187.202 68.1463 186.66 67.2176 185.073 67.2176C183.487 67.2176 182.829 68.339 182.829 69.9257V84.0106C182.829 85.5973 183.487 86.7188 185.073 86.7188C186.66 86.7188 187.202 85.7132 187.202 84.1655V79.3285H191.226V83.8563C191.226 87.5317 189.756 90.2405 185.383 90.3954V90.7436C186.428 90.8985 187.008 91.2857 187.008 92.137C187.008 93.3365 185.886 93.9939 183.099 93.9939V92.7566H183.1Z" fill="white"/>
<path d="M192.347 90.0862L197.3 63.8515H202.331L207.323 90.0862H202.795L201.982 85.2889H197.3L196.526 90.0862H192.347ZM197.881 81.7678H201.403L199.661 71.243H199.623L197.881 81.7678Z" fill="white"/>
<path d="M218.697 76.0794H224.966V90.0862H221.793V87.2225C221.213 89.1959 219.974 90.396 217.575 90.396C213.782 90.396 212.041 87.3774 212.041 83.3148V70.6234C212.041 66.5218 214.015 63.5416 218.658 63.5416C223.534 63.5416 224.966 66.2504 224.966 70.1197V72.4412H220.942V69.7715C220.942 68.1463 220.322 67.2176 218.735 67.2176C217.149 67.2176 216.452 68.339 216.452 69.9257V84.0106C216.452 85.5973 217.11 86.7188 218.62 86.7188C220.052 86.7188 220.787 85.9065 220.787 84.2039V79.5608H218.697V76.0794Z" fill="white"/>
<path d="M226.898 63.8521H231.309V86.4877H236.572V90.0869H226.898V63.8521Z" fill="white"/>
<path d="M238.003 83.3155V70.624C238.003 66.5224 240.016 63.5423 244.659 63.5423C249.342 63.5423 251.354 66.5218 251.354 70.624V83.3155C251.354 87.378 249.342 90.3966 244.659 90.3966C240.016 90.396 238.003 87.3774 238.003 83.3155ZM246.943 84.0119V69.927C246.943 68.3403 246.246 67.2188 244.659 67.2188C243.112 67.2188 242.414 68.3403 242.414 69.927V84.0119C242.414 85.5986 243.112 86.72 244.659 86.72C246.246 86.72 246.943 85.598 246.943 84.0119Z" fill="white"/>
<path d="M253.287 63.8521H259.672C264.083 63.8521 265.554 65.9023 265.554 69.6179V72.2882C265.554 74.4939 264.742 75.8867 262.923 76.4667C265.128 76.9698 266.212 78.44 266.212 80.8397V84.3223C266.212 88.0361 264.549 90.0875 260.137 90.0875H253.287V63.8521ZM257.699 74.9184H259.248C260.68 74.9184 261.337 74.1835 261.337 72.7901V69.5782C261.337 68.1464 260.679 67.4493 259.209 67.4493H257.698V74.9184H257.699ZM257.699 78.2851V86.4877H259.634C261.104 86.4877 261.801 85.7529 261.801 84.3601V80.4134C261.801 79.02 261.143 78.2845 259.595 78.2845H257.699V78.2851Z" fill="white"/>
<path d="M267.138 90.0862L272.091 63.8515H277.122L282.114 90.0862H277.586L276.774 85.2889H272.091L271.317 90.0862H267.138ZM272.671 81.7678H276.193L274.452 71.243H274.413L272.671 81.7678Z" fill="white"/>
<path d="M283.351 63.8521H287.762V86.4877H293.025V90.0869H283.351V63.8521Z" fill="white"/>
<path d="M113.417 106.066V118.217C113.417 122.241 111.753 125.259 107.032 125.259H100.221V99.0237H107.032C111.753 99.0243 113.417 102.004 113.417 106.066ZM106.49 121.661C108.309 121.661 109.005 120.578 109.005 118.991V105.254C109.005 103.706 108.308 102.622 106.49 102.622H104.632V121.661H106.49Z" fill="white"/>
<path d="M115.35 118.488V105.796C115.35 101.695 117.362 98.7145 122.006 98.7145C126.688 98.7145 128.701 101.695 128.701 105.796V118.488C128.701 122.551 126.688 125.569 122.006 125.569C117.362 125.569 115.35 122.551 115.35 118.488ZM124.288 119.184V105.099C124.288 103.513 123.592 102.391 122.006 102.391C120.458 102.391 119.761 103.513 119.761 105.099V119.184C119.761 120.771 120.458 121.893 122.006 121.893C123.592 121.893 124.288 120.771 124.288 119.184Z" fill="white"/>
<path d="M134.117 118.488V105.796C134.117 101.695 136.052 98.7145 140.696 98.7145C145.571 98.7145 146.925 101.423 146.925 105.293V108.388H142.901V104.944C142.901 103.319 142.359 102.39 140.773 102.39C139.186 102.39 138.528 103.513 138.528 105.099V119.184C138.528 120.77 139.186 121.892 140.773 121.892C142.359 121.892 142.901 120.886 142.901 119.338V114.501H146.925V119.029C146.925 122.783 145.378 125.569 140.696 125.569C136.052 125.569 134.117 122.551 134.117 118.488Z" fill="white"/>
<path d="M148.741 99.0243H153.152V121.661H158.415V125.26H148.741V99.0243Z" fill="white"/>
<path d="M159.847 99.0243H164.258V125.26H159.847V99.0243Z" fill="white"/>
<path d="M178.382 108.234H178.265L175.286 125.26H173.234L169.946 108.234H169.868V125.26H166.23V99.0243H171.378L174.241 113.806H174.279L176.834 99.0243H182.406V125.26H178.382V108.234Z" fill="white"/>
<path d="M183.643 125.26L188.596 99.0243H193.627L198.619 125.26H194.09L193.278 120.462H188.596L187.821 125.26H183.643ZM189.176 116.94H192.698L190.956 106.415H190.918L189.176 116.94Z" fill="white"/>
</svg>
