<svg width="315" height="315" viewBox="0 0 315 315" fill="none" xmlns="http://www.w3.org/2000/svg">
<path d="M314.572 0.45282H0.106934V314.918H314.572V0.45282Z" fill="#A21C44"/>
<path d="M61.2078 74.6966V67.7752C61.2078 61.6981 59.0599 57.3017 54.1004 55.0563C58.3056 53.0028 60.2739 49.2626 60.2739 44.0255V41.4036C60.2739 31.4899 55.1306 26.1609 45.311 26.1609C35.5872 26.1609 30.5339 31.4899 30.5339 41.4036V44.0255C30.5339 49.1681 32.4079 53.0028 36.5174 55.0563C31.5622 57.3011 29.5044 61.6975 29.5044 67.7752V74.6966C29.5044 84.3288 34.0892 91.0626 45.311 91.0626C56.6236 91.0626 61.2078 84.3288 61.2078 74.6966ZM40.5386 40.7549C40.5386 36.9146 41.8515 34.6692 45.3104 34.6692C48.8607 34.6692 50.1748 36.9146 50.1748 40.7549V45.0513C50.1748 48.8854 48.8607 51.1352 45.3104 51.1352C41.8515 51.1352 40.5386 48.8854 40.5386 45.0513V40.7549ZM50.5458 75.8193C50.5458 79.6547 49.1422 82.3673 45.3104 82.3673C41.5663 82.3673 40.1677 79.6547 40.1677 75.8193V65.5304C40.1677 61.6981 41.5663 58.9867 45.3104 58.9867C49.1422 58.9867 50.5458 61.6981 50.5458 65.5304V75.8193Z" fill="white"/>
<path d="M217.007 155.164L185.046 185.567C183.837 186.769 183.22 187.652 183.22 190.135V275.35C183.22 276.35 184.037 277.167 185.046 277.167H218.061C219.067 277.167 219.88 276.35 219.88 275.35V155.929C219.879 154.925 219.092 153.089 217.007 155.164Z" fill="white"/>
<path d="M124.926 194.776L92.9608 225.177C91.7561 226.379 91.1372 227.261 91.1372 229.74V275.35C91.1372 276.346 91.9555 277.165 92.9608 277.165H125.978C126.986 277.165 127.799 276.347 127.799 275.35V195.539C127.798 194.532 127.005 192.692 124.926 194.776Z" fill="white"/>
<path d="M231.536 118.292C231.547 118.049 231.462 117.79 231.263 117.6C231.095 117.436 230.881 117.358 230.676 117.34L230.498 117.352L230.236 117.365L205.764 122.888L205.317 122.933C205.141 122.968 204.976 123.056 204.839 123.183C204.477 123.546 204.477 124.134 204.839 124.499L205.114 124.775L210.705 130.363L155.247 185.82L129.635 160.205C129.344 159.913 128.884 159.913 128.591 160.205L121.643 167.157C121.636 167.157 121.636 167.165 121.636 167.165L80.5758 208.216C80.2924 208.506 80.2924 208.976 80.5758 209.26L87.5359 216.215C87.8192 216.504 88.2821 216.504 88.5698 216.215L129.118 175.678L147.707 194.266C147.724 194.296 147.734 194.326 147.765 194.355L154.718 201.297C155.005 201.591 155.468 201.591 155.76 201.297L218.703 138.359L224.573 144.223C224.931 144.59 225.519 144.59 225.878 144.223C226.046 144.054 226.13 143.844 226.142 143.623L226.147 143.544L231.523 118.561L231.536 118.292Z" fill="white"/>
<path d="M171.148 200.112L155.683 215.702C155.388 215.945 154.96 215.939 154.687 215.666L140.676 201.385C138.112 198.829 137.557 200.902 137.557 201.905V275.346C137.557 276.346 138.364 277.165 139.365 277.165H172.394C173.39 277.165 174.207 276.347 174.207 275.346V200.688C174.208 199.683 173.417 197.84 171.148 200.112Z" fill="white"/>
<path d="M80.2231 24.812H91.7109V28.338H88.147V50.517H83.7865V28.338H80.2231V24.812Z" fill="white"/>
<path d="M98.3068 38.7263V50.517H93.9849V24.812H100.279C104.639 24.812 106.231 26.973 106.231 30.5747V33.8733C106.231 36.6406 105.245 38.2709 102.78 38.84L106.913 50.517H102.364L98.3068 38.7263ZM98.3068 28.338V36.338H99.7477C101.226 36.338 101.871 35.5794 101.871 34.2144V30.4231C101.871 29.0202 101.226 28.338 99.7477 28.338H98.3068Z" fill="white"/>
<path d="M108.163 50.517L113.016 24.812H117.945L122.836 50.517H118.4L117.604 45.8161H113.016L112.258 50.517H108.163ZM113.584 42.366H117.035L115.328 32.0534H115.291L113.584 42.366Z" fill="white"/>
<path d="M124.881 24.812H131.136C135.458 24.812 136.899 26.8214 136.899 30.461V33.0767C136.899 35.2383 136.103 36.6027 134.321 37.1712C136.482 37.6645 137.544 39.1047 137.544 41.4551V44.8674C137.544 48.507 135.914 50.5163 131.592 50.5163H124.881V24.812ZM129.203 35.6552H130.719C132.122 35.6552 132.767 34.9351 132.767 33.5701V30.4237C132.767 29.0208 132.122 28.3386 130.682 28.3386H129.203V35.6552ZM129.203 38.9537V46.991H131.099C132.539 46.991 133.222 46.2709 133.222 44.9059V41.0388C133.222 39.6738 132.577 38.9537 131.061 38.9537H129.203Z" fill="white"/>
<path d="M139.285 50.517L144.138 24.812H149.067L153.958 50.517H149.522L148.726 45.8161H144.138L143.38 50.517H139.285ZM144.706 42.366H148.157L146.45 32.0534H146.413L144.706 42.366Z" fill="white"/>
<path d="M156.003 24.812H160.325V46.991H165.481V50.517H156.003V24.812Z" fill="white"/>
<path d="M176.21 39.1811H172.039V50.517H167.717V24.812H172.039V35.6931H176.21V24.812H180.57V50.517H176.21V39.1811Z" fill="white"/>
<path d="M183.299 43.882V31.447C183.299 27.4284 185.27 24.5088 189.82 24.5088C194.408 24.5088 196.379 27.4284 196.379 31.447V43.882C196.379 47.8627 194.408 50.8202 189.82 50.8202C185.27 50.8202 183.299 47.8627 183.299 43.882ZM192.056 44.5648V30.7642C192.056 29.2103 191.374 28.1106 189.819 28.1106C188.303 28.1106 187.62 29.2103 187.62 30.7642V44.5648C187.62 46.1193 188.303 47.2184 189.819 47.2184C191.374 47.2184 192.056 46.1193 192.056 44.5648Z" fill="white"/>
<path d="M216.281 31.7123V43.6167C216.281 47.5595 214.65 50.5164 210.025 50.5164H203.353V24.8114H210.025C214.65 24.812 216.281 27.7316 216.281 31.7123ZM209.495 46.991C211.276 46.991 211.959 45.9298 211.959 44.3753V30.9164C211.959 29.3998 211.276 28.3386 209.495 28.3386H207.675V46.9917H209.495V46.991Z" fill="white"/>
<path d="M219.009 24.812H229.322V28.338H223.331V35.6931H227.616V39.1811H223.331V46.991H229.322V50.517H219.009V24.812Z" fill="white"/>
<path d="M231.897 43.882V31.447C231.897 27.4284 233.793 24.5088 238.343 24.5088C243.119 24.5088 244.446 27.1624 244.446 30.9543V33.9876H240.504V30.6132C240.504 29.0214 239.973 28.1112 238.418 28.1112C236.864 28.1112 236.219 29.2109 236.219 30.7648V44.5654C236.219 46.1199 236.864 47.219 238.418 47.219C239.973 47.219 240.504 46.233 240.504 44.717V39.9783H244.446V44.4138C244.446 48.0914 242.93 50.8208 238.343 50.8208C233.793 50.8202 231.897 47.8627 231.897 43.882Z" fill="white"/>
<path d="M246.228 24.812H256.54V28.338H250.55V35.6931H254.834V39.1811H250.55V46.991H256.54V50.517H246.228V24.812Z" fill="white"/>
<path d="M261.923 34.366V50.517H258.283V24.812H262.529L267.193 39.5601V24.812H270.795V50.517H267.004L261.923 34.366Z" fill="white"/>
<path d="M272.196 24.812H283.684V28.338H280.12V50.517H275.759V28.338H272.196V24.812Z" fill="white"/>
<path d="M285.122 24.812H295.435V28.338H289.444V35.6931H293.729V39.1811H289.444V46.991H295.435V50.517H285.122V24.812Z" fill="white"/>
<path d="M78.7627 60.6159H89.0755V64.1418H83.0847V71.4969H87.3694V74.9843H83.0847V82.7942H89.0755V86.3202H78.7627V60.6159Z" fill="white"/>
<path d="M94.5327 79.6851V67.2495C94.5327 63.2308 96.4284 60.3119 100.978 60.3119C105.755 60.3119 107.082 62.9655 107.082 66.7568V69.79H103.139V66.4157C103.139 64.8233 102.608 63.9137 101.054 63.9137C99.4996 63.9137 98.8547 65.0134 98.8547 66.5679V80.3679C98.8547 81.9224 99.4996 83.0221 101.054 83.0221C102.608 83.0221 103.139 82.0361 103.139 80.5201V75.7807H107.082V80.2169C107.082 83.8945 105.566 86.6239 100.978 86.6239C96.4284 86.6233 94.5327 83.6658 94.5327 79.6851Z" fill="white"/>
<path d="M113.337 74.5289V86.3196H109.015V60.6153H115.309C119.669 60.6153 121.262 62.7756 121.262 66.3773V69.6759C121.262 72.4438 120.276 74.0741 117.811 74.6426L121.943 86.3196H117.394L113.337 74.5289ZM113.337 64.1418V72.1412H114.778C116.257 72.1412 116.901 71.3826 116.901 70.0182V66.2263C116.901 64.8234 116.257 64.1418 114.778 64.1418H113.337Z" fill="white"/>
<path d="M123.193 60.6159H133.506V64.1418H127.515V71.4969H131.799V74.9843H127.515V82.7942H133.506V86.3202H123.193V60.6159Z" fill="white"/>
<path d="M135.172 80.7849V77.3348H139.192V80.8607C139.192 82.3015 139.836 83.1353 141.315 83.1353C142.679 83.1353 143.286 82.2257 143.286 80.8607V79.8753C143.286 78.3966 142.679 77.4864 141.353 76.2357L138.813 73.6957C136.348 71.2695 135.211 69.7908 135.211 66.8333V65.9616C135.211 62.7768 137.068 60.3127 141.277 60.3127C145.599 60.3127 147.305 62.4357 147.305 66.1505V68.2356H143.362V65.9983C143.362 64.5196 142.679 63.7995 141.315 63.7995C140.101 63.7995 139.268 64.4823 139.268 65.9225V66.4537C139.268 67.8945 140.063 68.7283 141.315 69.9418L144.082 72.6718C146.433 75.0601 147.57 76.501 147.57 79.3441V80.5954C147.57 84.1214 145.674 86.6234 141.276 86.6234C136.879 86.6234 135.172 84.1586 135.172 80.7849Z" fill="white"/>
<path d="M149.426 79.6851V67.2495C149.426 63.2308 151.322 60.3119 155.871 60.3119C160.648 60.3119 161.975 62.9655 161.975 66.7568V69.79H158.032V66.4157C158.032 64.8233 157.502 63.9137 155.947 63.9137C154.393 63.9137 153.748 65.0134 153.748 66.5679V80.3679C153.748 81.9224 154.393 83.0221 155.947 83.0221C157.501 83.0221 158.032 82.0361 158.032 80.5201V75.7807H161.975V80.2169C161.975 83.8945 160.459 86.6239 155.871 86.6239C151.322 86.6233 149.426 83.6658 149.426 79.6851Z" fill="white"/>
<path d="M163.907 60.6159H168.229V86.3202H163.907V60.6159Z" fill="white"/>
<path d="M182.219 69.6386H182.105L179.185 86.3202H177.177L173.954 69.6386H173.878V86.3202H170.314V60.6159H175.357L178.162 75.098H178.2L180.702 60.6159H186.162V86.3202H182.218V69.6386H182.219Z" fill="white"/>
<path d="M188.207 60.6159H198.519V64.1418H192.529V71.4969H196.813V74.9843H192.529V82.7942H198.519V86.3202H188.207V60.6159Z" fill="white"/>
<path d="M204.054 70.1698V86.3202H200.414V60.6159H204.66L209.324 75.3633V60.6159H212.926V86.3202H209.134L204.054 70.1698Z" fill="white"/>
<path d="M214.478 60.6159H225.965V64.1418H222.401V86.3202H218.041V64.1418H214.478V60.6159Z" fill="white"/>
<path d="M227.556 79.6851V67.2495C227.556 63.2308 229.528 60.3119 234.077 60.3119C238.665 60.3119 240.636 63.2308 240.636 67.2495V79.6851C240.636 83.6658 238.665 86.6233 234.077 86.6233C229.528 86.6233 227.556 83.6658 227.556 79.6851ZM236.314 80.3679V66.5679C236.314 65.0134 235.632 63.9137 234.077 63.9137C232.561 63.9137 231.878 65.0134 231.878 66.5679V80.3679C231.878 81.9224 232.561 83.0221 234.077 83.0221C235.632 83.0215 236.314 81.9224 236.314 80.3679Z" fill="white"/>
<path d="M78.7627 95.7896H89.0755V99.3156H83.0847V106.671H87.3694V110.158H83.0847V117.968H89.0755V121.494H78.7627V95.7896Z" fill="white"/>
<path d="M90.8179 114.859V102.423C90.8179 98.4047 92.7136 95.4858 97.2629 95.4858C102.04 95.4858 103.367 98.1394 103.367 101.931V104.964H99.4239V101.59C99.4239 99.9965 98.8933 99.0875 97.3387 99.0875C95.7848 99.0875 95.1399 100.187 95.1399 101.741V115.541C95.1399 117.096 95.7848 118.195 97.3387 118.195C98.8933 118.195 99.4239 117.209 99.4239 115.693V110.953H103.367V115.39C103.367 119.067 101.851 121.796 97.2629 121.796C92.7136 121.797 90.8179 118.84 90.8179 114.859Z" fill="white"/>
<path d="M105.147 114.859V102.423C105.147 98.4047 107.118 95.4858 111.668 95.4858C116.256 95.4858 118.227 98.4047 118.227 102.423V114.859C118.227 118.84 116.256 121.797 111.668 121.797C107.118 121.797 105.147 118.84 105.147 114.859ZM113.905 115.542V101.742C113.905 100.187 113.222 99.0881 111.668 99.0881C110.152 99.0881 109.469 100.188 109.469 101.742V115.542C109.469 117.096 110.152 118.195 111.668 118.195C113.222 118.196 113.905 117.096 113.905 115.542Z" fill="white"/>
<path d="M123.762 105.344V121.494H120.122V95.7896H124.368L129.032 110.537V95.7896H132.634V121.494H128.842L123.762 105.344Z" fill="white"/>
<path d="M134.526 114.859V102.423C134.526 98.4048 136.498 95.4858 141.047 95.4858C145.635 95.4858 147.607 98.4048 147.607 102.423V114.859C147.607 118.84 145.635 121.797 141.047 121.797C136.498 121.797 134.526 118.84 134.526 114.859ZM137.37 94.8415V92.757L140.1 90.7477H141.997L144.726 92.757V94.8415L141.087 93.7418L137.37 94.8415ZM143.285 115.542V101.742C143.285 100.187 142.602 99.0882 141.047 99.0882C139.531 99.0882 138.848 100.188 138.848 101.742V115.542C138.848 117.096 139.531 118.195 141.047 118.195C142.602 118.196 143.285 117.096 143.285 115.542Z" fill="white"/>
<path d="M161.406 104.812H161.292L158.372 121.494H156.363L153.141 104.812H153.065V121.494H149.501V95.7896H154.544L157.35 110.272H157.388L159.89 95.7896H165.35V121.494H161.406L161.406 104.812Z" fill="white"/>
<path d="M167.242 95.7896H171.564V121.494H167.242V95.7896Z" fill="white"/>
<path d="M173.498 114.859V102.423C173.498 98.4047 175.393 95.4858 179.943 95.4858C184.72 95.4858 186.047 98.1394 186.047 101.931V104.964H182.104V101.59C182.104 99.9965 181.573 99.0875 180.018 99.0875C178.464 99.0875 177.82 100.187 177.82 101.741V115.541C177.82 117.096 178.464 118.195 180.018 118.195C181.573 118.195 182.104 117.209 182.104 115.693V110.953H186.047V115.39C186.047 119.067 184.531 121.796 179.943 121.796C175.393 121.797 173.498 118.84 173.498 114.859Z" fill="white"/>
<path d="M187.827 114.859V102.423C187.827 98.4047 189.798 95.4858 194.348 95.4858C198.935 95.4858 200.907 98.4047 200.907 102.423V114.859C200.907 118.84 198.935 121.797 194.348 121.797C189.798 121.797 187.827 118.84 187.827 114.859ZM196.584 115.542V101.742C196.584 100.187 195.901 99.0881 194.347 99.0881C192.831 99.0881 192.148 100.188 192.148 101.742V115.542C192.148 117.096 192.831 118.195 194.347 118.195C195.902 118.196 196.584 117.096 196.584 115.542Z" fill="white"/>
</svg>
